<?xml version="1.0" encoding="UTF-8" standalone="no"?>
<!DOCTYPE svg PUBLIC "-//W3C//DTD SVG 1.1//EN"
 "http://www.w3.org/Graphics/SVG/1.1/DTD/svg11.dtd">
<!-- Generated by graphviz version 12.1.2 (20240928.0832)
 -->
<!-- Title: dbt_stg.alerts_dbt_models Pages: 1 -->
<svg width="379pt" height="567pt"
 viewBox="0.00 0.00 378.56 567.20" xmlns="http://www.w3.org/2000/svg" xmlns:xlink="http://www.w3.org/1999/xlink">
<g id="graph0" class="graph" transform="scale(1 1) rotate(0) translate(4 563.2)">
<title>dbt_stg.alerts_dbt_models</title>
<polygon fill="white" stroke="none" points="-4,4 -4,-563.2 374.56,-563.2 374.56,4 -4,4"/>
<!-- dbt_stg.alerts_dbt_models -->
<g id="node1" class="node">
<title>dbt_stg.alerts_dbt_models</title>
<polygon fill="#efefef" stroke="none" points="46.2,-477.4 46.2,-513 324.36,-513 324.36,-477.4 46.2,-477.4"/>
<polygon fill="none" stroke="black" points="46.2,-477.4 46.2,-513 324.36,-513 324.36,-477.4 46.2,-477.4"/>
<text text-anchor="start" x="53.2" y="-490.8" font-family="Arial Bold" font-size="18.00">dbt_stg.alerts_dbt_models</text>
<text text-anchor="start" x="242.68" y="-490.8" font-family="Arial" font-size="14.00">    </text>
<text text-anchor="start" x="273.8" y="-490.8" font-family="Arial" font-size="14.00" fill="#666666">[VIEW]</text>
<polygon fill="none" stroke="black" points="46.2,-446.6 46.2,-477.4 324.36,-477.4 324.36,-446.6 46.2,-446.6"/>
<text text-anchor="start" x="53.2" y="-458.8" font-family="Arial" font-size="14.00">alert_id </text>
<text text-anchor="start" x="103.01" y="-458.8" font-family="Arial" font-size="14.00" fill="#666666">[text]</text>
<polygon fill="none" stroke="black" points="46.2,-415.8 46.2,-446.6 324.36,-446.6 324.36,-415.8 46.2,-415.8"/>
<text text-anchor="start" x="53.2" y="-428" font-family="Arial" font-size="14.00">unique_id </text>
<text text-anchor="start" x="117.81" y="-428" font-family="Arial" font-size="14.00" fill="#666666">[text]</text>
<polygon fill="none" stroke="black" points="46.2,-385 46.2,-415.8 324.36,-415.8 324.36,-385 46.2,-385"/>
<text text-anchor="start" x="53.2" y="-397.2" font-family="Arial" font-size="14.00">detected_at </text>
<text text-anchor="start" x="130.26" y="-397.2" font-family="Arial" font-size="14.00" fill="#666666">[timestamp without time zone]</text>
<polygon fill="none" stroke="black" points="46.2,-354.2 46.2,-385 324.36,-385 324.36,-354.2 46.2,-354.2"/>
<text text-anchor="start" x="53.2" y="-366.4" font-family="Arial" font-size="14.00">database_name </text>
<text text-anchor="start" x="157.5" y="-366.4" font-family="Arial" font-size="14.00" fill="#666666">[varchar(4096)]</text>
<polygon fill="none" stroke="black" points="46.2,-323.4 46.2,-354.2 324.36,-354.2 324.36,-323.4 46.2,-323.4"/>
<text text-anchor="start" x="53.2" y="-335.6" font-family="Arial" font-size="14.00">materialization </text>
<text text-anchor="start" x="147.35" y="-335.6" font-family="Arial" font-size="14.00" fill="#666666">[varchar(4096)]</text>
<polygon fill="none" stroke="black" points="46.2,-292.6 46.2,-323.4 324.36,-323.4 324.36,-292.6 46.2,-292.6"/>
<text text-anchor="start" x="53.2" y="-304.8" font-family="Arial" font-size="14.00">path </text>
<text text-anchor="start" x="84.34" y="-304.8" font-family="Arial" font-size="14.00" fill="#666666">[varchar(4096)]</text>
<polygon fill="none" stroke="black" points="46.2,-261.8 46.2,-292.6 324.36,-292.6 324.36,-261.8 46.2,-261.8"/>
<text text-anchor="start" x="53.2" y="-274" font-family="Arial" font-size="14.00">original_path </text>
<text text-anchor="start" x="137.26" y="-274" font-family="Arial" font-size="14.00" fill="#666666">[text]</text>
<polygon fill="none" stroke="black" points="46.2,-231 46.2,-261.8 324.36,-261.8 324.36,-231 46.2,-231"/>
<text text-anchor="start" x="53.2" y="-243.2" font-family="Arial" font-size="14.00">schema_name </text>
<text text-anchor="start" x="148.92" y="-243.2" font-family="Arial" font-size="14.00" fill="#666666">[varchar(4096)]</text>
<polygon fill="none" stroke="black" points="46.2,-200.2 46.2,-231 324.36,-231 324.36,-200.2 46.2,-200.2"/>
<text text-anchor="start" x="53.2" y="-212.4" font-family="Arial" font-size="14.00">message </text>
<text text-anchor="start" x="113.9" y="-212.4" font-family="Arial" font-size="14.00" fill="#666666">[text]</text>
<polygon fill="none" stroke="black" points="46.2,-169.4 46.2,-200.2 324.36,-200.2 324.36,-169.4 46.2,-169.4"/>
<text text-anchor="start" x="53.2" y="-181.6" font-family="Arial" font-size="14.00">owners </text>
<text text-anchor="start" x="102.22" y="-181.6" font-family="Arial" font-size="14.00" fill="#666666">[varchar(4096)]</text>
<polygon fill="none" stroke="black" points="46.2,-138.6 46.2,-169.4 324.36,-169.4 324.36,-138.6 46.2,-138.6"/>
<text text-anchor="start" x="53.2" y="-150.8" font-family="Arial" font-size="14.00">tags </text>
<text text-anchor="start" x="83.55" y="-150.8" font-family="Arial" font-size="14.00" fill="#666666">[text]</text>
<polygon fill="none" stroke="black" points="46.2,-107.8 46.2,-138.6 324.36,-138.6 324.36,-107.8 46.2,-107.8"/>
<text text-anchor="start" x="53.2" y="-120" font-family="Arial" font-size="14.00">alias </text>
<text text-anchor="start" x="85.88" y="-120" font-family="Arial" font-size="14.00" fill="#666666">[varchar(4096)]</text>
<polygon fill="none" stroke="black" points="46.2,-77 46.2,-107.8 324.36,-107.8 324.36,-77 46.2,-77"/>
<text text-anchor="start" x="53.2" y="-89.2" font-family="Arial" font-size="14.00">status </text>
<text text-anchor="start" x="94.44" y="-89.2" font-family="Arial" font-size="14.00" fill="#666666">[varchar(4096)]</text>
<polygon fill="none" stroke="black" points="46.2,-46.2 46.2,-77 324.36,-77 324.36,-46.2 46.2,-46.2"/>
<text text-anchor="start" x="53.2" y="-58.4" font-family="Arial" font-size="14.00">full_refresh </text>
<text text-anchor="start" x="126.34" y="-58.4" font-family="Arial" font-size="14.00" fill="#666666">[boolean]</text>
<polygon fill="none" stroke="black" stroke-width="3" points="44.7,-44.7 44.7,-514.5 325.86,-514.5 325.86,-44.7 44.7,-44.7"/>
</g>
</g>
</svg>
