<?xml version="1.0" encoding="UTF-8" standalone="no"?>
<!DOCTYPE svg PUBLIC "-//W3C//DTD SVG 1.1//EN"
 "http://www.w3.org/Graphics/SVG/1.1/DTD/svg11.dtd">
<!-- Generated by graphviz version 12.1.2 (20240928.0832)
 -->
<!-- Title: dbt_stg.countries Pages: 1 -->
<svg width="362pt" height="259pt"
 viewBox="0.00 0.00 362.38 259.20" xmlns="http://www.w3.org/2000/svg" xmlns:xlink="http://www.w3.org/1999/xlink">
<g id="graph0" class="graph" transform="scale(1 1) rotate(0) translate(4 255.2)">
<title>dbt_stg.countries</title>
<polygon fill="white" stroke="none" points="-4,4 -4,-255.2 358.38,-255.2 358.38,4 -4,4"/>
<!-- dbt_stg.countries -->
<g id="node1" class="node">
<title>dbt_stg.countries</title>
<polygon fill="#efefef" stroke="none" points="46.2,-169.4 46.2,-205 308.18,-205 308.18,-169.4 46.2,-169.4"/>
<polygon fill="none" stroke="black" points="46.2,-169.4 46.2,-205 308.18,-205 308.18,-169.4 46.2,-169.4"/>
<text text-anchor="start" x="53.2" y="-182.8" font-family="Arial Bold" font-size="18.00">dbt_stg.countries</text>
<text text-anchor="start" x="176.69" y="-182.8" font-family="Arial" font-size="14.00">    </text>
<text text-anchor="start" x="207.8" y="-182.8" font-family="Arial" font-size="14.00" fill="#666666">[BASE TABLE]</text>
<polygon fill="none" stroke="black" points="46.2,-138.6 46.2,-169.4 308.18,-169.4 308.18,-138.6 46.2,-138.6"/>
<text text-anchor="start" x="53.2" y="-150.8" font-family="Arial" font-size="14.00">country_code </text>
<text text-anchor="start" x="141.14" y="-150.8" font-family="Arial" font-size="14.00" fill="#666666">[text]</text>
<polygon fill="none" stroke="black" points="46.2,-107.8 46.2,-138.6 308.18,-138.6 308.18,-107.8 46.2,-107.8"/>
<text text-anchor="start" x="53.2" y="-120" font-family="Arial" font-size="14.00">country_name </text>
<text text-anchor="start" x="145.81" y="-120" font-family="Arial" font-size="14.00" fill="#666666">[text]</text>
<polygon fill="none" stroke="black" points="46.2,-77 46.2,-107.8 308.18,-107.8 308.18,-77 46.2,-77"/>
<text text-anchor="start" x="53.2" y="-89.2" font-family="Arial" font-size="14.00">country_rank </text>
<text text-anchor="start" x="138.02" y="-89.2" font-family="Arial" font-size="14.00" fill="#666666">[integer]</text>
<polygon fill="none" stroke="black" points="46.2,-46.2 46.2,-77 308.18,-77 308.18,-46.2 46.2,-46.2"/>
<text text-anchor="start" x="53.2" y="-58.4" font-family="Arial" font-size="14.00">test_fail </text>
<text text-anchor="start" x="105.34" y="-58.4" font-family="Arial" font-size="14.00" fill="#666666">[integer]</text>
<polygon fill="none" stroke="black" stroke-width="3" points="44.7,-44.7 44.7,-206.5 309.68,-206.5 309.68,-44.7 44.7,-44.7"/>
</g>
</g>
</svg>
