<?xml version="1.0" encoding="UTF-8" standalone="no"?>
<!DOCTYPE svg PUBLIC "-//W3C//DTD SVG 1.1//EN"
 "http://www.w3.org/Graphics/SVG/1.1/DTD/svg11.dtd">
<!-- Generated by graphviz version 12.1.2 (20240928.0832)
 -->
<!-- Title: dbt_stg.metadata Pages: 1 -->
<svg width="361pt" height="167pt"
 viewBox="0.00 0.00 361.36 166.80" xmlns="http://www.w3.org/2000/svg" xmlns:xlink="http://www.w3.org/1999/xlink">
<g id="graph0" class="graph" transform="scale(1 1) rotate(0) translate(4 162.8)">
<title>dbt_stg.metadata</title>
<polygon fill="white" stroke="none" points="-4,4 -4,-162.8 357.36,-162.8 357.36,4 -4,4"/>
<!-- dbt_stg.metadata -->
<g id="node1" class="node">
<title>dbt_stg.metadata</title>
<polygon fill="#efefef" stroke="none" points="46.2,-77 46.2,-112.6 307.16,-112.6 307.16,-77 46.2,-77"/>
<polygon fill="none" stroke="black" points="46.2,-77 46.2,-112.6 307.16,-112.6 307.16,-77 46.2,-77"/>
<text text-anchor="start" x="53.2" y="-90.4" font-family="Arial Bold" font-size="18.00">dbt_stg.metadata</text>
<text text-anchor="start" x="175.67" y="-90.4" font-family="Arial" font-size="14.00">    </text>
<text text-anchor="start" x="206.78" y="-90.4" font-family="Arial" font-size="14.00" fill="#666666">[BASE TABLE]</text>
<polygon fill="none" stroke="black" points="46.2,-46.2 46.2,-77 307.16,-77 307.16,-46.2 46.2,-46.2"/>
<text text-anchor="start" x="53.2" y="-58.4" font-family="Arial" font-size="14.00">dbt_pkg_version </text>
<text text-anchor="start" x="159.83" y="-58.4" font-family="Arial" font-size="14.00" fill="#666666">[text]</text>
<polygon fill="none" stroke="black" stroke-width="3" points="44.7,-44.7 44.7,-114.1 308.66,-114.1 308.66,-44.7 44.7,-44.7"/>
</g>
</g>
</svg>
