<?xml version="1.0" encoding="UTF-8" standalone="no"?>
<!DOCTYPE svg PUBLIC "-//W3C//DTD SVG 1.1//EN"
 "http://www.w3.org/Graphics/SVG/1.1/DTD/svg11.dtd">
<!-- Generated by graphviz version 12.1.2 (20240928.0832)
 -->
<!-- Title: dbt_stg.job_run_results Pages: 1 -->
<svg width="416pt" height="321pt"
 viewBox="0.00 0.00 415.55 320.80" xmlns="http://www.w3.org/2000/svg" xmlns:xlink="http://www.w3.org/1999/xlink">
<g id="graph0" class="graph" transform="scale(1 1) rotate(0) translate(4 316.8)">
<title>dbt_stg.job_run_results</title>
<polygon fill="white" stroke="none" points="-4,4 -4,-316.8 411.55,-316.8 411.55,4 -4,4"/>
<!-- dbt_stg.job_run_results -->
<g id="node1" class="node">
<title>dbt_stg.job_run_results</title>
<polygon fill="#efefef" stroke="none" points="46.2,-231 46.2,-266.6 361.35,-266.6 361.35,-231 46.2,-231"/>
<polygon fill="none" stroke="black" points="46.2,-231 46.2,-266.6 361.35,-266.6 361.35,-231 46.2,-231"/>
<text text-anchor="start" x="81.69" y="-244.4" font-family="Arial Bold" font-size="18.00">dbt_stg.job_run_results</text>
<text text-anchor="start" x="251.19" y="-244.4" font-family="Arial" font-size="14.00">    </text>
<text text-anchor="start" x="282.3" y="-244.4" font-family="Arial" font-size="14.00" fill="#666666">[VIEW]</text>
<polygon fill="none" stroke="black" points="46.2,-200.2 46.2,-231 361.35,-231 361.35,-200.2 46.2,-200.2"/>
<text text-anchor="start" x="53.2" y="-212.4" font-family="Arial" font-size="14.00">name </text>
<text text-anchor="start" x="92.11" y="-212.4" font-family="Arial" font-size="14.00" fill="#666666">[text]</text>
<polygon fill="none" stroke="black" points="46.2,-169.4 46.2,-200.2 361.35,-200.2 361.35,-169.4 46.2,-169.4"/>
<text text-anchor="start" x="53.2" y="-181.6" font-family="Arial" font-size="14.00">id </text>
<text text-anchor="start" x="67.99" y="-181.6" font-family="Arial" font-size="14.00" fill="#666666">[text]</text>
<polygon fill="none" stroke="black" points="46.2,-138.6 46.2,-169.4 361.35,-169.4 361.35,-138.6 46.2,-138.6"/>
<text text-anchor="start" x="53.2" y="-150.8" font-family="Arial" font-size="14.00">run_id </text>
<text text-anchor="start" x="96.01" y="-150.8" font-family="Arial" font-size="14.00" fill="#666666">[text]</text>
<polygon fill="none" stroke="black" points="46.2,-107.8 46.2,-138.6 361.35,-138.6 361.35,-107.8 46.2,-107.8"/>
<text text-anchor="start" x="53.2" y="-120" font-family="Arial" font-size="14.00">run_started_at </text>
<text text-anchor="start" x="147.37" y="-120" font-family="Arial" font-size="14.00" fill="#666666">[timestamp without time zone]</text>
<polygon fill="none" stroke="black" points="46.2,-77 46.2,-107.8 361.35,-107.8 361.35,-77 46.2,-77"/>
<text text-anchor="start" x="53.2" y="-89.2" font-family="Arial" font-size="14.00">run_completed_at </text>
<text text-anchor="start" x="169.16" y="-89.2" font-family="Arial" font-size="14.00" fill="#666666">[timestamp without time zone]</text>
<polygon fill="none" stroke="black" points="46.2,-46.2 46.2,-77 361.35,-77 361.35,-46.2 46.2,-46.2"/>
<text text-anchor="start" x="53.2" y="-58.4" font-family="Arial" font-size="14.00">run_execution_time </text>
<text text-anchor="start" x="179.28" y="-58.4" font-family="Arial" font-size="14.00" fill="#666666">[double precision]</text>
<polygon fill="none" stroke="black" stroke-width="3" points="44.7,-44.7 44.7,-268.1 362.85,-268.1 362.85,-44.7 44.7,-44.7"/>
</g>
</g>
</svg>
