<?xml version="1.0" encoding="UTF-8" standalone="no"?>
<!DOCTYPE svg PUBLIC "-//W3C//DTD SVG 1.1//EN"
 "http://www.w3.org/Graphics/SVG/1.1/DTD/svg11.dtd">
<!-- Generated by graphviz version 12.1.2 (20240928.0832)
 -->
<!-- Title: dbt_stg.dbt_source_freshness_results Pages: 1 -->
<svg width="507pt" height="660pt"
 viewBox="0.00 0.00 507.35 659.60" xmlns="http://www.w3.org/2000/svg" xmlns:xlink="http://www.w3.org/1999/xlink">
<g id="graph0" class="graph" transform="scale(1 1) rotate(0) translate(4 655.6)">
<title>dbt_stg.dbt_source_freshness_results</title>
<polygon fill="white" stroke="none" points="-4,4 -4,-655.6 503.35,-655.6 503.35,4 -4,4"/>
<!-- dbt_stg.dbt_source_freshness_results -->
<g id="node1" class="node">
<title>dbt_stg.dbt_source_freshness_results</title>
<polygon fill="#efefef" stroke="none" points="46.2,-569.8 46.2,-605.4 453.15,-605.4 453.15,-569.8 46.2,-569.8"/>
<polygon fill="none" stroke="black" points="46.2,-569.8 46.2,-605.4 453.15,-605.4 453.15,-569.8 46.2,-569.8"/>
<text text-anchor="start" x="53.2" y="-583.2" font-family="Arial Bold" font-size="18.00">dbt_stg.dbt_source_freshness_results</text>
<text text-anchor="start" x="321.66" y="-583.2" font-family="Arial" font-size="14.00">    </text>
<text text-anchor="start" x="352.78" y="-583.2" font-family="Arial" font-size="14.00" fill="#666666">[BASE TABLE]</text>
<polygon fill="none" stroke="black" points="46.2,-539 46.2,-569.8 453.15,-569.8 453.15,-539 46.2,-539"/>
<text text-anchor="start" x="53.2" y="-551.2" font-family="Arial" font-size="14.00">source_freshness_execution_id </text>
<text text-anchor="start" x="253.99" y="-551.2" font-family="Arial" font-size="14.00" fill="#666666">[varchar(4096)]</text>
<polygon fill="none" stroke="black" points="46.2,-508.2 46.2,-539 453.15,-539 453.15,-508.2 46.2,-508.2"/>
<text text-anchor="start" x="53.2" y="-520.4" font-family="Arial" font-size="14.00">unique_id </text>
<text text-anchor="start" x="117.81" y="-520.4" font-family="Arial" font-size="14.00" fill="#666666">[varchar(4096)]</text>
<polygon fill="none" stroke="black" points="46.2,-477.4 46.2,-508.2 453.15,-508.2 453.15,-477.4 46.2,-477.4"/>
<text text-anchor="start" x="53.2" y="-489.6" font-family="Arial" font-size="14.00">max_loaded_at </text>
<text text-anchor="start" x="152.83" y="-489.6" font-family="Arial" font-size="14.00" fill="#666666">[varchar(4096)]</text>
<polygon fill="none" stroke="black" points="46.2,-446.6 46.2,-477.4 453.15,-477.4 453.15,-446.6 46.2,-446.6"/>
<text text-anchor="start" x="53.2" y="-458.8" font-family="Arial" font-size="14.00">snapshotted_at </text>
<text text-anchor="start" x="152.83" y="-458.8" font-family="Arial" font-size="14.00" fill="#666666">[varchar(4096)]</text>
<polygon fill="none" stroke="black" points="46.2,-415.8 46.2,-446.6 453.15,-446.6 453.15,-415.8 46.2,-415.8"/>
<text text-anchor="start" x="53.2" y="-428" font-family="Arial" font-size="14.00">generated_at </text>
<text text-anchor="start" x="139.61" y="-428" font-family="Arial" font-size="14.00" fill="#666666">[varchar(4096)]</text>
<polygon fill="none" stroke="black" points="46.2,-385 46.2,-415.8 453.15,-415.8 453.15,-385 46.2,-385"/>
<text text-anchor="start" x="53.2" y="-397.2" font-family="Arial" font-size="14.00">created_at </text>
<text text-anchor="start" x="123.25" y="-397.2" font-family="Arial" font-size="14.00" fill="#666666">[timestamp without time zone]</text>
<polygon fill="none" stroke="black" points="46.2,-354.2 46.2,-385 453.15,-385 453.15,-354.2 46.2,-354.2"/>
<text text-anchor="start" x="53.2" y="-366.4" font-family="Arial" font-size="14.00">max_loaded_at_time_ago_in_s </text>
<text text-anchor="start" x="251.67" y="-366.4" font-family="Arial" font-size="14.00" fill="#666666">[double precision]</text>
<polygon fill="none" stroke="black" points="46.2,-323.4 46.2,-354.2 453.15,-354.2 453.15,-323.4 46.2,-323.4"/>
<text text-anchor="start" x="53.2" y="-335.6" font-family="Arial" font-size="14.00">status </text>
<text text-anchor="start" x="94.44" y="-335.6" font-family="Arial" font-size="14.00" fill="#666666">[varchar(4096)]</text>
<polygon fill="none" stroke="black" points="46.2,-292.6 46.2,-323.4 453.15,-323.4 453.15,-292.6 46.2,-292.6"/>
<text text-anchor="start" x="53.2" y="-304.8" font-family="Arial" font-size="14.00">error </text>
<text text-anchor="start" x="86.65" y="-304.8" font-family="Arial" font-size="14.00" fill="#666666">[varchar(4096)]</text>
<polygon fill="none" stroke="black" points="46.2,-261.8 46.2,-292.6 453.15,-292.6 453.15,-261.8 46.2,-261.8"/>
<text text-anchor="start" x="53.2" y="-274" font-family="Arial" font-size="14.00">compile_started_at </text>
<text text-anchor="start" x="175.38" y="-274" font-family="Arial" font-size="14.00" fill="#666666">[varchar(4096)]</text>
<polygon fill="none" stroke="black" points="46.2,-231 46.2,-261.8 453.15,-261.8 453.15,-231 46.2,-231"/>
<text text-anchor="start" x="53.2" y="-243.2" font-family="Arial" font-size="14.00">compile_completed_at </text>
<text text-anchor="start" x="197.17" y="-243.2" font-family="Arial" font-size="14.00" fill="#666666">[varchar(4096)]</text>
<polygon fill="none" stroke="black" points="46.2,-200.2 46.2,-231 453.15,-231 453.15,-200.2 46.2,-200.2"/>
<text text-anchor="start" x="53.2" y="-212.4" font-family="Arial" font-size="14.00">execute_started_at </text>
<text text-anchor="start" x="176.17" y="-212.4" font-family="Arial" font-size="14.00" fill="#666666">[varchar(4096)]</text>
<polygon fill="none" stroke="black" points="46.2,-169.4 46.2,-200.2 453.15,-200.2 453.15,-169.4 46.2,-169.4"/>
<text text-anchor="start" x="53.2" y="-181.6" font-family="Arial" font-size="14.00">execute_completed_at </text>
<text text-anchor="start" x="197.96" y="-181.6" font-family="Arial" font-size="14.00" fill="#666666">[varchar(4096)]</text>
<polygon fill="none" stroke="black" points="46.2,-138.6 46.2,-169.4 453.15,-169.4 453.15,-138.6 46.2,-138.6"/>
<text text-anchor="start" x="53.2" y="-150.8" font-family="Arial" font-size="14.00">invocation_id </text>
<text text-anchor="start" x="138.81" y="-150.8" font-family="Arial" font-size="14.00" fill="#666666">[varchar(4096)]</text>
<polygon fill="none" stroke="black" points="46.2,-107.8 46.2,-138.6 453.15,-138.6 453.15,-107.8 46.2,-107.8"/>
<text text-anchor="start" x="53.2" y="-120" font-family="Arial" font-size="14.00">warn_after </text>
<text text-anchor="start" x="123.23" y="-120" font-family="Arial" font-size="14.00" fill="#666666">[varchar(4096)]</text>
<polygon fill="none" stroke="black" points="46.2,-77 46.2,-107.8 453.15,-107.8 453.15,-77 46.2,-77"/>
<text text-anchor="start" x="53.2" y="-89.2" font-family="Arial" font-size="14.00">error_after </text>
<text text-anchor="start" x="122.45" y="-89.2" font-family="Arial" font-size="14.00" fill="#666666">[varchar(4096)]</text>
<polygon fill="none" stroke="black" points="46.2,-46.2 46.2,-77 453.15,-77 453.15,-46.2 46.2,-46.2"/>
<text text-anchor="start" x="53.2" y="-58.4" font-family="Arial" font-size="14.00">filter </text>
<text text-anchor="start" x="83.54" y="-58.4" font-family="Arial" font-size="14.00" fill="#666666">[text]</text>
<polygon fill="none" stroke="black" stroke-width="3" points="44.7,-44.7 44.7,-606.9 454.65,-606.9 454.65,-44.7 44.7,-44.7"/>
</g>
</g>
</svg>
