<?xml version="1.0" encoding="UTF-8" standalone="no"?>
<!DOCTYPE svg PUBLIC "-//W3C//DTD SVG 1.1//EN"
 "http://www.w3.org/Graphics/SVG/1.1/DTD/svg11.dtd">
<!-- Generated by graphviz version 12.1.2 (20240928.0832)
 -->
<!-- Title: dbt_stg.monitors_runs Pages: 1 -->
<svg width="406pt" height="321pt"
 viewBox="0.00 0.00 406.21 320.80" xmlns="http://www.w3.org/2000/svg" xmlns:xlink="http://www.w3.org/1999/xlink">
<g id="graph0" class="graph" transform="scale(1 1) rotate(0) translate(4 316.8)">
<title>dbt_stg.monitors_runs</title>
<polygon fill="white" stroke="none" points="-4,4 -4,-316.8 402.21,-316.8 402.21,4 -4,4"/>
<!-- dbt_stg.monitors_runs -->
<g id="node1" class="node">
<title>dbt_stg.monitors_runs</title>
<polygon fill="#efefef" stroke="none" points="46.2,-231 46.2,-266.6 352.01,-266.6 352.01,-231 46.2,-231"/>
<polygon fill="none" stroke="black" points="46.2,-231 46.2,-266.6 352.01,-266.6 352.01,-231 46.2,-231"/>
<text text-anchor="start" x="81.01" y="-244.4" font-family="Arial Bold" font-size="18.00">dbt_stg.monitors_runs</text>
<text text-anchor="start" x="242.52" y="-244.4" font-family="Arial" font-size="14.00">    </text>
<text text-anchor="start" x="273.64" y="-244.4" font-family="Arial" font-size="14.00" fill="#666666">[VIEW]</text>
<polygon fill="none" stroke="black" points="46.2,-200.2 46.2,-231 352.01,-231 352.01,-200.2 46.2,-200.2"/>
<text text-anchor="start" x="53.2" y="-212.4" font-family="Arial" font-size="14.00">full_table_name </text>
<text text-anchor="start" x="155.94" y="-212.4" font-family="Arial" font-size="14.00" fill="#666666">[varchar(4096)]</text>
<polygon fill="none" stroke="black" points="46.2,-169.4 46.2,-200.2 352.01,-200.2 352.01,-169.4 46.2,-169.4"/>
<text text-anchor="start" x="53.2" y="-181.6" font-family="Arial" font-size="14.00">column_name </text>
<text text-anchor="start" x="145.03" y="-181.6" font-family="Arial" font-size="14.00" fill="#666666">[varchar(4096)]</text>
<polygon fill="none" stroke="black" points="46.2,-138.6 46.2,-169.4 352.01,-169.4 352.01,-138.6 46.2,-138.6"/>
<text text-anchor="start" x="53.2" y="-150.8" font-family="Arial" font-size="14.00">metric_name </text>
<text text-anchor="start" x="138.01" y="-150.8" font-family="Arial" font-size="14.00" fill="#666666">[varchar(4096)]</text>
<polygon fill="none" stroke="black" points="46.2,-107.8 46.2,-138.6 352.01,-138.6 352.01,-107.8 46.2,-107.8"/>
<text text-anchor="start" x="53.2" y="-120" font-family="Arial" font-size="14.00">metric_properties </text>
<text text-anchor="start" x="165.24" y="-120" font-family="Arial" font-size="14.00" fill="#666666">[varchar(4096)]</text>
<polygon fill="none" stroke="black" points="46.2,-77 46.2,-107.8 352.01,-107.8 352.01,-77 46.2,-77"/>
<text text-anchor="start" x="53.2" y="-89.2" font-family="Arial" font-size="14.00">last_bucket_end </text>
<text text-anchor="start" x="159.05" y="-89.2" font-family="Arial" font-size="14.00" fill="#666666">[timestamp without time zone]</text>
<polygon fill="none" stroke="black" points="46.2,-46.2 46.2,-77 352.01,-77 352.01,-46.2 46.2,-46.2"/>
<text text-anchor="start" x="53.2" y="-58.4" font-family="Arial" font-size="14.00">first_bucket_end </text>
<text text-anchor="start" x="159.82" y="-58.4" font-family="Arial" font-size="14.00" fill="#666666">[timestamp without time zone]</text>
<polygon fill="none" stroke="black" stroke-width="3" points="44.7,-44.7 44.7,-268.1 353.51,-268.1 353.51,-44.7 44.7,-44.7"/>
</g>
</g>
</svg>
