<?xml version="1.0" encoding="UTF-8" standalone="no"?>
<!DOCTYPE svg PUBLIC "-//W3C//DTD SVG 1.1//EN"
 "http://www.w3.org/Graphics/SVG/1.1/DTD/svg11.dtd">
<!-- Generated by graphviz version 12.1.2 (20240928.0832)
 -->
<!-- Title: dbt_stg.metrics_anomaly_score Pages: 1 -->
<svg width="418pt" height="660pt"
 viewBox="0.00 0.00 417.52 659.60" xmlns="http://www.w3.org/2000/svg" xmlns:xlink="http://www.w3.org/1999/xlink">
<g id="graph0" class="graph" transform="scale(1 1) rotate(0) translate(4 655.6)">
<title>dbt_stg.metrics_anomaly_score</title>
<polygon fill="white" stroke="none" points="-4,4 -4,-655.6 413.52,-655.6 413.52,4 -4,4"/>
<!-- dbt_stg.metrics_anomaly_score -->
<g id="node1" class="node">
<title>dbt_stg.metrics_anomaly_score</title>
<polygon fill="#efefef" stroke="none" points="46.2,-569.8 46.2,-605.4 363.32,-605.4 363.32,-569.8 46.2,-569.8"/>
<polygon fill="none" stroke="black" points="46.2,-569.8 46.2,-605.4 363.32,-605.4 363.32,-569.8 46.2,-569.8"/>
<text text-anchor="start" x="53.2" y="-583.2" font-family="Arial Bold" font-size="18.00">dbt_stg.metrics_anomaly_score</text>
<text text-anchor="start" x="281.65" y="-583.2" font-family="Arial" font-size="14.00">    </text>
<text text-anchor="start" x="312.76" y="-583.2" font-family="Arial" font-size="14.00" fill="#666666">[VIEW]</text>
<polygon fill="none" stroke="black" points="46.2,-539 46.2,-569.8 363.32,-569.8 363.32,-539 46.2,-539"/>
<text text-anchor="start" x="53.2" y="-551.2" font-family="Arial" font-size="14.00">id </text>
<text text-anchor="start" x="67.99" y="-551.2" font-family="Arial" font-size="14.00" fill="#666666">[varchar(4096)]</text>
<polygon fill="none" stroke="black" points="46.2,-508.2 46.2,-539 363.32,-539 363.32,-508.2 46.2,-508.2"/>
<text text-anchor="start" x="53.2" y="-520.4" font-family="Arial" font-size="14.00">full_table_name </text>
<text text-anchor="start" x="155.94" y="-520.4" font-family="Arial" font-size="14.00" fill="#666666">[varchar(4096)]</text>
<polygon fill="none" stroke="black" points="46.2,-477.4 46.2,-508.2 363.32,-508.2 363.32,-477.4 46.2,-477.4"/>
<text text-anchor="start" x="53.2" y="-489.6" font-family="Arial" font-size="14.00">column_name </text>
<text text-anchor="start" x="145.03" y="-489.6" font-family="Arial" font-size="14.00" fill="#666666">[varchar(4096)]</text>
<polygon fill="none" stroke="black" points="46.2,-446.6 46.2,-477.4 363.32,-477.4 363.32,-446.6 46.2,-446.6"/>
<text text-anchor="start" x="53.2" y="-458.8" font-family="Arial" font-size="14.00">dimension </text>
<text text-anchor="start" x="120.9" y="-458.8" font-family="Arial" font-size="14.00" fill="#666666">[varchar(4096)]</text>
<polygon fill="none" stroke="black" points="46.2,-415.8 46.2,-446.6 363.32,-446.6 363.32,-415.8 46.2,-415.8"/>
<text text-anchor="start" x="53.2" y="-428" font-family="Arial" font-size="14.00">dimension_value </text>
<text text-anchor="start" x="162.16" y="-428" font-family="Arial" font-size="14.00" fill="#666666">[varchar(4096)]</text>
<polygon fill="none" stroke="black" points="46.2,-385 46.2,-415.8 363.32,-415.8 363.32,-385 46.2,-385"/>
<text text-anchor="start" x="53.2" y="-397.2" font-family="Arial" font-size="14.00">metric_name </text>
<text text-anchor="start" x="138.01" y="-397.2" font-family="Arial" font-size="14.00" fill="#666666">[varchar(4096)]</text>
<polygon fill="none" stroke="black" points="46.2,-354.2 46.2,-385 363.32,-385 363.32,-354.2 46.2,-354.2"/>
<text text-anchor="start" x="53.2" y="-366.4" font-family="Arial" font-size="14.00">anomaly_score </text>
<text text-anchor="start" x="152.03" y="-366.4" font-family="Arial" font-size="14.00" fill="#666666">[double precision]</text>
<polygon fill="none" stroke="black" points="46.2,-323.4 46.2,-354.2 363.32,-354.2 363.32,-323.4 46.2,-323.4"/>
<text text-anchor="start" x="53.2" y="-335.6" font-family="Arial" font-size="14.00">latest_metric_value </text>
<text text-anchor="start" x="177.7" y="-335.6" font-family="Arial" font-size="14.00" fill="#666666">[double precision]</text>
<polygon fill="none" stroke="black" points="46.2,-292.6 46.2,-323.4 363.32,-323.4 363.32,-292.6 46.2,-292.6"/>
<text text-anchor="start" x="53.2" y="-304.8" font-family="Arial" font-size="14.00">bucket_start </text>
<text text-anchor="start" x="133.35" y="-304.8" font-family="Arial" font-size="14.00" fill="#666666">[timestamp without time zone]</text>
<polygon fill="none" stroke="black" points="46.2,-261.8 46.2,-292.6 363.32,-292.6 363.32,-261.8 46.2,-261.8"/>
<text text-anchor="start" x="53.2" y="-274" font-family="Arial" font-size="14.00">bucket_end </text>
<text text-anchor="start" x="129.48" y="-274" font-family="Arial" font-size="14.00" fill="#666666">[timestamp without time zone]</text>
<polygon fill="none" stroke="black" points="46.2,-231 46.2,-261.8 363.32,-261.8 363.32,-231 46.2,-231"/>
<text text-anchor="start" x="53.2" y="-243.2" font-family="Arial" font-size="14.00">training_avg </text>
<text text-anchor="start" x="133.37" y="-243.2" font-family="Arial" font-size="14.00" fill="#666666">[double precision]</text>
<polygon fill="none" stroke="black" points="46.2,-200.2 46.2,-231 363.32,-231 363.32,-200.2 46.2,-200.2"/>
<text text-anchor="start" x="53.2" y="-212.4" font-family="Arial" font-size="14.00">training_stddev </text>
<text text-anchor="start" x="152.04" y="-212.4" font-family="Arial" font-size="14.00" fill="#666666">[double precision]</text>
<polygon fill="none" stroke="black" points="46.2,-169.4 46.2,-200.2 363.32,-200.2 363.32,-169.4 46.2,-169.4"/>
<text text-anchor="start" x="53.2" y="-181.6" font-family="Arial" font-size="14.00">training_start </text>
<text text-anchor="start" x="138.02" y="-181.6" font-family="Arial" font-size="14.00" fill="#666666">[timestamp without time zone]</text>
<polygon fill="none" stroke="black" points="46.2,-138.6 46.2,-169.4 363.32,-169.4 363.32,-138.6 46.2,-138.6"/>
<text text-anchor="start" x="53.2" y="-150.8" font-family="Arial" font-size="14.00">training_end </text>
<text text-anchor="start" x="134.15" y="-150.8" font-family="Arial" font-size="14.00" fill="#666666">[timestamp without time zone]</text>
<polygon fill="none" stroke="black" points="46.2,-107.8 46.2,-138.6 363.32,-138.6 363.32,-107.8 46.2,-107.8"/>
<text text-anchor="start" x="53.2" y="-120" font-family="Arial" font-size="14.00">training_set_size </text>
<text text-anchor="start" x="162.15" y="-120" font-family="Arial" font-size="14.00" fill="#666666">[bigint]</text>
<polygon fill="none" stroke="black" points="46.2,-77 46.2,-107.8 363.32,-107.8 363.32,-77 46.2,-77"/>
<text text-anchor="start" x="53.2" y="-89.2" font-family="Arial" font-size="14.00">updated_at </text>
<text text-anchor="start" x="127.16" y="-89.2" font-family="Arial" font-size="14.00" fill="#666666">[timestamp without time zone]</text>
<polygon fill="none" stroke="black" points="46.2,-46.2 46.2,-77 363.32,-77 363.32,-46.2 46.2,-46.2"/>
<text text-anchor="start" x="53.2" y="-58.4" font-family="Arial" font-size="14.00">is_anomaly </text>
<text text-anchor="start" x="127.9" y="-58.4" font-family="Arial" font-size="14.00" fill="#666666">[boolean]</text>
<polygon fill="none" stroke="black" stroke-width="3" points="44.7,-44.7 44.7,-606.9 364.82,-606.9 364.82,-44.7 44.7,-44.7"/>
</g>
</g>
</svg>
