<?xml version="1.0" encoding="UTF-8" standalone="no"?>
<!DOCTYPE svg PUBLIC "-//W3C//DTD SVG 1.1//EN"
 "http://www.w3.org/Graphics/SVG/1.1/DTD/svg11.dtd">
<!-- Generated by graphviz version 12.1.2 (20240928.0832)
 -->
<!-- Title: dbt_stg.anomaly_threshold_sensitivity Pages: 1 -->
<svg width="468pt" height="567pt"
 viewBox="0.00 0.00 467.56 567.20" xmlns="http://www.w3.org/2000/svg" xmlns:xlink="http://www.w3.org/1999/xlink">
<g id="graph0" class="graph" transform="scale(1 1) rotate(0) translate(4 563.2)">
<title>dbt_stg.anomaly_threshold_sensitivity</title>
<polygon fill="white" stroke="none" points="-4,4 -4,-563.2 463.56,-563.2 463.56,4 -4,4"/>
<!-- dbt_stg.anomaly_threshold_sensitivity -->
<g id="node1" class="node">
<title>dbt_stg.anomaly_threshold_sensitivity</title>
<polygon fill="#efefef" stroke="none" points="46.2,-477.4 46.2,-513 413.36,-513 413.36,-477.4 46.2,-477.4"/>
<polygon fill="none" stroke="black" points="46.2,-477.4 46.2,-513 413.36,-513 413.36,-477.4 46.2,-477.4"/>
<text text-anchor="start" x="53.2" y="-490.8" font-family="Arial Bold" font-size="18.00">dbt_stg.anomaly_threshold_sensitivity</text>
<text text-anchor="start" x="331.68" y="-490.8" font-family="Arial" font-size="14.00">    </text>
<text text-anchor="start" x="362.8" y="-490.8" font-family="Arial" font-size="14.00" fill="#666666">[VIEW]</text>
<polygon fill="none" stroke="black" points="46.2,-446.6 46.2,-477.4 413.36,-477.4 413.36,-446.6 46.2,-446.6"/>
<text text-anchor="start" x="53.2" y="-458.8" font-family="Arial" font-size="14.00">full_table_name </text>
<text text-anchor="start" x="155.94" y="-458.8" font-family="Arial" font-size="14.00" fill="#666666">[varchar(4096)]</text>
<polygon fill="none" stroke="black" points="46.2,-415.8 46.2,-446.6 413.36,-446.6 413.36,-415.8 46.2,-415.8"/>
<text text-anchor="start" x="53.2" y="-428" font-family="Arial" font-size="14.00">column_name </text>
<text text-anchor="start" x="145.03" y="-428" font-family="Arial" font-size="14.00" fill="#666666">[varchar(4096)]</text>
<polygon fill="none" stroke="black" points="46.2,-385 46.2,-415.8 413.36,-415.8 413.36,-385 46.2,-385"/>
<text text-anchor="start" x="53.2" y="-397.2" font-family="Arial" font-size="14.00">metric_name </text>
<text text-anchor="start" x="138.01" y="-397.2" font-family="Arial" font-size="14.00" fill="#666666">[varchar(4096)]</text>
<polygon fill="none" stroke="black" points="46.2,-354.2 46.2,-385 413.36,-385 413.36,-354.2 46.2,-354.2"/>
<text text-anchor="start" x="53.2" y="-366.4" font-family="Arial" font-size="14.00">latest_metric_value </text>
<text text-anchor="start" x="177.7" y="-366.4" font-family="Arial" font-size="14.00" fill="#666666">[double precision]</text>
<polygon fill="none" stroke="black" points="46.2,-323.4 46.2,-354.2 413.36,-354.2 413.36,-323.4 46.2,-323.4"/>
<text text-anchor="start" x="53.2" y="-335.6" font-family="Arial" font-size="14.00">metric_avg </text>
<text text-anchor="start" x="125.56" y="-335.6" font-family="Arial" font-size="14.00" fill="#666666">[double precision]</text>
<polygon fill="none" stroke="black" points="46.2,-292.6 46.2,-323.4 413.36,-323.4 413.36,-292.6 46.2,-292.6"/>
<text text-anchor="start" x="53.2" y="-304.8" font-family="Arial" font-size="14.00">metric_stddev </text>
<text text-anchor="start" x="144.23" y="-304.8" font-family="Arial" font-size="14.00" fill="#666666">[double precision]</text>
<polygon fill="none" stroke="black" points="46.2,-261.8 46.2,-292.6 413.36,-292.6 413.36,-261.8 46.2,-261.8"/>
<text text-anchor="start" x="53.2" y="-274" font-family="Arial" font-size="14.00">anomaly_score </text>
<text text-anchor="start" x="152.03" y="-274" font-family="Arial" font-size="14.00" fill="#666666">[double precision]</text>
<polygon fill="none" stroke="black" points="46.2,-231 46.2,-261.8 413.36,-261.8 413.36,-231 46.2,-231"/>
<text text-anchor="start" x="53.2" y="-243.2" font-family="Arial" font-size="14.00">is_anomaly_1_5 </text>
<text text-anchor="start" x="159.05" y="-243.2" font-family="Arial" font-size="14.00" fill="#666666">[boolean]</text>
<polygon fill="none" stroke="black" points="46.2,-200.2 46.2,-231 413.36,-231 413.36,-200.2 46.2,-200.2"/>
<text text-anchor="start" x="53.2" y="-212.4" font-family="Arial" font-size="14.00">is_anomaly_2 </text>
<text text-anchor="start" x="143.48" y="-212.4" font-family="Arial" font-size="14.00" fill="#666666">[boolean]</text>
<polygon fill="none" stroke="black" points="46.2,-169.4 46.2,-200.2 413.36,-200.2 413.36,-169.4 46.2,-169.4"/>
<text text-anchor="start" x="53.2" y="-181.6" font-family="Arial" font-size="14.00">is_anomaly_2_5 </text>
<text text-anchor="start" x="159.05" y="-181.6" font-family="Arial" font-size="14.00" fill="#666666">[boolean]</text>
<polygon fill="none" stroke="black" points="46.2,-138.6 46.2,-169.4 413.36,-169.4 413.36,-138.6 46.2,-138.6"/>
<text text-anchor="start" x="53.2" y="-150.8" font-family="Arial" font-size="14.00">is_anomaly_3 </text>
<text text-anchor="start" x="143.48" y="-150.8" font-family="Arial" font-size="14.00" fill="#666666">[boolean]</text>
<polygon fill="none" stroke="black" points="46.2,-107.8 46.2,-138.6 413.36,-138.6 413.36,-107.8 46.2,-107.8"/>
<text text-anchor="start" x="53.2" y="-120" font-family="Arial" font-size="14.00">is_anomaly_3_5 </text>
<text text-anchor="start" x="159.05" y="-120" font-family="Arial" font-size="14.00" fill="#666666">[boolean]</text>
<polygon fill="none" stroke="black" points="46.2,-77 46.2,-107.8 413.36,-107.8 413.36,-77 46.2,-77"/>
<text text-anchor="start" x="53.2" y="-89.2" font-family="Arial" font-size="14.00">is_anomaly_4 </text>
<text text-anchor="start" x="143.48" y="-89.2" font-family="Arial" font-size="14.00" fill="#666666">[boolean]</text>
<polygon fill="none" stroke="black" points="46.2,-46.2 46.2,-77 413.36,-77 413.36,-46.2 46.2,-46.2"/>
<text text-anchor="start" x="53.2" y="-58.4" font-family="Arial" font-size="14.00">is_anomaly_4_5 </text>
<text text-anchor="start" x="159.05" y="-58.4" font-family="Arial" font-size="14.00" fill="#666666">[boolean]</text>
<polygon fill="none" stroke="black" stroke-width="3" points="44.7,-44.7 44.7,-514.5 414.86,-514.5 414.86,-44.7 44.7,-44.7"/>
</g>
</g>
</svg>
