<?xml version="1.0" encoding="UTF-8" standalone="no"?>
<!DOCTYPE svg PUBLIC "-//W3C//DTD SVG 1.1//EN"
 "http://www.w3.org/Graphics/SVG/1.1/DTD/svg11.dtd">
<!-- Generated by graphviz version 12.1.2 (20240928.0832)
 -->
<!-- Title: dbt_stg.dbt_run_results Pages: 1 -->
<svg width="408pt" height="814pt"
 viewBox="0.00 0.00 408.39 813.60" xmlns="http://www.w3.org/2000/svg" xmlns:xlink="http://www.w3.org/1999/xlink">
<g id="graph0" class="graph" transform="scale(1 1) rotate(0) translate(4 809.6)">
<title>dbt_stg.dbt_run_results</title>
<polygon fill="white" stroke="none" points="-4,4 -4,-809.6 404.39,-809.6 404.39,4 -4,4"/>
<!-- dbt_stg.dbt_run_results -->
<g id="node1" class="node">
<title>dbt_stg.dbt_run_results</title>
<polygon fill="#efefef" stroke="none" points="46.2,-723.8 46.2,-759.4 354.19,-759.4 354.19,-723.8 46.2,-723.8"/>
<polygon fill="none" stroke="black" points="46.2,-723.8 46.2,-759.4 354.19,-759.4 354.19,-723.8 46.2,-723.8"/>
<text text-anchor="start" x="53.2" y="-737.2" font-family="Arial Bold" font-size="18.00">dbt_stg.dbt_run_results</text>
<text text-anchor="start" x="222.7" y="-737.2" font-family="Arial" font-size="14.00">    </text>
<text text-anchor="start" x="253.81" y="-737.2" font-family="Arial" font-size="14.00" fill="#666666">[BASE TABLE]</text>
<polygon fill="none" stroke="black" points="46.2,-693 46.2,-723.8 354.19,-723.8 354.19,-693 46.2,-693"/>
<text text-anchor="start" x="53.2" y="-705.2" font-family="Arial" font-size="14.00">model_execution_id </text>
<text text-anchor="start" x="181.62" y="-705.2" font-family="Arial" font-size="14.00" fill="#666666">[text]</text>
<polygon fill="none" stroke="black" points="46.2,-662.2 46.2,-693 354.19,-693 354.19,-662.2 46.2,-662.2"/>
<text text-anchor="start" x="53.2" y="-674.4" font-family="Arial" font-size="14.00">unique_id </text>
<text text-anchor="start" x="117.81" y="-674.4" font-family="Arial" font-size="14.00" fill="#666666">[text]</text>
<polygon fill="none" stroke="black" points="46.2,-631.4 46.2,-662.2 354.19,-662.2 354.19,-631.4 46.2,-631.4"/>
<text text-anchor="start" x="53.2" y="-643.6" font-family="Arial" font-size="14.00">invocation_id </text>
<text text-anchor="start" x="138.81" y="-643.6" font-family="Arial" font-size="14.00" fill="#666666">[varchar(4096)]</text>
<polygon fill="none" stroke="black" points="46.2,-600.6 46.2,-631.4 354.19,-631.4 354.19,-600.6 46.2,-600.6"/>
<text text-anchor="start" x="53.2" y="-612.8" font-family="Arial" font-size="14.00">generated_at </text>
<text text-anchor="start" x="139.61" y="-612.8" font-family="Arial" font-size="14.00" fill="#666666">[varchar(4096)]</text>
<polygon fill="none" stroke="black" points="46.2,-569.8 46.2,-600.6 354.19,-600.6 354.19,-569.8 46.2,-569.8"/>
<text text-anchor="start" x="53.2" y="-582" font-family="Arial" font-size="14.00">created_at </text>
<text text-anchor="start" x="123.25" y="-582" font-family="Arial" font-size="14.00" fill="#666666">[timestamp without time zone]</text>
<polygon fill="none" stroke="black" points="46.2,-539 46.2,-569.8 354.19,-569.8 354.19,-539 46.2,-539"/>
<text text-anchor="start" x="53.2" y="-551.2" font-family="Arial" font-size="14.00">name </text>
<text text-anchor="start" x="92.11" y="-551.2" font-family="Arial" font-size="14.00" fill="#666666">[text]</text>
<polygon fill="none" stroke="black" points="46.2,-508.2 46.2,-539 354.19,-539 354.19,-508.2 46.2,-508.2"/>
<text text-anchor="start" x="53.2" y="-520.4" font-family="Arial" font-size="14.00">message </text>
<text text-anchor="start" x="113.9" y="-520.4" font-family="Arial" font-size="14.00" fill="#666666">[text]</text>
<polygon fill="none" stroke="black" points="46.2,-477.4 46.2,-508.2 354.19,-508.2 354.19,-477.4 46.2,-477.4"/>
<text text-anchor="start" x="53.2" y="-489.6" font-family="Arial" font-size="14.00">status </text>
<text text-anchor="start" x="94.44" y="-489.6" font-family="Arial" font-size="14.00" fill="#666666">[varchar(4096)]</text>
<polygon fill="none" stroke="black" points="46.2,-446.6 46.2,-477.4 354.19,-477.4 354.19,-446.6 46.2,-446.6"/>
<text text-anchor="start" x="53.2" y="-458.8" font-family="Arial" font-size="14.00">resource_type </text>
<text text-anchor="start" x="145.81" y="-458.8" font-family="Arial" font-size="14.00" fill="#666666">[varchar(4096)]</text>
<polygon fill="none" stroke="black" points="46.2,-415.8 46.2,-446.6 354.19,-446.6 354.19,-415.8 46.2,-415.8"/>
<text text-anchor="start" x="53.2" y="-428" font-family="Arial" font-size="14.00">execution_time </text>
<text text-anchor="start" x="151.25" y="-428" font-family="Arial" font-size="14.00" fill="#666666">[double precision]</text>
<polygon fill="none" stroke="black" points="46.2,-385 46.2,-415.8 354.19,-415.8 354.19,-385 46.2,-385"/>
<text text-anchor="start" x="53.2" y="-397.2" font-family="Arial" font-size="14.00">execute_started_at </text>
<text text-anchor="start" x="176.17" y="-397.2" font-family="Arial" font-size="14.00" fill="#666666">[varchar(4096)]</text>
<polygon fill="none" stroke="black" points="46.2,-354.2 46.2,-385 354.19,-385 354.19,-354.2 46.2,-354.2"/>
<text text-anchor="start" x="53.2" y="-366.4" font-family="Arial" font-size="14.00">execute_completed_at </text>
<text text-anchor="start" x="197.96" y="-366.4" font-family="Arial" font-size="14.00" fill="#666666">[varchar(4096)]</text>
<polygon fill="none" stroke="black" points="46.2,-323.4 46.2,-354.2 354.19,-354.2 354.19,-323.4 46.2,-323.4"/>
<text text-anchor="start" x="53.2" y="-335.6" font-family="Arial" font-size="14.00">compile_started_at </text>
<text text-anchor="start" x="175.38" y="-335.6" font-family="Arial" font-size="14.00" fill="#666666">[varchar(4096)]</text>
<polygon fill="none" stroke="black" points="46.2,-292.6 46.2,-323.4 354.19,-323.4 354.19,-292.6 46.2,-292.6"/>
<text text-anchor="start" x="53.2" y="-304.8" font-family="Arial" font-size="14.00">compile_completed_at </text>
<text text-anchor="start" x="197.17" y="-304.8" font-family="Arial" font-size="14.00" fill="#666666">[varchar(4096)]</text>
<polygon fill="none" stroke="black" points="46.2,-261.8 46.2,-292.6 354.19,-292.6 354.19,-261.8 46.2,-261.8"/>
<text text-anchor="start" x="53.2" y="-274" font-family="Arial" font-size="14.00">rows_affected </text>
<text text-anchor="start" x="144.25" y="-274" font-family="Arial" font-size="14.00" fill="#666666">[bigint]</text>
<polygon fill="none" stroke="black" points="46.2,-231 46.2,-261.8 354.19,-261.8 354.19,-231 46.2,-231"/>
<text text-anchor="start" x="53.2" y="-243.2" font-family="Arial" font-size="14.00">full_refresh </text>
<text text-anchor="start" x="126.34" y="-243.2" font-family="Arial" font-size="14.00" fill="#666666">[boolean]</text>
<polygon fill="none" stroke="black" points="46.2,-200.2 46.2,-231 354.19,-231 354.19,-200.2 46.2,-200.2"/>
<text text-anchor="start" x="53.2" y="-212.4" font-family="Arial" font-size="14.00">compiled_code </text>
<text text-anchor="start" x="151.26" y="-212.4" font-family="Arial" font-size="14.00" fill="#666666">[text]</text>
<polygon fill="none" stroke="black" points="46.2,-169.4 46.2,-200.2 354.19,-200.2 354.19,-169.4 46.2,-169.4"/>
<text text-anchor="start" x="53.2" y="-181.6" font-family="Arial" font-size="14.00">failures </text>
<text text-anchor="start" x="102.22" y="-181.6" font-family="Arial" font-size="14.00" fill="#666666">[bigint]</text>
<polygon fill="none" stroke="black" points="46.2,-138.6 46.2,-169.4 354.19,-169.4 354.19,-138.6 46.2,-138.6"/>
<text text-anchor="start" x="53.2" y="-150.8" font-family="Arial" font-size="14.00">query_id </text>
<text text-anchor="start" x="110.79" y="-150.8" font-family="Arial" font-size="14.00" fill="#666666">[varchar(4096)]</text>
<polygon fill="none" stroke="black" points="46.2,-107.8 46.2,-138.6 354.19,-138.6 354.19,-107.8 46.2,-107.8"/>
<text text-anchor="start" x="53.2" y="-120" font-family="Arial" font-size="14.00">thread_id </text>
<text text-anchor="start" x="115.47" y="-120" font-family="Arial" font-size="14.00" fill="#666666">[varchar(4096)]</text>
<polygon fill="none" stroke="black" points="46.2,-77 46.2,-107.8 354.19,-107.8 354.19,-77 46.2,-77"/>
<text text-anchor="start" x="53.2" y="-89.2" font-family="Arial" font-size="14.00">materialization </text>
<text text-anchor="start" x="147.35" y="-89.2" font-family="Arial" font-size="14.00" fill="#666666">[varchar(4096)]</text>
<polygon fill="none" stroke="black" points="46.2,-46.2 46.2,-77 354.19,-77 354.19,-46.2 46.2,-46.2"/>
<text text-anchor="start" x="53.2" y="-58.4" font-family="Arial" font-size="14.00">adapter_response </text>
<text text-anchor="start" x="169.95" y="-58.4" font-family="Arial" font-size="14.00" fill="#666666">[varchar(4096)]</text>
<polygon fill="none" stroke="black" stroke-width="3" points="44.7,-44.7 44.7,-760.9 355.69,-760.9 355.69,-44.7 44.7,-44.7"/>
</g>
</g>
</svg>
