<?xml version="1.0" encoding="UTF-8" standalone="no"?>
<!DOCTYPE svg PUBLIC "-//W3C//DTD SVG 1.1//EN"
 "http://www.w3.org/Graphics/SVG/1.1/DTD/svg11.dtd">
<!-- Generated by graphviz version 12.1.2 (20240928.0832)
 -->
<!-- Title: dbt_stg.alerts_dbt_source_freshness Pages: 1 -->
<svg width="450pt" height="844pt"
 viewBox="0.00 0.00 449.52 844.40" xmlns="http://www.w3.org/2000/svg" xmlns:xlink="http://www.w3.org/1999/xlink">
<g id="graph0" class="graph" transform="scale(1 1) rotate(0) translate(4 840.4)">
<title>dbt_stg.alerts_dbt_source_freshness</title>
<polygon fill="white" stroke="none" points="-4,4 -4,-840.4 445.52,-840.4 445.52,4 -4,4"/>
<!-- dbt_stg.alerts_dbt_source_freshness -->
<g id="node1" class="node">
<title>dbt_stg.alerts_dbt_source_freshness</title>
<polygon fill="#efefef" stroke="none" points="46.2,-754.6 46.2,-790.2 395.32,-790.2 395.32,-754.6 46.2,-754.6"/>
<polygon fill="none" stroke="black" points="46.2,-754.6 46.2,-790.2 395.32,-790.2 395.32,-754.6 46.2,-754.6"/>
<text text-anchor="start" x="53.2" y="-768" font-family="Arial Bold" font-size="18.00">dbt_stg.alerts_dbt_source_freshness</text>
<text text-anchor="start" x="313.65" y="-768" font-family="Arial" font-size="14.00">    </text>
<text text-anchor="start" x="344.76" y="-768" font-family="Arial" font-size="14.00" fill="#666666">[VIEW]</text>
<polygon fill="none" stroke="black" points="46.2,-723.8 46.2,-754.6 395.32,-754.6 395.32,-723.8 46.2,-723.8"/>
<text text-anchor="start" x="53.2" y="-736" font-family="Arial" font-size="14.00">alert_id </text>
<text text-anchor="start" x="103.01" y="-736" font-family="Arial" font-size="14.00" fill="#666666">[varchar(4096)]</text>
<polygon fill="none" stroke="black" points="46.2,-693 46.2,-723.8 395.32,-723.8 395.32,-693 46.2,-693"/>
<text text-anchor="start" x="53.2" y="-705.2" font-family="Arial" font-size="14.00">max_loaded_at </text>
<text text-anchor="start" x="152.83" y="-705.2" font-family="Arial" font-size="14.00" fill="#666666">[varchar(4096)]</text>
<polygon fill="none" stroke="black" points="46.2,-662.2 46.2,-693 395.32,-693 395.32,-662.2 46.2,-662.2"/>
<text text-anchor="start" x="53.2" y="-674.4" font-family="Arial" font-size="14.00">snapshotted_at </text>
<text text-anchor="start" x="152.83" y="-674.4" font-family="Arial" font-size="14.00" fill="#666666">[varchar(4096)]</text>
<polygon fill="none" stroke="black" points="46.2,-631.4 46.2,-662.2 395.32,-662.2 395.32,-631.4 46.2,-631.4"/>
<text text-anchor="start" x="53.2" y="-643.6" font-family="Arial" font-size="14.00">detected_at </text>
<text text-anchor="start" x="130.26" y="-643.6" font-family="Arial" font-size="14.00" fill="#666666">[timestamp without time zone]</text>
<polygon fill="none" stroke="black" points="46.2,-600.6 46.2,-631.4 395.32,-631.4 395.32,-600.6 46.2,-600.6"/>
<text text-anchor="start" x="53.2" y="-612.8" font-family="Arial" font-size="14.00">max_loaded_at_time_ago_in_s </text>
<text text-anchor="start" x="251.67" y="-612.8" font-family="Arial" font-size="14.00" fill="#666666">[double precision]</text>
<polygon fill="none" stroke="black" points="46.2,-569.8 46.2,-600.6 395.32,-600.6 395.32,-569.8 46.2,-569.8"/>
<text text-anchor="start" x="53.2" y="-582" font-family="Arial" font-size="14.00">status </text>
<text text-anchor="start" x="94.44" y="-582" font-family="Arial" font-size="14.00" fill="#666666">[varchar(4096)]</text>
<polygon fill="none" stroke="black" points="46.2,-539 46.2,-569.8 395.32,-569.8 395.32,-539 46.2,-539"/>
<text text-anchor="start" x="53.2" y="-551.2" font-family="Arial" font-size="14.00">error </text>
<text text-anchor="start" x="86.65" y="-551.2" font-family="Arial" font-size="14.00" fill="#666666">[varchar(4096)]</text>
<polygon fill="none" stroke="black" points="46.2,-508.2 46.2,-539 395.32,-539 395.32,-508.2 46.2,-508.2"/>
<text text-anchor="start" x="53.2" y="-520.4" font-family="Arial" font-size="14.00">warn_after </text>
<text text-anchor="start" x="123.23" y="-520.4" font-family="Arial" font-size="14.00" fill="#666666">[varchar(4096)]</text>
<polygon fill="none" stroke="black" points="46.2,-477.4 46.2,-508.2 395.32,-508.2 395.32,-477.4 46.2,-477.4"/>
<text text-anchor="start" x="53.2" y="-489.6" font-family="Arial" font-size="14.00">error_after </text>
<text text-anchor="start" x="122.45" y="-489.6" font-family="Arial" font-size="14.00" fill="#666666">[varchar(4096)]</text>
<polygon fill="none" stroke="black" points="46.2,-446.6 46.2,-477.4 395.32,-477.4 395.32,-446.6 46.2,-446.6"/>
<text text-anchor="start" x="53.2" y="-458.8" font-family="Arial" font-size="14.00">filter </text>
<text text-anchor="start" x="83.54" y="-458.8" font-family="Arial" font-size="14.00" fill="#666666">[text]</text>
<polygon fill="none" stroke="black" points="46.2,-415.8 46.2,-446.6 395.32,-446.6 395.32,-415.8 46.2,-415.8"/>
<text text-anchor="start" x="53.2" y="-428" font-family="Arial" font-size="14.00">unique_id </text>
<text text-anchor="start" x="117.81" y="-428" font-family="Arial" font-size="14.00" fill="#666666">[varchar(4096)]</text>
<polygon fill="none" stroke="black" points="46.2,-385 46.2,-415.8 395.32,-415.8 395.32,-385 46.2,-385"/>
<text text-anchor="start" x="53.2" y="-397.2" font-family="Arial" font-size="14.00">database_name </text>
<text text-anchor="start" x="157.5" y="-397.2" font-family="Arial" font-size="14.00" fill="#666666">[varchar(4096)]</text>
<polygon fill="none" stroke="black" points="46.2,-354.2 46.2,-385 395.32,-385 395.32,-354.2 46.2,-354.2"/>
<text text-anchor="start" x="53.2" y="-366.4" font-family="Arial" font-size="14.00">schema_name </text>
<text text-anchor="start" x="148.92" y="-366.4" font-family="Arial" font-size="14.00" fill="#666666">[varchar(4096)]</text>
<polygon fill="none" stroke="black" points="46.2,-323.4 46.2,-354.2 395.32,-354.2 395.32,-323.4 46.2,-323.4"/>
<text text-anchor="start" x="53.2" y="-335.6" font-family="Arial" font-size="14.00">source_name </text>
<text text-anchor="start" x="141.92" y="-335.6" font-family="Arial" font-size="14.00" fill="#666666">[varchar(4096)]</text>
<polygon fill="none" stroke="black" points="46.2,-292.6 46.2,-323.4 395.32,-323.4 395.32,-292.6 46.2,-292.6"/>
<text text-anchor="start" x="53.2" y="-304.8" font-family="Arial" font-size="14.00">identifier </text>
<text text-anchor="start" x="110.01" y="-304.8" font-family="Arial" font-size="14.00" fill="#666666">[varchar(4096)]</text>
<polygon fill="none" stroke="black" points="46.2,-261.8 46.2,-292.6 395.32,-292.6 395.32,-261.8 46.2,-261.8"/>
<text text-anchor="start" x="53.2" y="-274" font-family="Arial" font-size="14.00">tags </text>
<text text-anchor="start" x="83.55" y="-274" font-family="Arial" font-size="14.00" fill="#666666">[text]</text>
<polygon fill="none" stroke="black" points="46.2,-231 46.2,-261.8 395.32,-261.8 395.32,-231 46.2,-231"/>
<text text-anchor="start" x="53.2" y="-243.2" font-family="Arial" font-size="14.00">meta </text>
<text text-anchor="start" x="88.21" y="-243.2" font-family="Arial" font-size="14.00" fill="#666666">[text]</text>
<polygon fill="none" stroke="black" points="46.2,-200.2 46.2,-231 395.32,-231 395.32,-200.2 46.2,-200.2"/>
<text text-anchor="start" x="53.2" y="-212.4" font-family="Arial" font-size="14.00">owner </text>
<text text-anchor="start" x="95.22" y="-212.4" font-family="Arial" font-size="14.00" fill="#666666">[varchar(4096)]</text>
<polygon fill="none" stroke="black" points="46.2,-169.4 46.2,-200.2 395.32,-200.2 395.32,-169.4 46.2,-169.4"/>
<text text-anchor="start" x="53.2" y="-181.6" font-family="Arial" font-size="14.00">package_name </text>
<text text-anchor="start" x="152.83" y="-181.6" font-family="Arial" font-size="14.00" fill="#666666">[varchar(4096)]</text>
<polygon fill="none" stroke="black" points="46.2,-138.6 46.2,-169.4 395.32,-169.4 395.32,-138.6 46.2,-138.6"/>
<text text-anchor="start" x="53.2" y="-150.8" font-family="Arial" font-size="14.00">path </text>
<text text-anchor="start" x="84.34" y="-150.8" font-family="Arial" font-size="14.00" fill="#666666">[varchar(4096)]</text>
<polygon fill="none" stroke="black" points="46.2,-107.8 46.2,-138.6 395.32,-138.6 395.32,-107.8 46.2,-107.8"/>
<text text-anchor="start" x="53.2" y="-120" font-family="Arial" font-size="14.00">freshness_error_after </text>
<text text-anchor="start" x="190.93" y="-120" font-family="Arial" font-size="14.00" fill="#666666">[varchar(4096)]</text>
<polygon fill="none" stroke="black" points="46.2,-77 46.2,-107.8 395.32,-107.8 395.32,-77 46.2,-77"/>
<text text-anchor="start" x="53.2" y="-89.2" font-family="Arial" font-size="14.00">freshness_warn_after </text>
<text text-anchor="start" x="191.72" y="-89.2" font-family="Arial" font-size="14.00" fill="#666666">[varchar(4096)]</text>
<polygon fill="none" stroke="black" points="46.2,-46.2 46.2,-77 395.32,-77 395.32,-46.2 46.2,-46.2"/>
<text text-anchor="start" x="53.2" y="-58.4" font-family="Arial" font-size="14.00">freshness_filter </text>
<text text-anchor="start" x="152.02" y="-58.4" font-family="Arial" font-size="14.00" fill="#666666">[text]</text>
<polygon fill="none" stroke="black" stroke-width="3" points="44.7,-44.7 44.7,-791.7 396.82,-791.7 396.82,-44.7 44.7,-44.7"/>
</g>
</g>
</svg>
