<?xml version="1.0" encoding="UTF-8" standalone="no"?>
<!DOCTYPE svg PUBLIC "-//W3C//DTD SVG 1.1//EN"
 "http://www.w3.org/Graphics/SVG/1.1/DTD/svg11.dtd">
<!-- Generated by graphviz version 12.1.2 (20240928.0832)
 -->
<!-- Title: dbt_stg.data_monitoring_metrics Pages: 1 -->
<svg width="477pt" height="598pt"
 viewBox="0.00 0.00 477.35 598.00" xmlns="http://www.w3.org/2000/svg" xmlns:xlink="http://www.w3.org/1999/xlink">
<g id="graph0" class="graph" transform="scale(1 1) rotate(0) translate(4 594)">
<title>dbt_stg.data_monitoring_metrics</title>
<polygon fill="white" stroke="none" points="-4,4 -4,-594 473.35,-594 473.35,4 -4,4"/>
<!-- dbt_stg.data_monitoring_metrics -->
<g id="node1" class="node">
<title>dbt_stg.data_monitoring_metrics</title>
<polygon fill="#efefef" stroke="none" points="46.2,-508.2 46.2,-543.8 423.15,-543.8 423.15,-508.2 46.2,-508.2"/>
<polygon fill="none" stroke="black" points="46.2,-508.2 46.2,-543.8 423.15,-543.8 423.15,-508.2 46.2,-508.2"/>
<text text-anchor="start" x="53.2" y="-521.6" font-family="Arial Bold" font-size="18.00">dbt_stg.data_monitoring_metrics</text>
<text text-anchor="start" x="291.66" y="-521.6" font-family="Arial" font-size="14.00">    </text>
<text text-anchor="start" x="322.78" y="-521.6" font-family="Arial" font-size="14.00" fill="#666666">[BASE TABLE]</text>
<polygon fill="none" stroke="black" points="46.2,-477.4 46.2,-508.2 423.15,-508.2 423.15,-477.4 46.2,-477.4"/>
<text text-anchor="start" x="53.2" y="-489.6" font-family="Arial" font-size="14.00">id </text>
<text text-anchor="start" x="67.99" y="-489.6" font-family="Arial" font-size="14.00" fill="#666666">[varchar(4096)]</text>
<polygon fill="none" stroke="black" points="46.2,-446.6 46.2,-477.4 423.15,-477.4 423.15,-446.6 46.2,-446.6"/>
<text text-anchor="start" x="53.2" y="-458.8" font-family="Arial" font-size="14.00">full_table_name </text>
<text text-anchor="start" x="155.94" y="-458.8" font-family="Arial" font-size="14.00" fill="#666666">[varchar(4096)]</text>
<polygon fill="none" stroke="black" points="46.2,-415.8 46.2,-446.6 423.15,-446.6 423.15,-415.8 46.2,-415.8"/>
<text text-anchor="start" x="53.2" y="-428" font-family="Arial" font-size="14.00">column_name </text>
<text text-anchor="start" x="145.03" y="-428" font-family="Arial" font-size="14.00" fill="#666666">[varchar(4096)]</text>
<polygon fill="none" stroke="black" points="46.2,-385 46.2,-415.8 423.15,-415.8 423.15,-385 46.2,-385"/>
<text text-anchor="start" x="53.2" y="-397.2" font-family="Arial" font-size="14.00">metric_name </text>
<text text-anchor="start" x="138.01" y="-397.2" font-family="Arial" font-size="14.00" fill="#666666">[varchar(4096)]</text>
<polygon fill="none" stroke="black" points="46.2,-354.2 46.2,-385 423.15,-385 423.15,-354.2 46.2,-354.2"/>
<text text-anchor="start" x="53.2" y="-366.4" font-family="Arial" font-size="14.00">metric_type </text>
<text text-anchor="start" x="129.45" y="-366.4" font-family="Arial" font-size="14.00" fill="#666666">[varchar(4096)]</text>
<polygon fill="none" stroke="black" points="46.2,-323.4 46.2,-354.2 423.15,-354.2 423.15,-323.4 46.2,-323.4"/>
<text text-anchor="start" x="53.2" y="-335.6" font-family="Arial" font-size="14.00">metric_value </text>
<text text-anchor="start" x="136.45" y="-335.6" font-family="Arial" font-size="14.00" fill="#666666">[double precision]</text>
<polygon fill="none" stroke="black" points="46.2,-292.6 46.2,-323.4 423.15,-323.4 423.15,-292.6 46.2,-292.6"/>
<text text-anchor="start" x="53.2" y="-304.8" font-family="Arial" font-size="14.00">source_value </text>
<text text-anchor="start" x="140.37" y="-304.8" font-family="Arial" font-size="14.00" fill="#666666">[varchar(4096)]</text>
<polygon fill="none" stroke="black" points="46.2,-261.8 46.2,-292.6 423.15,-292.6 423.15,-261.8 46.2,-261.8"/>
<text text-anchor="start" x="53.2" y="-274" font-family="Arial" font-size="14.00">bucket_start </text>
<text text-anchor="start" x="133.35" y="-274" font-family="Arial" font-size="14.00" fill="#666666">[timestamp without time zone]</text>
<polygon fill="none" stroke="black" points="46.2,-231 46.2,-261.8 423.15,-261.8 423.15,-231 46.2,-231"/>
<text text-anchor="start" x="53.2" y="-243.2" font-family="Arial" font-size="14.00">bucket_end </text>
<text text-anchor="start" x="129.48" y="-243.2" font-family="Arial" font-size="14.00" fill="#666666">[timestamp without time zone]</text>
<polygon fill="none" stroke="black" points="46.2,-200.2 46.2,-231 423.15,-231 423.15,-200.2 46.2,-200.2"/>
<text text-anchor="start" x="53.2" y="-212.4" font-family="Arial" font-size="14.00">bucket_duration_hours </text>
<text text-anchor="start" x="199.52" y="-212.4" font-family="Arial" font-size="14.00" fill="#666666">[integer]</text>
<polygon fill="none" stroke="black" points="46.2,-169.4 46.2,-200.2 423.15,-200.2 423.15,-169.4 46.2,-169.4"/>
<text text-anchor="start" x="53.2" y="-181.6" font-family="Arial" font-size="14.00">updated_at </text>
<text text-anchor="start" x="127.16" y="-181.6" font-family="Arial" font-size="14.00" fill="#666666">[timestamp without time zone]</text>
<polygon fill="none" stroke="black" points="46.2,-138.6 46.2,-169.4 423.15,-169.4 423.15,-138.6 46.2,-138.6"/>
<text text-anchor="start" x="53.2" y="-150.8" font-family="Arial" font-size="14.00">dimension </text>
<text text-anchor="start" x="120.9" y="-150.8" font-family="Arial" font-size="14.00" fill="#666666">[varchar(4096)]</text>
<polygon fill="none" stroke="black" points="46.2,-107.8 46.2,-138.6 423.15,-138.6 423.15,-107.8 46.2,-107.8"/>
<text text-anchor="start" x="53.2" y="-120" font-family="Arial" font-size="14.00">dimension_value </text>
<text text-anchor="start" x="162.16" y="-120" font-family="Arial" font-size="14.00" fill="#666666">[varchar(4096)]</text>
<polygon fill="none" stroke="black" points="46.2,-77 46.2,-107.8 423.15,-107.8 423.15,-77 46.2,-77"/>
<text text-anchor="start" x="53.2" y="-89.2" font-family="Arial" font-size="14.00">metric_properties </text>
<text text-anchor="start" x="165.24" y="-89.2" font-family="Arial" font-size="14.00" fill="#666666">[varchar(4096)]</text>
<polygon fill="none" stroke="black" points="46.2,-46.2 46.2,-77 423.15,-77 423.15,-46.2 46.2,-46.2"/>
<text text-anchor="start" x="53.2" y="-58.4" font-family="Arial" font-size="14.00">created_at </text>
<text text-anchor="start" x="123.25" y="-58.4" font-family="Arial" font-size="14.00" fill="#666666">[timestamp without time zone]</text>
<polygon fill="none" stroke="black" stroke-width="3" points="44.7,-44.7 44.7,-545.3 424.65,-545.3 424.65,-44.7 44.7,-44.7"/>
</g>
</g>
</svg>
