<?xml version="1.0" encoding="UTF-8" standalone="no"?>
<!DOCTYPE svg PUBLIC "-//W3C//DTD SVG 1.1//EN"
 "http://www.w3.org/Graphics/SVG/1.1/DTD/svg11.dtd">
<!-- Generated by graphviz version 12.1.2 (20240928.0832)
 -->
<!-- Title: dim.dim_customers Pages: 1 -->
<svg width="381pt" height="629pt"
 viewBox="0.00 0.00 381.38 628.80" xmlns="http://www.w3.org/2000/svg" xmlns:xlink="http://www.w3.org/1999/xlink">
<g id="graph0" class="graph" transform="scale(1 1) rotate(0) translate(4 624.8)">
<title>dim.dim_customers</title>
<polygon fill="white" stroke="none" points="-4,4 -4,-624.8 377.38,-624.8 377.38,4 -4,4"/>
<!-- dim.dim_customers -->
<g id="node1" class="node">
<title>dim.dim_customers</title>
<polygon fill="#efefef" stroke="none" points="46.2,-539 46.2,-574.6 327.18,-574.6 327.18,-539 46.2,-539"/>
<polygon fill="none" stroke="black" points="46.2,-539 46.2,-574.6 327.18,-574.6 327.18,-539 46.2,-539"/>
<text text-anchor="start" x="53.2" y="-552.4" font-family="Arial Bold" font-size="18.00">dim.dim_customers</text>
<text text-anchor="start" x="195.69" y="-552.4" font-family="Arial" font-size="14.00">    </text>
<text text-anchor="start" x="226.81" y="-552.4" font-family="Arial" font-size="14.00" fill="#666666">[BASE TABLE]</text>
<polygon fill="none" stroke="black" points="46.2,-508.2 46.2,-539 327.18,-539 327.18,-508.2 46.2,-508.2"/>
<text text-anchor="start" x="53.2" y="-520.4" font-family="Arial" font-size="14.00">audit_id </text>
<text text-anchor="start" x="106.13" y="-520.4" font-family="Arial" font-size="14.00" fill="#666666">[integer]</text>
<polygon fill="none" stroke="black" points="46.2,-477.4 46.2,-508.2 327.18,-508.2 327.18,-477.4 46.2,-477.4"/>
<text text-anchor="start" x="53.2" y="-489.6" font-family="Arial" font-size="14.00">customer_id </text>
<text text-anchor="start" x="133.34" y="-489.6" font-family="Arial" font-size="14.00" fill="#666666">[integer]</text>
<polygon fill="none" stroke="black" points="46.2,-446.6 46.2,-477.4 327.18,-477.4 327.18,-446.6 46.2,-446.6"/>
<text text-anchor="start" x="53.2" y="-458.8" font-family="Arial" font-size="14.00">customer_name </text>
<text text-anchor="start" x="157.47" y="-458.8" font-family="Arial" font-size="14.00" fill="#666666">[varchar(100)]</text>
<polygon fill="none" stroke="black" points="46.2,-415.8 46.2,-446.6 327.18,-446.6 327.18,-415.8 46.2,-415.8"/>
<text text-anchor="start" x="53.2" y="-428" font-family="Arial" font-size="14.00">customer_email </text>
<text text-anchor="start" x="155.9" y="-428" font-family="Arial" font-size="14.00" fill="#666666">[varchar(100)]</text>
<polygon fill="none" stroke="black" points="46.2,-385 46.2,-415.8 327.18,-415.8 327.18,-385 46.2,-385"/>
<text text-anchor="start" x="53.2" y="-397.2" font-family="Arial" font-size="14.00">address </text>
<text text-anchor="start" x="106.9" y="-397.2" font-family="Arial" font-size="14.00" fill="#666666">[varchar(100)]</text>
<polygon fill="none" stroke="black" points="46.2,-354.2 46.2,-385 327.18,-385 327.18,-354.2 46.2,-354.2"/>
<text text-anchor="start" x="53.2" y="-366.4" font-family="Arial" font-size="14.00">address_2 </text>
<text text-anchor="start" x="122.47" y="-366.4" font-family="Arial" font-size="14.00" fill="#666666">[varchar(100)]</text>
<polygon fill="none" stroke="black" points="46.2,-323.4 46.2,-354.2 327.18,-354.2 327.18,-323.4 46.2,-323.4"/>
<text text-anchor="start" x="53.2" y="-335.6" font-family="Arial" font-size="14.00">city </text>
<text text-anchor="start" x="78.09" y="-335.6" font-family="Arial" font-size="14.00" fill="#666666">[varchar(50)]</text>
<polygon fill="none" stroke="black" points="46.2,-292.6 46.2,-323.4 327.18,-323.4 327.18,-292.6 46.2,-292.6"/>
<text text-anchor="start" x="53.2" y="-304.8" font-family="Arial" font-size="14.00">zip_code </text>
<text text-anchor="start" x="113.13" y="-304.8" font-family="Arial" font-size="14.00" fill="#666666">[integer]</text>
<polygon fill="none" stroke="black" points="46.2,-261.8 46.2,-292.6 327.18,-292.6 327.18,-261.8 46.2,-261.8"/>
<text text-anchor="start" x="53.2" y="-274" font-family="Arial" font-size="14.00">state </text>
<text text-anchor="start" x="87.44" y="-274" font-family="Arial" font-size="14.00" fill="#666666">[varchar(3)]</text>
<polygon fill="none" stroke="black" points="46.2,-231 46.2,-261.8 327.18,-261.8 327.18,-231 46.2,-231"/>
<text text-anchor="start" x="53.2" y="-243.2" font-family="Arial" font-size="14.00">country </text>
<text text-anchor="start" x="103" y="-243.2" font-family="Arial" font-size="14.00" fill="#666666">[varchar(50)]</text>
<polygon fill="none" stroke="black" points="46.2,-200.2 46.2,-231 327.18,-231 327.18,-200.2 46.2,-200.2"/>
<text text-anchor="start" x="53.2" y="-212.4" font-family="Arial" font-size="14.00">valid_from </text>
<text text-anchor="start" x="121.67" y="-212.4" font-family="Arial" font-size="14.00" fill="#666666">[timestamp without time zone]</text>
<polygon fill="none" stroke="black" points="46.2,-169.4 46.2,-200.2 327.18,-200.2 327.18,-169.4 46.2,-169.4"/>
<text text-anchor="start" x="53.2" y="-181.6" font-family="Arial" font-size="14.00">valid_to </text>
<text text-anchor="start" x="105.34" y="-181.6" font-family="Arial" font-size="14.00" fill="#666666">[timestamp without time zone]</text>
<polygon fill="none" stroke="black" points="46.2,-138.6 46.2,-169.4 327.18,-169.4 327.18,-138.6 46.2,-138.6"/>
<text text-anchor="start" x="53.2" y="-150.8" font-family="Arial" font-size="14.00">is_deleted </text>
<text text-anchor="start" x="120.92" y="-150.8" font-family="Arial" font-size="14.00" fill="#666666">[integer]</text>
<polygon fill="none" stroke="black" points="46.2,-107.8 46.2,-138.6 327.18,-138.6 327.18,-107.8 46.2,-107.8"/>
<text text-anchor="start" x="53.2" y="-120" font-family="Arial" font-size="14.00">is_current_record </text>
<text text-anchor="start" x="166.03" y="-120" font-family="Arial" font-size="14.00" fill="#666666">[integer]</text>
<polygon fill="none" stroke="black" points="46.2,-77 46.2,-107.8 327.18,-107.8 327.18,-77 46.2,-77"/>
<text text-anchor="start" x="53.2" y="-89.2" font-family="Arial" font-size="14.00">is_latest_record </text>
<text text-anchor="start" x="155.92" y="-89.2" font-family="Arial" font-size="14.00" fill="#666666">[integer]</text>
<polygon fill="none" stroke="black" points="46.2,-46.2 46.2,-77 327.18,-77 327.18,-46.2 46.2,-46.2"/>
<text text-anchor="start" x="53.2" y="-58.4" font-family="Arial" font-size="14.00">dbt_updated_at </text>
<text text-anchor="start" x="154.41" y="-58.4" font-family="Arial" font-size="14.00" fill="#666666">[timestamp with time zone]</text>
<polygon fill="none" stroke="black" stroke-width="3" points="44.7,-44.7 44.7,-576.1 328.68,-576.1 328.68,-44.7 44.7,-44.7"/>
</g>
</g>
</svg>
