<?xml version="1.0" encoding="UTF-8" standalone="no"?>
<!DOCTYPE svg PUBLIC "-//W3C//DTD SVG 1.1//EN"
 "http://www.w3.org/Graphics/SVG/1.1/DTD/svg11.dtd">
<!-- Generated by graphviz version 12.1.2 (20240928.0832)
 -->
<!-- Title: dim.dim_products Pages: 1 -->
<svg width="376pt" height="290pt"
 viewBox="0.00 0.00 375.85 290.00" xmlns="http://www.w3.org/2000/svg" xmlns:xlink="http://www.w3.org/1999/xlink">
<g id="graph0" class="graph" transform="scale(1 1) rotate(0) translate(4 286)">
<title>dim.dim_products</title>
<polygon fill="white" stroke="none" points="-4,4 -4,-286 371.85,-286 371.85,4 -4,4"/>
<!-- dim.dim_products -->
<g id="node1" class="node">
<title>dim.dim_products</title>
<polygon fill="#efefef" stroke="none" points="46.2,-200.2 46.2,-235.8 321.65,-235.8 321.65,-200.2 46.2,-200.2"/>
<polygon fill="none" stroke="black" points="46.2,-200.2 46.2,-235.8 321.65,-235.8 321.65,-200.2 46.2,-200.2"/>
<text text-anchor="start" x="55.94" y="-213.6" font-family="Arial Bold" font-size="18.00">dim.dim_products</text>
<text text-anchor="start" x="187.43" y="-213.6" font-family="Arial" font-size="14.00">    </text>
<text text-anchor="start" x="218.55" y="-213.6" font-family="Arial" font-size="14.00" fill="#666666">[BASE TABLE]</text>
<polygon fill="none" stroke="black" points="46.2,-169.4 46.2,-200.2 321.65,-200.2 321.65,-169.4 46.2,-169.4"/>
<text text-anchor="start" x="53.2" y="-181.6" font-family="Arial" font-size="14.00">product_id </text>
<text text-anchor="start" x="122.47" y="-181.6" font-family="Arial" font-size="14.00" fill="#666666">[integer]</text>
<polygon fill="none" stroke="black" points="46.2,-138.6 46.2,-169.4 321.65,-169.4 321.65,-138.6 46.2,-138.6"/>
<text text-anchor="start" x="53.2" y="-150.8" font-family="Arial" font-size="14.00">product_name </text>
<text text-anchor="start" x="146.59" y="-150.8" font-family="Arial" font-size="14.00" fill="#666666">[varchar(100)]</text>
<polygon fill="none" stroke="black" points="46.2,-107.8 46.2,-138.6 321.65,-138.6 321.65,-107.8 46.2,-107.8"/>
<text text-anchor="start" x="53.2" y="-120" font-family="Arial" font-size="14.00">product_category_name </text>
<text text-anchor="start" x="208.07" y="-120" font-family="Arial" font-size="14.00" fill="#666666">[varchar(100)]</text>
<polygon fill="none" stroke="black" points="46.2,-77 46.2,-107.8 321.65,-107.8 321.65,-77 46.2,-77"/>
<text text-anchor="start" x="53.2" y="-89.2" font-family="Arial" font-size="14.00">created_at </text>
<text text-anchor="start" x="123.25" y="-89.2" font-family="Arial" font-size="14.00" fill="#666666">[timestamp without time zone]</text>
<polygon fill="none" stroke="black" points="46.2,-46.2 46.2,-77 321.65,-77 321.65,-46.2 46.2,-46.2"/>
<text text-anchor="start" x="53.2" y="-58.4" font-family="Arial" font-size="14.00">modified_at </text>
<text text-anchor="start" x="129.47" y="-58.4" font-family="Arial" font-size="14.00" fill="#666666">[timestamp without time zone]</text>
<polygon fill="none" stroke="black" stroke-width="3" points="44.7,-44.7 44.7,-237.3 323.15,-237.3 323.15,-44.7 44.7,-44.7"/>
</g>
</g>
</svg>
