<?xml version="1.0" encoding="UTF-8" standalone="no"?>
<!DOCTYPE svg PUBLIC "-//W3C//DTD SVG 1.1//EN"
 "http://www.w3.org/Graphics/SVG/1.1/DTD/svg11.dtd">
<!-- Generated by graphviz version 12.1.2 (20240928.0832)
 -->
<!-- Title: dim.dim_integrations Pages: 1 -->
<svg width="393pt" height="352pt"
 viewBox="0.00 0.00 393.37 351.60" xmlns="http://www.w3.org/2000/svg" xmlns:xlink="http://www.w3.org/1999/xlink">
<g id="graph0" class="graph" transform="scale(1 1) rotate(0) translate(4 347.6)">
<title>dim.dim_integrations</title>
<polygon fill="white" stroke="none" points="-4,4 -4,-347.6 389.37,-347.6 389.37,4 -4,4"/>
<!-- dim.dim_integrations -->
<g id="node1" class="node">
<title>dim.dim_integrations</title>
<polygon fill="#efefef" stroke="none" points="46.2,-261.8 46.2,-297.4 339.17,-297.4 339.17,-261.8 46.2,-261.8"/>
<polygon fill="none" stroke="black" points="46.2,-261.8 46.2,-297.4 339.17,-297.4 339.17,-261.8 46.2,-261.8"/>
<text text-anchor="start" x="53.2" y="-275.2" font-family="Arial Bold" font-size="18.00">dim.dim_integrations</text>
<text text-anchor="start" x="207.69" y="-275.2" font-family="Arial" font-size="14.00">    </text>
<text text-anchor="start" x="238.8" y="-275.2" font-family="Arial" font-size="14.00" fill="#666666">[BASE TABLE]</text>
<polygon fill="none" stroke="black" points="46.2,-231 46.2,-261.8 339.17,-261.8 339.17,-231 46.2,-231"/>
<text text-anchor="start" x="53.2" y="-243.2" font-family="Arial" font-size="14.00">id </text>
<text text-anchor="start" x="67.99" y="-243.2" font-family="Arial" font-size="14.00" fill="#666666">[integer]</text>
<polygon fill="none" stroke="black" points="46.2,-200.2 46.2,-231 339.17,-231 339.17,-200.2 46.2,-200.2"/>
<text text-anchor="start" x="53.2" y="-212.4" font-family="Arial" font-size="14.00">customer_id </text>
<text text-anchor="start" x="133.34" y="-212.4" font-family="Arial" font-size="14.00" fill="#666666">[integer]</text>
<polygon fill="none" stroke="black" points="46.2,-169.4 46.2,-200.2 339.17,-200.2 339.17,-169.4 46.2,-169.4"/>
<text text-anchor="start" x="53.2" y="-181.6" font-family="Arial" font-size="14.00">customer_email </text>
<text text-anchor="start" x="155.9" y="-181.6" font-family="Arial" font-size="14.00" fill="#666666">[varchar(100)]</text>
<polygon fill="none" stroke="black" points="46.2,-138.6 46.2,-169.4 339.17,-169.4 339.17,-138.6 46.2,-138.6"/>
<text text-anchor="start" x="53.2" y="-150.8" font-family="Arial" font-size="14.00">integration_type </text>
<text text-anchor="start" x="156.72" y="-150.8" font-family="Arial" font-size="14.00" fill="#666666">[source.integration_enum]</text>
<polygon fill="none" stroke="black" points="46.2,-107.8 46.2,-138.6 339.17,-138.6 339.17,-107.8 46.2,-107.8"/>
<text text-anchor="start" x="53.2" y="-120" font-family="Arial" font-size="14.00">is_active </text>
<text text-anchor="start" x="111.56" y="-120" font-family="Arial" font-size="14.00" fill="#666666">[integer]</text>
<polygon fill="none" stroke="black" points="46.2,-77 46.2,-107.8 339.17,-107.8 339.17,-77 46.2,-77"/>
<text text-anchor="start" x="53.2" y="-89.2" font-family="Arial" font-size="14.00">created_at </text>
<text text-anchor="start" x="123.25" y="-89.2" font-family="Arial" font-size="14.00" fill="#666666">[timestamp without time zone]</text>
<polygon fill="none" stroke="black" points="46.2,-46.2 46.2,-77 339.17,-77 339.17,-46.2 46.2,-46.2"/>
<text text-anchor="start" x="53.2" y="-58.4" font-family="Arial" font-size="14.00">modified_at </text>
<text text-anchor="start" x="129.47" y="-58.4" font-family="Arial" font-size="14.00" fill="#666666">[timestamp without time zone]</text>
<polygon fill="none" stroke="black" stroke-width="3" points="44.7,-44.7 44.7,-298.9 340.67,-298.9 340.67,-44.7 44.7,-44.7"/>
</g>
</g>
</svg>
