<?xml version="1.0" encoding="UTF-8" standalone="no"?>
<!DOCTYPE svg PUBLIC "-//W3C//DTD SVG 1.1//EN"
 "http://www.w3.org/Graphics/SVG/1.1/DTD/svg11.dtd">
<!-- Generated by graphviz version 12.1.2 (20240928.0832)
 -->
<!-- Title: dim.dim_stores Pages: 1 -->
<svg width="376pt" height="413pt"
 viewBox="0.00 0.00 375.85 413.20" xmlns="http://www.w3.org/2000/svg" xmlns:xlink="http://www.w3.org/1999/xlink">
<g id="graph0" class="graph" transform="scale(1 1) rotate(0) translate(4 409.2)">
<title>dim.dim_stores</title>
<polygon fill="white" stroke="none" points="-4,4 -4,-409.2 371.85,-409.2 371.85,4 -4,4"/>
<!-- dim.dim_stores -->
<g id="node1" class="node">
<title>dim.dim_stores</title>
<polygon fill="#efefef" stroke="none" points="46.2,-323.4 46.2,-359 321.65,-359 321.65,-323.4 46.2,-323.4"/>
<polygon fill="none" stroke="black" points="46.2,-323.4 46.2,-359 321.65,-359 321.65,-323.4 46.2,-323.4"/>
<text text-anchor="start" x="65.93" y="-336.8" font-family="Arial Bold" font-size="18.00">dim.dim_stores</text>
<text text-anchor="start" x="177.43" y="-336.8" font-family="Arial" font-size="14.00">    </text>
<text text-anchor="start" x="208.55" y="-336.8" font-family="Arial" font-size="14.00" fill="#666666">[BASE TABLE]</text>
<polygon fill="none" stroke="black" points="46.2,-292.6 46.2,-323.4 321.65,-323.4 321.65,-292.6 46.2,-292.6"/>
<text text-anchor="start" x="53.2" y="-304.8" font-family="Arial" font-size="14.00">store_id </text>
<text text-anchor="start" x="106.9" y="-304.8" font-family="Arial" font-size="14.00" fill="#666666">[integer]</text>
<polygon fill="none" stroke="black" points="46.2,-261.8 46.2,-292.6 321.65,-292.6 321.65,-261.8 46.2,-261.8"/>
<text text-anchor="start" x="53.2" y="-274" font-family="Arial" font-size="14.00">store_name </text>
<text text-anchor="start" x="131.02" y="-274" font-family="Arial" font-size="14.00" fill="#666666">[varchar(100)]</text>
<polygon fill="none" stroke="black" points="46.2,-231 46.2,-261.8 321.65,-261.8 321.65,-231 46.2,-231"/>
<text text-anchor="start" x="53.2" y="-243.2" font-family="Arial" font-size="14.00">street </text>
<text text-anchor="start" x="92.1" y="-243.2" font-family="Arial" font-size="14.00" fill="#666666">[varchar(100)]</text>
<polygon fill="none" stroke="black" points="46.2,-200.2 46.2,-231 321.65,-231 321.65,-200.2 46.2,-200.2"/>
<text text-anchor="start" x="53.2" y="-212.4" font-family="Arial" font-size="14.00">city </text>
<text text-anchor="start" x="78.09" y="-212.4" font-family="Arial" font-size="14.00" fill="#666666">[varchar(100)]</text>
<polygon fill="none" stroke="black" points="46.2,-169.4 46.2,-200.2 321.65,-200.2 321.65,-169.4 46.2,-169.4"/>
<text text-anchor="start" x="53.2" y="-181.6" font-family="Arial" font-size="14.00">state </text>
<text text-anchor="start" x="87.44" y="-181.6" font-family="Arial" font-size="14.00" fill="#666666">[varchar(2)]</text>
<polygon fill="none" stroke="black" points="46.2,-138.6 46.2,-169.4 321.65,-169.4 321.65,-138.6 46.2,-138.6"/>
<text text-anchor="start" x="53.2" y="-150.8" font-family="Arial" font-size="14.00">zip_code </text>
<text text-anchor="start" x="113.13" y="-150.8" font-family="Arial" font-size="14.00" fill="#666666">[integer]</text>
<polygon fill="none" stroke="black" points="46.2,-107.8 46.2,-138.6 321.65,-138.6 321.65,-107.8 46.2,-107.8"/>
<text text-anchor="start" x="53.2" y="-120" font-family="Arial" font-size="14.00">is_shipping_enabled_state </text>
<text text-anchor="start" x="222.89" y="-120" font-family="Arial" font-size="14.00" fill="#666666">[integer]</text>
<polygon fill="none" stroke="black" points="46.2,-77 46.2,-107.8 321.65,-107.8 321.65,-77 46.2,-77"/>
<text text-anchor="start" x="53.2" y="-89.2" font-family="Arial" font-size="14.00">created_at </text>
<text text-anchor="start" x="123.25" y="-89.2" font-family="Arial" font-size="14.00" fill="#666666">[timestamp without time zone]</text>
<polygon fill="none" stroke="black" points="46.2,-46.2 46.2,-77 321.65,-77 321.65,-46.2 46.2,-46.2"/>
<text text-anchor="start" x="53.2" y="-58.4" font-family="Arial" font-size="14.00">modified_at </text>
<text text-anchor="start" x="129.47" y="-58.4" font-family="Arial" font-size="14.00" fill="#666666">[timestamp without time zone]</text>
<polygon fill="none" stroke="black" stroke-width="3" points="44.7,-44.7 44.7,-360.5 323.15,-360.5 323.15,-44.7 44.7,-44.7"/>
</g>
</g>
</svg>
