<?xml version="1.0" encoding="UTF-8" standalone="no"?>
<!DOCTYPE svg PUBLIC "-//W3C//DTD SVG 1.1//EN"
 "http://www.w3.org/Graphics/SVG/1.1/DTD/svg11.dtd">
<!-- Generated by graphviz version 12.1.2 (20240928.0832)
 -->
<!-- Title: fact.fact_orders_external_system Pages: 1 -->
<svg width="477pt" height="382pt"
 viewBox="0.00 0.00 477.28 382.40" xmlns="http://www.w3.org/2000/svg" xmlns:xlink="http://www.w3.org/1999/xlink">
<g id="graph0" class="graph" transform="scale(1 1) rotate(0) translate(4 378.4)">
<title>fact.fact_orders_external_system</title>
<polygon fill="white" stroke="none" points="-4,4 -4,-378.4 473.28,-378.4 473.28,4 -4,4"/>
<!-- fact.fact_orders_external_system -->
<g id="node1" class="node">
<title>fact.fact_orders_external_system</title>
<polygon fill="#efefef" stroke="none" points="46.2,-292.6 46.2,-328.2 423.08,-328.2 423.08,-292.6 46.2,-292.6"/>
<polygon fill="none" stroke="black" points="46.2,-292.6 46.2,-328.2 423.08,-328.2 423.08,-292.6 46.2,-292.6"/>
<text text-anchor="start" x="53.2" y="-306" font-family="Arial Bold" font-size="18.00">fact.fact_orders_external_system</text>
<text text-anchor="start" x="291.59" y="-306" font-family="Arial" font-size="14.00">    </text>
<text text-anchor="start" x="322.71" y="-306" font-family="Arial" font-size="14.00" fill="#666666">[BASE TABLE]</text>
<polygon fill="none" stroke="black" points="46.2,-261.8 46.2,-292.6 423.08,-292.6 423.08,-261.8 46.2,-261.8"/>
<text text-anchor="start" x="53.2" y="-274" font-family="Arial" font-size="14.00">order_id </text>
<text text-anchor="start" x="108.45" y="-274" font-family="Arial" font-size="14.00" fill="#666666">[integer]</text>
<polygon fill="none" stroke="black" points="46.2,-231 46.2,-261.8 423.08,-261.8 423.08,-231 46.2,-231"/>
<text text-anchor="start" x="53.2" y="-243.2" font-family="Arial" font-size="14.00">sale_id </text>
<text text-anchor="start" x="101.45" y="-243.2" font-family="Arial" font-size="14.00" fill="#666666">[integer]</text>
<polygon fill="none" stroke="black" points="46.2,-200.2 46.2,-231 423.08,-231 423.08,-200.2 46.2,-200.2"/>
<text text-anchor="start" x="53.2" y="-212.4" font-family="Arial" font-size="14.00">source_timestamp </text>
<text text-anchor="start" x="171.47" y="-212.4" font-family="Arial" font-size="14.00" fill="#666666">[timestamp without time zone]</text>
<polygon fill="none" stroke="black" points="46.2,-169.4 46.2,-200.2 423.08,-200.2 423.08,-169.4 46.2,-169.4"/>
<text text-anchor="start" x="53.2" y="-181.6" font-family="Arial" font-size="14.00">source_address </text>
<text text-anchor="start" x="156.7" y="-181.6" font-family="Arial" font-size="14.00" fill="#666666">[text]</text>
<polygon fill="none" stroke="black" points="46.2,-138.6 46.2,-169.4 423.08,-169.4 423.08,-138.6 46.2,-138.6"/>
<text text-anchor="start" x="53.2" y="-150.8" font-family="Arial" font-size="14.00">source_zip_code </text>
<text text-anchor="start" x="162.94" y="-150.8" font-family="Arial" font-size="14.00" fill="#666666">[integer]</text>
<polygon fill="none" stroke="black" points="46.2,-107.8 46.2,-138.6 423.08,-138.6 423.08,-107.8 46.2,-107.8"/>
<text text-anchor="start" x="53.2" y="-120" font-family="Arial" font-size="14.00">source_state </text>
<text text-anchor="start" x="137.25" y="-120" font-family="Arial" font-size="14.00" fill="#666666">[text]</text>
<polygon fill="none" stroke="black" points="46.2,-77 46.2,-107.8 423.08,-107.8 423.08,-77 46.2,-77"/>
<text text-anchor="start" x="53.2" y="-89.2" font-family="Arial" font-size="14.00">source_store </text>
<text text-anchor="start" x="138.02" y="-89.2" font-family="Arial" font-size="14.00" fill="#666666">[text]</text>
<polygon fill="none" stroke="black" points="46.2,-46.2 46.2,-77 423.08,-77 423.08,-46.2 46.2,-46.2"/>
<text text-anchor="start" x="53.2" y="-58.4" font-family="Arial" font-size="14.00">created_at </text>
<text text-anchor="start" x="123.25" y="-58.4" font-family="Arial" font-size="14.00" fill="#666666">[timestamp without time zone]</text>
<polygon fill="none" stroke="black" stroke-width="3" points="44.7,-44.7 44.7,-329.7 424.58,-329.7 424.58,-44.7 44.7,-44.7"/>
</g>
</g>
</svg>
