<?xml version="1.0" encoding="UTF-8" standalone="no"?>
<!DOCTYPE svg PUBLIC "-//W3C//DTD SVG 1.1//EN"
 "http://www.w3.org/Graphics/SVG/1.1/DTD/svg11.dtd">
<!-- Generated by graphviz version 12.1.2 (20240928.0832)
 -->
<!-- Title: fact.fact_payments Pages: 1 -->
<svg width="437pt" height="413pt"
 viewBox="0.00 0.00 437.34 413.20" xmlns="http://www.w3.org/2000/svg" xmlns:xlink="http://www.w3.org/1999/xlink">
<g id="graph0" class="graph" transform="scale(1 1) rotate(0) translate(4 409.2)">
<title>fact.fact_payments</title>
<polygon fill="white" stroke="none" points="-4,4 -4,-409.2 433.34,-409.2 433.34,4 -4,4"/>
<!-- fact.fact_payments -->
<g id="node1" class="node">
<title>fact.fact_payments</title>
<polygon fill="#efefef" stroke="none" points="46.2,-323.4 46.2,-359 383.14,-359 383.14,-323.4 46.2,-323.4"/>
<polygon fill="none" stroke="black" points="46.2,-323.4 46.2,-359 383.14,-359 383.14,-323.4 46.2,-323.4"/>
<text text-anchor="start" x="84.21" y="-336.8" font-family="Arial Bold" font-size="18.00">fact.fact_payments</text>
<text text-anchor="start" x="220.64" y="-336.8" font-family="Arial" font-size="14.00">    </text>
<text text-anchor="start" x="251.76" y="-336.8" font-family="Arial" font-size="14.00" fill="#666666">[BASE TABLE]</text>
<polygon fill="none" stroke="black" points="46.2,-292.6 46.2,-323.4 383.14,-323.4 383.14,-292.6 46.2,-292.6"/>
<text text-anchor="start" x="53.2" y="-304.8" font-family="Arial" font-size="14.00">payment_id </text>
<text text-anchor="start" x="129.47" y="-304.8" font-family="Arial" font-size="14.00" fill="#666666">[integer]</text>
<polygon fill="none" stroke="black" points="46.2,-261.8 46.2,-292.6 383.14,-292.6 383.14,-261.8 46.2,-261.8"/>
<text text-anchor="start" x="53.2" y="-274" font-family="Arial" font-size="14.00">payment_type_id </text>
<text text-anchor="start" x="163.72" y="-274" font-family="Arial" font-size="14.00" fill="#666666">[integer]</text>
<polygon fill="none" stroke="black" points="46.2,-231 46.2,-261.8 383.14,-261.8 383.14,-231 46.2,-231"/>
<text text-anchor="start" x="53.2" y="-243.2" font-family="Arial" font-size="14.00">invoice_id </text>
<text text-anchor="start" x="119.35" y="-243.2" font-family="Arial" font-size="14.00" fill="#666666">[integer]</text>
<polygon fill="none" stroke="black" points="46.2,-200.2 46.2,-231 383.14,-231 383.14,-200.2 46.2,-200.2"/>
<text text-anchor="start" x="53.2" y="-212.4" font-family="Arial" font-size="14.00">order_id </text>
<text text-anchor="start" x="108.45" y="-212.4" font-family="Arial" font-size="14.00" fill="#666666">[integer]</text>
<polygon fill="none" stroke="black" points="46.2,-169.4 46.2,-200.2 383.14,-200.2 383.14,-169.4 46.2,-169.4"/>
<text text-anchor="start" x="53.2" y="-181.6" font-family="Arial" font-size="14.00">customer_id </text>
<text text-anchor="start" x="133.34" y="-181.6" font-family="Arial" font-size="14.00" fill="#666666">[integer]</text>
<polygon fill="none" stroke="black" points="46.2,-138.6 46.2,-169.4 383.14,-169.4 383.14,-138.6 46.2,-138.6"/>
<text text-anchor="start" x="53.2" y="-150.8" font-family="Arial" font-size="14.00">financial_account_id </text>
<text text-anchor="start" x="183.96" y="-150.8" font-family="Arial" font-size="14.00" fill="#666666">[integer]</text>
<polygon fill="none" stroke="black" points="46.2,-107.8 46.2,-138.6 383.14,-138.6 383.14,-107.8 46.2,-107.8"/>
<text text-anchor="start" x="53.2" y="-120" font-family="Arial" font-size="14.00">payment_amount </text>
<text text-anchor="start" x="165.27" y="-120" font-family="Arial" font-size="14.00" fill="#666666">[numeric(10,2)]</text>
<polygon fill="none" stroke="black" points="46.2,-77 46.2,-107.8 383.14,-107.8 383.14,-77 46.2,-77"/>
<text text-anchor="start" x="53.2" y="-89.2" font-family="Arial" font-size="14.00">payment_created_at </text>
<text text-anchor="start" x="184.73" y="-89.2" font-family="Arial" font-size="14.00" fill="#666666">[timestamp without time zone]</text>
<polygon fill="none" stroke="black" points="46.2,-46.2 46.2,-77 383.14,-77 383.14,-46.2 46.2,-46.2"/>
<text text-anchor="start" x="53.2" y="-58.4" font-family="Arial" font-size="14.00">payment_modified_at </text>
<text text-anchor="start" x="190.95" y="-58.4" font-family="Arial" font-size="14.00" fill="#666666">[timestamp without time zone]</text>
<polygon fill="none" stroke="black" stroke-width="3" points="44.7,-44.7 44.7,-360.5 384.64,-360.5 384.64,-44.7 44.7,-44.7"/>
</g>
</g>
</svg>
