<?xml version="1.0" encoding="UTF-8" standalone="no"?>
<!DOCTYPE svg PUBLIC "-//W3C//DTD SVG 1.1//EN"
 "http://www.w3.org/Graphics/SVG/1.1/DTD/svg11.dtd">
<!-- Generated by graphviz version 12.1.2 (20240928.0832)
 -->
<!-- Title: fact.fact_emails Pages: 1 -->
<svg width="377pt" height="321pt"
 viewBox="0.00 0.00 377.42 320.80" xmlns="http://www.w3.org/2000/svg" xmlns:xlink="http://www.w3.org/1999/xlink">
<g id="graph0" class="graph" transform="scale(1 1) rotate(0) translate(4 316.8)">
<title>fact.fact_emails</title>
<polygon fill="white" stroke="none" points="-4,4 -4,-316.8 373.42,-316.8 373.42,4 -4,4"/>
<!-- fact.fact_emails -->
<g id="node1" class="node">
<title>fact.fact_emails</title>
<polygon fill="#efefef" stroke="none" points="46.2,-231 46.2,-266.6 323.22,-266.6 323.22,-231 46.2,-231"/>
<polygon fill="none" stroke="black" points="46.2,-231 46.2,-266.6 323.22,-266.6 323.22,-231 46.2,-231"/>
<text text-anchor="start" x="65.25" y="-244.4" font-family="Arial Bold" font-size="18.00">fact.fact_emails</text>
<text text-anchor="start" x="179.68" y="-244.4" font-family="Arial" font-size="14.00">    </text>
<text text-anchor="start" x="210.8" y="-244.4" font-family="Arial" font-size="14.00" fill="#666666">[BASE TABLE]</text>
<polygon fill="none" stroke="black" points="46.2,-200.2 46.2,-231 323.22,-231 323.22,-200.2 46.2,-200.2"/>
<text text-anchor="start" x="53.2" y="-212.4" font-family="Arial" font-size="14.00">email_id </text>
<text text-anchor="start" x="109.23" y="-212.4" font-family="Arial" font-size="14.00" fill="#666666">[integer]</text>
<polygon fill="none" stroke="black" points="46.2,-169.4 46.2,-200.2 323.22,-200.2 323.22,-169.4 46.2,-169.4"/>
<text text-anchor="start" x="53.2" y="-181.6" font-family="Arial" font-size="14.00">email_name </text>
<text text-anchor="start" x="133.35" y="-181.6" font-family="Arial" font-size="14.00" fill="#666666">[varchar(100)]</text>
<polygon fill="none" stroke="black" points="46.2,-138.6 46.2,-169.4 323.22,-169.4 323.22,-138.6 46.2,-138.6"/>
<text text-anchor="start" x="53.2" y="-150.8" font-family="Arial" font-size="14.00">messages </text>
<text text-anchor="start" x="120.9" y="-150.8" font-family="Arial" font-size="14.00" fill="#666666">[json]</text>
<polygon fill="none" stroke="black" points="46.2,-107.8 46.2,-138.6 323.22,-138.6 323.22,-107.8 46.2,-107.8"/>
<text text-anchor="start" x="53.2" y="-120" font-family="Arial" font-size="14.00">created_at </text>
<text text-anchor="start" x="123.25" y="-120" font-family="Arial" font-size="14.00" fill="#666666">[timestamp without time zone]</text>
<polygon fill="none" stroke="black" points="46.2,-77 46.2,-107.8 323.22,-107.8 323.22,-77 46.2,-77"/>
<text text-anchor="start" x="53.2" y="-89.2" font-family="Arial" font-size="14.00">modified_at </text>
<text text-anchor="start" x="129.47" y="-89.2" font-family="Arial" font-size="14.00" fill="#666666">[timestamp without time zone]</text>
<polygon fill="none" stroke="black" points="46.2,-46.2 46.2,-77 323.22,-77 323.22,-46.2 46.2,-46.2"/>
<text text-anchor="start" x="53.2" y="-58.4" font-family="Arial" font-size="14.00">dbt_created_at </text>
<text text-anchor="start" x="150.5" y="-58.4" font-family="Arial" font-size="14.00" fill="#666666">[timestamp with time zone]</text>
<polygon fill="none" stroke="black" stroke-width="3" points="44.7,-44.7 44.7,-268.1 324.72,-268.1 324.72,-44.7 44.7,-44.7"/>
</g>
</g>
</svg>
