<?xml version="1.0" encoding="UTF-8" standalone="no"?>
<!DOCTYPE svg PUBLIC "-//W3C//DTD SVG 1.1//EN"
 "http://www.w3.org/Graphics/SVG/1.1/DTD/svg11.dtd">
<!-- Generated by graphviz version 12.1.2 (20240928.0832)
 -->
<!-- Title: fact.fact_product_prices Pages: 1 -->
<svg width="468pt" height="382pt"
 viewBox="0.00 0.00 468.47 382.40" xmlns="http://www.w3.org/2000/svg" xmlns:xlink="http://www.w3.org/1999/xlink">
<g id="graph0" class="graph" transform="scale(1 1) rotate(0) translate(4 378.4)">
<title>fact.fact_product_prices</title>
<polygon fill="white" stroke="none" points="-4,4 -4,-378.4 464.47,-378.4 464.47,4 -4,4"/>
<!-- fact.fact_product_prices -->
<g id="node1" class="node">
<title>fact.fact_product_prices</title>
<polygon fill="#efefef" stroke="none" points="46.2,-292.6 46.2,-328.2 414.27,-328.2 414.27,-292.6 46.2,-292.6"/>
<polygon fill="none" stroke="black" points="46.2,-292.6 46.2,-328.2 414.27,-328.2 414.27,-292.6 46.2,-292.6"/>
<text text-anchor="start" x="80.78" y="-306" font-family="Arial Bold" font-size="18.00">fact.fact_product_prices</text>
<text text-anchor="start" x="255.19" y="-306" font-family="Arial" font-size="14.00">    </text>
<text text-anchor="start" x="286.31" y="-306" font-family="Arial" font-size="14.00" fill="#666666">[BASE TABLE]</text>
<polygon fill="none" stroke="black" points="46.2,-261.8 46.2,-292.6 414.27,-292.6 414.27,-261.8 46.2,-261.8"/>
<text text-anchor="start" x="53.2" y="-274" font-family="Arial" font-size="14.00">product_price_id </text>
<text text-anchor="start" x="160.6" y="-274" font-family="Arial" font-size="14.00" fill="#666666">[integer]</text>
<polygon fill="none" stroke="black" points="46.2,-231 46.2,-261.8 414.27,-261.8 414.27,-231 46.2,-231"/>
<text text-anchor="start" x="53.2" y="-243.2" font-family="Arial" font-size="14.00">product_id </text>
<text text-anchor="start" x="122.47" y="-243.2" font-family="Arial" font-size="14.00" fill="#666666">[integer]</text>
<polygon fill="none" stroke="black" points="46.2,-200.2 46.2,-231 414.27,-231 414.27,-200.2 46.2,-200.2"/>
<text text-anchor="start" x="53.2" y="-212.4" font-family="Arial" font-size="14.00">price </text>
<text text-anchor="start" x="87.43" y="-212.4" font-family="Arial" font-size="14.00" fill="#666666">[numeric(10,2)]</text>
<polygon fill="none" stroke="black" points="46.2,-169.4 46.2,-200.2 414.27,-200.2 414.27,-169.4 46.2,-169.4"/>
<text text-anchor="start" x="53.2" y="-181.6" font-family="Arial" font-size="14.00">is_active </text>
<text text-anchor="start" x="111.56" y="-181.6" font-family="Arial" font-size="14.00" fill="#666666">[boolean]</text>
<polygon fill="none" stroke="black" points="46.2,-138.6 46.2,-169.4 414.27,-169.4 414.27,-138.6 46.2,-138.6"/>
<text text-anchor="start" x="53.2" y="-150.8" font-family="Arial" font-size="14.00">valid_from </text>
<text text-anchor="start" x="121.67" y="-150.8" font-family="Arial" font-size="14.00" fill="#666666">[timestamp without time zone]</text>
<polygon fill="none" stroke="black" points="46.2,-107.8 46.2,-138.6 414.27,-138.6 414.27,-107.8 46.2,-107.8"/>
<text text-anchor="start" x="53.2" y="-120" font-family="Arial" font-size="14.00">valid_to </text>
<text text-anchor="start" x="105.34" y="-120" font-family="Arial" font-size="14.00" fill="#666666">[timestamp without time zone]</text>
<polygon fill="none" stroke="black" points="46.2,-77 46.2,-107.8 414.27,-107.8 414.27,-77 46.2,-77"/>
<text text-anchor="start" x="53.2" y="-89.2" font-family="Arial" font-size="14.00">product_price_created_at </text>
<text text-anchor="start" x="215.86" y="-89.2" font-family="Arial" font-size="14.00" fill="#666666">[timestamp without time zone]</text>
<polygon fill="none" stroke="black" points="46.2,-46.2 46.2,-77 414.27,-77 414.27,-46.2 46.2,-46.2"/>
<text text-anchor="start" x="53.2" y="-58.4" font-family="Arial" font-size="14.00">product_price_modified_at </text>
<text text-anchor="start" x="222.08" y="-58.4" font-family="Arial" font-size="14.00" fill="#666666">[timestamp without time zone]</text>
<polygon fill="none" stroke="black" stroke-width="3" points="44.7,-44.7 44.7,-329.7 415.77,-329.7 415.77,-44.7 44.7,-44.7"/>
</g>
</g>
</svg>
