<?xml version="1.0" encoding="UTF-8" standalone="no"?>
<!DOCTYPE svg PUBLIC "-//W3C//DTD SVG 1.1//EN"
 "http://www.w3.org/Graphics/SVG/1.1/DTD/svg11.dtd">
<!-- Generated by graphviz version 12.1.2 (20240928.0832)
 -->
<!-- Title: fact.fact_orders_detailed Pages: 1 -->
<svg width="458pt" height="475pt"
 viewBox="0.00 0.00 457.58 474.80" xmlns="http://www.w3.org/2000/svg" xmlns:xlink="http://www.w3.org/1999/xlink">
<g id="graph0" class="graph" transform="scale(1 1) rotate(0) translate(4 470.8)">
<title>fact.fact_orders_detailed</title>
<polygon fill="white" stroke="none" points="-4,4 -4,-470.8 453.58,-470.8 453.58,4 -4,4"/>
<!-- fact.fact_orders_detailed -->
<g id="node1" class="node">
<title>fact.fact_orders_detailed</title>
<polygon fill="#efefef" stroke="none" points="46.2,-385 46.2,-420.6 403.38,-420.6 403.38,-385 46.2,-385"/>
<polygon fill="none" stroke="black" points="46.2,-385 46.2,-420.6 403.38,-420.6 403.38,-385 46.2,-385"/>
<text text-anchor="start" x="73.34" y="-398.4" font-family="Arial Bold" font-size="18.00">fact.fact_orders_detailed</text>
<text text-anchor="start" x="251.74" y="-398.4" font-family="Arial" font-size="14.00">    </text>
<text text-anchor="start" x="282.86" y="-398.4" font-family="Arial" font-size="14.00" fill="#666666">[BASE TABLE]</text>
<polygon fill="none" stroke="black" points="46.2,-354.2 46.2,-385 403.38,-385 403.38,-354.2 46.2,-354.2"/>
<text text-anchor="start" x="53.2" y="-366.4" font-family="Arial" font-size="14.00">order_detail_id </text>
<text text-anchor="start" x="149.71" y="-366.4" font-family="Arial" font-size="14.00" fill="#666666">[integer]</text>
<polygon fill="none" stroke="black" points="46.2,-323.4 46.2,-354.2 403.38,-354.2 403.38,-323.4 46.2,-323.4"/>
<text text-anchor="start" x="53.2" y="-335.6" font-family="Arial" font-size="14.00">order_id </text>
<text text-anchor="start" x="108.45" y="-335.6" font-family="Arial" font-size="14.00" fill="#666666">[integer]</text>
<polygon fill="none" stroke="black" points="46.2,-292.6 46.2,-323.4 403.38,-323.4 403.38,-292.6 46.2,-292.6"/>
<text text-anchor="start" x="53.2" y="-304.8" font-family="Arial" font-size="14.00">store_id </text>
<text text-anchor="start" x="106.9" y="-304.8" font-family="Arial" font-size="14.00" fill="#666666">[integer]</text>
<polygon fill="none" stroke="black" points="46.2,-261.8 46.2,-292.6 403.38,-292.6 403.38,-261.8 46.2,-261.8"/>
<text text-anchor="start" x="53.2" y="-274" font-family="Arial" font-size="14.00">product_id </text>
<text text-anchor="start" x="122.47" y="-274" font-family="Arial" font-size="14.00" fill="#666666">[integer]</text>
<polygon fill="none" stroke="black" points="46.2,-231 46.2,-261.8 403.38,-261.8 403.38,-231 46.2,-231"/>
<text text-anchor="start" x="53.2" y="-243.2" font-family="Arial" font-size="14.00">customer_id </text>
<text text-anchor="start" x="133.34" y="-243.2" font-family="Arial" font-size="14.00" fill="#666666">[integer]</text>
<polygon fill="none" stroke="black" points="46.2,-200.2 46.2,-231 403.38,-231 403.38,-200.2 46.2,-200.2"/>
<text text-anchor="start" x="53.2" y="-212.4" font-family="Arial" font-size="14.00">product_category_id </text>
<text text-anchor="start" x="183.95" y="-212.4" font-family="Arial" font-size="14.00" fill="#666666">[integer]</text>
<polygon fill="none" stroke="black" points="46.2,-169.4 46.2,-200.2 403.38,-200.2 403.38,-169.4 46.2,-169.4"/>
<text text-anchor="start" x="53.2" y="-181.6" font-family="Arial" font-size="14.00">quantity </text>
<text text-anchor="start" x="106.12" y="-181.6" font-family="Arial" font-size="14.00" fill="#666666">[integer]</text>
<polygon fill="none" stroke="black" points="46.2,-138.6 46.2,-169.4 403.38,-169.4 403.38,-138.6 46.2,-138.6"/>
<text text-anchor="start" x="53.2" y="-150.8" font-family="Arial" font-size="14.00">product_price_id </text>
<text text-anchor="start" x="160.6" y="-150.8" font-family="Arial" font-size="14.00" fill="#666666">[integer]</text>
<polygon fill="none" stroke="black" points="46.2,-107.8 46.2,-138.6 403.38,-138.6 403.38,-107.8 46.2,-107.8"/>
<text text-anchor="start" x="53.2" y="-120" font-family="Arial" font-size="14.00">product_price </text>
<text text-anchor="start" x="141.92" y="-120" font-family="Arial" font-size="14.00" fill="#666666">[numeric(10,2)]</text>
<polygon fill="none" stroke="black" points="46.2,-77 46.2,-107.8 403.38,-107.8 403.38,-77 46.2,-77"/>
<text text-anchor="start" x="53.2" y="-89.2" font-family="Arial" font-size="14.00">order_detail_created_at </text>
<text text-anchor="start" x="204.97" y="-89.2" font-family="Arial" font-size="14.00" fill="#666666">[timestamp without time zone]</text>
<polygon fill="none" stroke="black" points="46.2,-46.2 46.2,-77 403.38,-77 403.38,-46.2 46.2,-46.2"/>
<text text-anchor="start" x="53.2" y="-58.4" font-family="Arial" font-size="14.00">order_detail_modified_at </text>
<text text-anchor="start" x="211.19" y="-58.4" font-family="Arial" font-size="14.00" fill="#666666">[timestamp without time zone]</text>
<polygon fill="none" stroke="black" stroke-width="3" points="44.7,-44.7 44.7,-422.1 404.88,-422.1 404.88,-44.7 44.7,-44.7"/>
</g>
</g>
</svg>
