<?xml version="1.0" encoding="UTF-8" standalone="no"?>
<!DOCTYPE svg PUBLIC "-//W3C//DTD SVG 1.1//EN"
 "http://www.w3.org/Graphics/SVG/1.1/DTD/svg11.dtd">
<!-- Generated by graphviz version 12.1.2 (20240928.0832)
 -->
<!-- Title: marts.accounting_by_store_agg Pages: 1 -->
<svg width="468pt" height="259pt"
 viewBox="0.00 0.00 468.33 259.20" xmlns="http://www.w3.org/2000/svg" xmlns:xlink="http://www.w3.org/1999/xlink">
<g id="graph0" class="graph" transform="scale(1 1) rotate(0) translate(4 255.2)">
<title>marts.accounting_by_store_agg</title>
<polygon fill="white" stroke="none" points="-4,4 -4,-255.2 464.33,-255.2 464.33,4 -4,4"/>
<!-- marts.accounting_by_store_agg -->
<g id="node1" class="node">
<title>marts.accounting_by_store_agg</title>
<polygon fill="#efefef" stroke="none" points="46.2,-169.4 46.2,-205 414.13,-205 414.13,-169.4 46.2,-169.4"/>
<polygon fill="none" stroke="black" points="46.2,-169.4 46.2,-205 414.13,-205 414.13,-169.4 46.2,-169.4"/>
<text text-anchor="start" x="53.2" y="-182.8" font-family="Arial Bold" font-size="18.00">marts.accounting_by_store_agg</text>
<text text-anchor="start" x="282.64" y="-182.8" font-family="Arial" font-size="14.00">    </text>
<text text-anchor="start" x="313.76" y="-182.8" font-family="Arial" font-size="14.00" fill="#666666">[BASE TABLE]</text>
<polygon fill="none" stroke="black" points="46.2,-138.6 46.2,-169.4 414.13,-169.4 414.13,-138.6 46.2,-138.6"/>
<text text-anchor="start" x="53.2" y="-150.8" font-family="Arial" font-size="14.00">store_name </text>
<text text-anchor="start" x="131.02" y="-150.8" font-family="Arial" font-size="14.00" fill="#666666">[varchar(100)]</text>
<polygon fill="none" stroke="black" points="46.2,-107.8 46.2,-138.6 414.13,-138.6 414.13,-107.8 46.2,-107.8"/>
<text text-anchor="start" x="53.2" y="-120" font-family="Arial" font-size="14.00">financial_account_name </text>
<text text-anchor="start" x="208.08" y="-120" font-family="Arial" font-size="14.00" fill="#666666">[varchar(100)]</text>
<polygon fill="none" stroke="black" points="46.2,-77 46.2,-107.8 414.13,-107.8 414.13,-77 46.2,-77"/>
<text text-anchor="start" x="53.2" y="-89.2" font-family="Arial" font-size="14.00">total_account_amount </text>
<text text-anchor="start" x="194.85" y="-89.2" font-family="Arial" font-size="14.00" fill="#666666">[numeric]</text>
<polygon fill="none" stroke="black" points="46.2,-46.2 46.2,-77 414.13,-77 414.13,-46.2 46.2,-46.2"/>
<text text-anchor="start" x="53.2" y="-58.4" font-family="Arial" font-size="14.00">as_of_date </text>
<text text-anchor="start" x="126.37" y="-58.4" font-family="Arial" font-size="14.00" fill="#666666">[date]</text>
<polygon fill="none" stroke="black" stroke-width="3" points="44.7,-44.7 44.7,-206.5 415.63,-206.5 415.63,-44.7 44.7,-44.7"/>
</g>
</g>
</svg>
