<?xml version="1.0" encoding="UTF-8" standalone="no"?>
<!DOCTYPE svg PUBLIC "-//W3C//DTD SVG 1.1//EN"
 "http://www.w3.org/Graphics/SVG/1.1/DTD/svg11.dtd">
<!-- Generated by graphviz version 12.1.2 (20240928.0832)
 -->
<!-- Title: marts.most_popular_products_by_store_agg Pages: 1 -->
<svg width="559pt" height="259pt"
 viewBox="0.00 0.00 559.34 259.20" xmlns="http://www.w3.org/2000/svg" xmlns:xlink="http://www.w3.org/1999/xlink">
<g id="graph0" class="graph" transform="scale(1 1) rotate(0) translate(4 255.2)">
<title>marts.most_popular_products_by_store_agg</title>
<polygon fill="white" stroke="none" points="-4,4 -4,-255.2 555.34,-255.2 555.34,4 -4,4"/>
<!-- marts.most_popular_products_by_store_agg -->
<g id="node1" class="node">
<title>marts.most_popular_products_by_store_agg</title>
<polygon fill="#efefef" stroke="none" points="46.2,-169.4 46.2,-205 505.14,-205 505.14,-169.4 46.2,-169.4"/>
<polygon fill="none" stroke="black" points="46.2,-169.4 46.2,-205 505.14,-205 505.14,-169.4 46.2,-169.4"/>
<text text-anchor="start" x="53.2" y="-182.8" font-family="Arial Bold" font-size="18.00">marts.most_popular_products_by_store_agg</text>
<text text-anchor="start" x="373.65" y="-182.8" font-family="Arial" font-size="14.00">    </text>
<text text-anchor="start" x="404.77" y="-182.8" font-family="Arial" font-size="14.00" fill="#666666">[BASE TABLE]</text>
<polygon fill="none" stroke="black" points="46.2,-138.6 46.2,-169.4 505.14,-169.4 505.14,-138.6 46.2,-138.6"/>
<text text-anchor="start" x="53.2" y="-150.8" font-family="Arial" font-size="14.00">store_name </text>
<text text-anchor="start" x="131.02" y="-150.8" font-family="Arial" font-size="14.00" fill="#666666">[varchar(100)]</text>
<polygon fill="none" stroke="black" points="46.2,-107.8 46.2,-138.6 505.14,-138.6 505.14,-107.8 46.2,-107.8"/>
<text text-anchor="start" x="53.2" y="-120" font-family="Arial" font-size="14.00">product_name </text>
<text text-anchor="start" x="146.59" y="-120" font-family="Arial" font-size="14.00" fill="#666666">[varchar(100)]</text>
<polygon fill="none" stroke="black" points="46.2,-77 46.2,-107.8 505.14,-107.8 505.14,-77 46.2,-77"/>
<text text-anchor="start" x="53.2" y="-89.2" font-family="Arial" font-size="14.00">product_category_name </text>
<text text-anchor="start" x="208.07" y="-89.2" font-family="Arial" font-size="14.00" fill="#666666">[varchar(100)]</text>
<polygon fill="none" stroke="black" points="46.2,-46.2 46.2,-77 505.14,-77 505.14,-46.2 46.2,-46.2"/>
<text text-anchor="start" x="53.2" y="-58.4" font-family="Arial" font-size="14.00">units_sold </text>
<text text-anchor="start" x="120.13" y="-58.4" font-family="Arial" font-size="14.00" fill="#666666">[bigint]</text>
<polygon fill="none" stroke="black" stroke-width="3" points="44.7,-44.7 44.7,-206.5 506.64,-206.5 506.64,-44.7 44.7,-44.7"/>
</g>
</g>
</svg>
