<?xml version="1.0" encoding="UTF-8" standalone="no"?>
<!DOCTYPE svg PUBLIC "-//W3C//DTD SVG 1.1//EN"
 "http://www.w3.org/Graphics/SVG/1.1/DTD/svg11.dtd">
<!-- Generated by graphviz version 12.1.2 (20240928.0832)
 -->
<!-- Title: marts.customers_to_email Pages: 1 -->
<svg width="428pt" height="290pt"
 viewBox="0.00 0.00 428.35 290.00" xmlns="http://www.w3.org/2000/svg" xmlns:xlink="http://www.w3.org/1999/xlink">
<g id="graph0" class="graph" transform="scale(1 1) rotate(0) translate(4 286)">
<title>marts.customers_to_email</title>
<polygon fill="white" stroke="none" points="-4,4 -4,-286 424.35,-286 424.35,4 -4,4"/>
<!-- marts.customers_to_email -->
<g id="node1" class="node">
<title>marts.customers_to_email</title>
<polygon fill="#efefef" stroke="none" points="46.2,-200.2 46.2,-235.8 374.15,-235.8 374.15,-200.2 46.2,-200.2"/>
<polygon fill="none" stroke="black" points="46.2,-200.2 46.2,-235.8 374.15,-235.8 374.15,-200.2 46.2,-200.2"/>
<text text-anchor="start" x="53.2" y="-213.6" font-family="Arial Bold" font-size="18.00">marts.customers_to_email</text>
<text text-anchor="start" x="242.66" y="-213.6" font-family="Arial" font-size="14.00">    </text>
<text text-anchor="start" x="273.77" y="-213.6" font-family="Arial" font-size="14.00" fill="#666666">[BASE TABLE]</text>
<polygon fill="none" stroke="black" points="46.2,-169.4 46.2,-200.2 374.15,-200.2 374.15,-169.4 46.2,-169.4"/>
<text text-anchor="start" x="53.2" y="-181.6" font-family="Arial" font-size="14.00">order_detail_id </text>
<text text-anchor="start" x="149.71" y="-181.6" font-family="Arial" font-size="14.00" fill="#666666">[integer]</text>
<polygon fill="none" stroke="black" points="46.2,-138.6 46.2,-169.4 374.15,-169.4 374.15,-138.6 46.2,-138.6"/>
<text text-anchor="start" x="53.2" y="-150.8" font-family="Arial" font-size="14.00">customer_name </text>
<text text-anchor="start" x="157.47" y="-150.8" font-family="Arial" font-size="14.00" fill="#666666">[varchar(100)]</text>
<polygon fill="none" stroke="black" points="46.2,-107.8 46.2,-138.6 374.15,-138.6 374.15,-107.8 46.2,-107.8"/>
<text text-anchor="start" x="53.2" y="-120" font-family="Arial" font-size="14.00">customer_email </text>
<text text-anchor="start" x="155.9" y="-120" font-family="Arial" font-size="14.00" fill="#666666">[varchar(100)]</text>
<polygon fill="none" stroke="black" points="46.2,-77 46.2,-107.8 374.15,-107.8 374.15,-77 46.2,-77"/>
<text text-anchor="start" x="53.2" y="-89.2" font-family="Arial" font-size="14.00">product_name </text>
<text text-anchor="start" x="146.59" y="-89.2" font-family="Arial" font-size="14.00" fill="#666666">[varchar(100)]</text>
<polygon fill="none" stroke="black" points="46.2,-46.2 46.2,-77 374.15,-77 374.15,-46.2 46.2,-46.2"/>
<text text-anchor="start" x="53.2" y="-58.4" font-family="Arial" font-size="14.00">product_category_name </text>
<text text-anchor="start" x="208.07" y="-58.4" font-family="Arial" font-size="14.00" fill="#666666">[varchar(100)]</text>
<polygon fill="none" stroke="black" stroke-width="3" points="44.7,-44.7 44.7,-237.3 375.65,-237.3 375.65,-44.7 44.7,-44.7"/>
</g>
</g>
</svg>
