<?xml version="1.0" encoding="UTF-8" standalone="no"?>
<!DOCTYPE svg PUBLIC "-//W3C//DTD SVG 1.1//EN"
 "http://www.w3.org/Graphics/SVG/1.1/DTD/svg11.dtd">
<!-- Generated by graphviz version 12.1.2 (20240928.0832)
 -->
<!-- Title: marts.customer_payments_by_invoice Pages: 1 -->
<svg width="516pt" height="475pt"
 viewBox="0.00 0.00 516.32 474.80" xmlns="http://www.w3.org/2000/svg" xmlns:xlink="http://www.w3.org/1999/xlink">
<g id="graph0" class="graph" transform="scale(1 1) rotate(0) translate(4 470.8)">
<title>marts.customer_payments_by_invoice</title>
<polygon fill="white" stroke="none" points="-4,4 -4,-470.8 512.32,-470.8 512.32,4 -4,4"/>
<!-- marts.customer_payments_by_invoice -->
<g id="node1" class="node">
<title>marts.customer_payments_by_invoice</title>
<polygon fill="#efefef" stroke="none" points="46.2,-385 46.2,-420.6 462.12,-420.6 462.12,-385 46.2,-385"/>
<polygon fill="none" stroke="black" points="46.2,-385 46.2,-420.6 462.12,-420.6 462.12,-385 46.2,-385"/>
<text text-anchor="start" x="53.2" y="-398.4" font-family="Arial Bold" font-size="18.00">marts.customer_payments_by_invoice</text>
<text text-anchor="start" x="330.64" y="-398.4" font-family="Arial" font-size="14.00">    </text>
<text text-anchor="start" x="361.75" y="-398.4" font-family="Arial" font-size="14.00" fill="#666666">[BASE TABLE]</text>
<polygon fill="none" stroke="black" points="46.2,-354.2 46.2,-385 462.12,-385 462.12,-354.2 46.2,-354.2"/>
<text text-anchor="start" x="53.2" y="-366.4" font-family="Arial" font-size="14.00">order_id </text>
<text text-anchor="start" x="108.45" y="-366.4" font-family="Arial" font-size="14.00" fill="#666666">[integer]</text>
<polygon fill="none" stroke="black" points="46.2,-323.4 46.2,-354.2 462.12,-354.2 462.12,-323.4 46.2,-323.4"/>
<text text-anchor="start" x="53.2" y="-335.6" font-family="Arial" font-size="14.00">invoice_id </text>
<text text-anchor="start" x="119.35" y="-335.6" font-family="Arial" font-size="14.00" fill="#666666">[integer]</text>
<polygon fill="none" stroke="black" points="46.2,-292.6 46.2,-323.4 462.12,-323.4 462.12,-292.6 46.2,-292.6"/>
<text text-anchor="start" x="53.2" y="-304.8" font-family="Arial" font-size="14.00">store_id </text>
<text text-anchor="start" x="106.9" y="-304.8" font-family="Arial" font-size="14.00" fill="#666666">[integer]</text>
<polygon fill="none" stroke="black" points="46.2,-261.8 46.2,-292.6 462.12,-292.6 462.12,-261.8 46.2,-261.8"/>
<text text-anchor="start" x="53.2" y="-274" font-family="Arial" font-size="14.00">customer_id </text>
<text text-anchor="start" x="133.34" y="-274" font-family="Arial" font-size="14.00" fill="#666666">[integer]</text>
<polygon fill="none" stroke="black" points="46.2,-231 46.2,-261.8 462.12,-261.8 462.12,-231 46.2,-231"/>
<text text-anchor="start" x="53.2" y="-243.2" font-family="Arial" font-size="14.00">invoice_total_amount </text>
<text text-anchor="start" x="189.4" y="-243.2" font-family="Arial" font-size="14.00" fill="#666666">[numeric(10,2)]</text>
<polygon fill="none" stroke="black" points="46.2,-200.2 46.2,-231 462.12,-231 462.12,-200.2 46.2,-200.2"/>
<text text-anchor="start" x="53.2" y="-212.4" font-family="Arial" font-size="14.00">invoice_created_at </text>
<text text-anchor="start" x="174.61" y="-212.4" font-family="Arial" font-size="14.00" fill="#666666">[timestamp without time zone]</text>
<polygon fill="none" stroke="black" points="46.2,-169.4 46.2,-200.2 462.12,-200.2 462.12,-169.4 46.2,-169.4"/>
<text text-anchor="start" x="53.2" y="-181.6" font-family="Arial" font-size="14.00">invoice_modified_at </text>
<text text-anchor="start" x="180.83" y="-181.6" font-family="Arial" font-size="14.00" fill="#666666">[timestamp without time zone]</text>
<polygon fill="none" stroke="black" points="46.2,-138.6 46.2,-169.4 462.12,-169.4 462.12,-138.6 46.2,-138.6"/>
<text text-anchor="start" x="53.2" y="-150.8" font-family="Arial" font-size="14.00">order_created_at </text>
<text text-anchor="start" x="163.72" y="-150.8" font-family="Arial" font-size="14.00" fill="#666666">[timestamp without time zone]</text>
<polygon fill="none" stroke="black" points="46.2,-107.8 46.2,-138.6 462.12,-138.6 462.12,-107.8 46.2,-107.8"/>
<text text-anchor="start" x="53.2" y="-120" font-family="Arial" font-size="14.00">order_modified_at </text>
<text text-anchor="start" x="169.94" y="-120" font-family="Arial" font-size="14.00" fill="#666666">[timestamp without time zone]</text>
<polygon fill="none" stroke="black" points="46.2,-77 46.2,-107.8 462.12,-107.8 462.12,-77 46.2,-77"/>
<text text-anchor="start" x="53.2" y="-89.2" font-family="Arial" font-size="14.00">invoice_paid_amount </text>
<text text-anchor="start" x="189.41" y="-89.2" font-family="Arial" font-size="14.00" fill="#666666">[numeric]</text>
<polygon fill="none" stroke="black" points="46.2,-46.2 46.2,-77 462.12,-77 462.12,-46.2 46.2,-46.2"/>
<text text-anchor="start" x="53.2" y="-58.4" font-family="Arial" font-size="14.00">is_invoice_closed </text>
<text text-anchor="start" x="166.82" y="-58.4" font-family="Arial" font-size="14.00" fill="#666666">[integer]</text>
<polygon fill="none" stroke="black" stroke-width="3" points="44.7,-44.7 44.7,-422.1 463.62,-422.1 463.62,-44.7 44.7,-44.7"/>
</g>
</g>
</svg>
