<?xml version="1.0" encoding="UTF-8" standalone="no"?>
<!DOCTYPE svg PUBLIC "-//W3C//DTD SVG 1.1//EN"
 "http://www.w3.org/Graphics/SVG/1.1/DTD/svg11.dtd">
<!-- Generated by graphviz version 12.1.2 (20240928.0832)
 -->
<!-- Title: marts.customer_integration_history_scd2 Pages: 1 -->
<svg width="537pt" height="321pt"
 viewBox="0.00 0.00 537.33 320.80" xmlns="http://www.w3.org/2000/svg" xmlns:xlink="http://www.w3.org/1999/xlink">
<g id="graph0" class="graph" transform="scale(1 1) rotate(0) translate(4 316.8)">
<title>marts.customer_integration_history_scd2</title>
<polygon fill="white" stroke="none" points="-4,4 -4,-316.8 533.33,-316.8 533.33,4 -4,4"/>
<!-- marts.customer_integration_history_scd2 -->
<g id="node1" class="node">
<title>marts.customer_integration_history_scd2</title>
<polygon fill="#efefef" stroke="none" points="46.2,-231 46.2,-266.6 483.13,-266.6 483.13,-231 46.2,-231"/>
<polygon fill="none" stroke="black" points="46.2,-231 46.2,-266.6 483.13,-266.6 483.13,-231 46.2,-231"/>
<text text-anchor="start" x="53.2" y="-244.4" font-family="Arial Bold" font-size="18.00">marts.customer_integration_history_scd2</text>
<text text-anchor="start" x="351.64" y="-244.4" font-family="Arial" font-size="14.00">    </text>
<text text-anchor="start" x="382.76" y="-244.4" font-family="Arial" font-size="14.00" fill="#666666">[BASE TABLE]</text>
<polygon fill="none" stroke="black" points="46.2,-200.2 46.2,-231 483.13,-231 483.13,-200.2 46.2,-200.2"/>
<text text-anchor="start" x="53.2" y="-212.4" font-family="Arial" font-size="14.00">customer_id </text>
<text text-anchor="start" x="133.34" y="-212.4" font-family="Arial" font-size="14.00" fill="#666666">[integer]</text>
<polygon fill="none" stroke="black" points="46.2,-169.4 46.2,-200.2 483.13,-200.2 483.13,-169.4 46.2,-169.4"/>
<text text-anchor="start" x="53.2" y="-181.6" font-family="Arial" font-size="14.00">integration_type </text>
<text text-anchor="start" x="156.72" y="-181.6" font-family="Arial" font-size="14.00" fill="#666666">[text]</text>
<polygon fill="none" stroke="black" points="46.2,-138.6 46.2,-169.4 483.13,-169.4 483.13,-138.6 46.2,-138.6"/>
<text text-anchor="start" x="53.2" y="-150.8" font-family="Arial" font-size="14.00">is_active </text>
<text text-anchor="start" x="111.56" y="-150.8" font-family="Arial" font-size="14.00" fill="#666666">[integer]</text>
<polygon fill="none" stroke="black" points="46.2,-107.8 46.2,-138.6 483.13,-138.6 483.13,-107.8 46.2,-107.8"/>
<text text-anchor="start" x="53.2" y="-120" font-family="Arial" font-size="14.00">valid_from </text>
<text text-anchor="start" x="121.67" y="-120" font-family="Arial" font-size="14.00" fill="#666666">[timestamp without time zone]</text>
<polygon fill="none" stroke="black" points="46.2,-77 46.2,-107.8 483.13,-107.8 483.13,-77 46.2,-77"/>
<text text-anchor="start" x="53.2" y="-89.2" font-family="Arial" font-size="14.00">valid_to </text>
<text text-anchor="start" x="105.34" y="-89.2" font-family="Arial" font-size="14.00" fill="#666666">[timestamp without time zone]</text>
<polygon fill="none" stroke="black" points="46.2,-46.2 46.2,-77 483.13,-77 483.13,-46.2 46.2,-46.2"/>
<text text-anchor="start" x="53.2" y="-58.4" font-family="Arial" font-size="14.00">is_current_integration_record </text>
<text text-anchor="start" x="239.19" y="-58.4" font-family="Arial" font-size="14.00" fill="#666666">[integer]</text>
<polygon fill="none" stroke="black" stroke-width="3" points="44.7,-44.7 44.7,-268.1 484.63,-268.1 484.63,-44.7 44.7,-44.7"/>
</g>
</g>
</svg>
