<?xml version="1.0" encoding="UTF-8" standalone="no"?>
<!DOCTYPE svg PUBLIC "-//W3C//DTD SVG 1.1//EN"
 "http://www.w3.org/Graphics/SVG/1.1/DTD/svg11.dtd">
<!-- Generated by graphviz version 12.1.2 (20240928.0832)
 -->
<!-- Title: marts.outstanding_invoices Pages: 1 -->
<svg width="441pt" height="382pt"
 viewBox="0.00 0.00 441.23 382.40" xmlns="http://www.w3.org/2000/svg" xmlns:xlink="http://www.w3.org/1999/xlink">
<g id="graph0" class="graph" transform="scale(1 1) rotate(0) translate(4 378.4)">
<title>marts.outstanding_invoices</title>
<polygon fill="white" stroke="none" points="-4,4 -4,-378.4 437.23,-378.4 437.23,4 -4,4"/>
<!-- marts.outstanding_invoices -->
<g id="node1" class="node">
<title>marts.outstanding_invoices</title>
<polygon fill="#efefef" stroke="none" points="46.2,-292.6 46.2,-328.2 387.03,-328.2 387.03,-292.6 46.2,-292.6"/>
<polygon fill="none" stroke="black" points="46.2,-292.6 46.2,-328.2 387.03,-328.2 387.03,-292.6 46.2,-292.6"/>
<text text-anchor="start" x="55.63" y="-306" font-family="Arial Bold" font-size="18.00">marts.outstanding_invoices</text>
<text text-anchor="start" x="253.1" y="-306" font-family="Arial" font-size="14.00">    </text>
<text text-anchor="start" x="284.22" y="-306" font-family="Arial" font-size="14.00" fill="#666666">[BASE TABLE]</text>
<polygon fill="none" stroke="black" points="46.2,-261.8 46.2,-292.6 387.03,-292.6 387.03,-261.8 46.2,-261.8"/>
<text text-anchor="start" x="53.2" y="-274" font-family="Arial" font-size="14.00">invoice_id </text>
<text text-anchor="start" x="119.35" y="-274" font-family="Arial" font-size="14.00" fill="#666666">[integer]</text>
<polygon fill="none" stroke="black" points="46.2,-231 46.2,-261.8 387.03,-261.8 387.03,-231 46.2,-231"/>
<text text-anchor="start" x="53.2" y="-243.2" font-family="Arial" font-size="14.00">invoice_remaining_balance </text>
<text text-anchor="start" x="226.76" y="-243.2" font-family="Arial" font-size="14.00" fill="#666666">[numeric]</text>
<polygon fill="none" stroke="black" points="46.2,-200.2 46.2,-231 387.03,-231 387.03,-200.2 46.2,-200.2"/>
<text text-anchor="start" x="53.2" y="-212.4" font-family="Arial" font-size="14.00">customer_name </text>
<text text-anchor="start" x="157.47" y="-212.4" font-family="Arial" font-size="14.00" fill="#666666">[varchar]</text>
<polygon fill="none" stroke="black" points="46.2,-169.4 46.2,-200.2 387.03,-200.2 387.03,-169.4 46.2,-169.4"/>
<text text-anchor="start" x="53.2" y="-181.6" font-family="Arial" font-size="14.00">customer_email </text>
<text text-anchor="start" x="155.9" y="-181.6" font-family="Arial" font-size="14.00" fill="#666666">[varchar]</text>
<polygon fill="none" stroke="black" points="46.2,-138.6 46.2,-169.4 387.03,-169.4 387.03,-138.6 46.2,-138.6"/>
<text text-anchor="start" x="53.2" y="-150.8" font-family="Arial" font-size="14.00">invoice_total_amount </text>
<text text-anchor="start" x="189.4" y="-150.8" font-family="Arial" font-size="14.00" fill="#666666">[numeric]</text>
<polygon fill="none" stroke="black" points="46.2,-107.8 46.2,-138.6 387.03,-138.6 387.03,-107.8 46.2,-107.8"/>
<text text-anchor="start" x="53.2" y="-120" font-family="Arial" font-size="14.00">invoice_paid_amount </text>
<text text-anchor="start" x="189.41" y="-120" font-family="Arial" font-size="14.00" fill="#666666">[numeric]</text>
<polygon fill="none" stroke="black" points="46.2,-77 46.2,-107.8 387.03,-107.8 387.03,-77 46.2,-77"/>
<text text-anchor="start" x="53.2" y="-89.2" font-family="Arial" font-size="14.00">invoice_created_at </text>
<text text-anchor="start" x="174.61" y="-89.2" font-family="Arial" font-size="14.00" fill="#666666">[timestamp without time zone]</text>
<polygon fill="none" stroke="black" points="46.2,-46.2 46.2,-77 387.03,-77 387.03,-46.2 46.2,-46.2"/>
<text text-anchor="start" x="53.2" y="-58.4" font-family="Arial" font-size="14.00">latest_payment_made </text>
<text text-anchor="start" x="194.84" y="-58.4" font-family="Arial" font-size="14.00" fill="#666666">[timestamp without time zone]</text>
<polygon fill="none" stroke="black" stroke-width="3" points="44.7,-44.7 44.7,-329.7 388.53,-329.7 388.53,-44.7 44.7,-44.7"/>
</g>
</g>
</svg>
