<?xml version="1.0" encoding="UTF-8" standalone="no"?>
<!DOCTYPE svg PUBLIC "-//W3C//DTD SVG 1.1//EN"
 "http://www.w3.org/Graphics/SVG/1.1/DTD/svg11.dtd">
<!-- Generated by graphviz version 12.1.2 (20240928.0832)
 -->
<!-- Title: marts.most_popular_products_agg Pages: 1 -->
<svg width="488pt" height="228pt"
 viewBox="0.00 0.00 488.35 228.40" xmlns="http://www.w3.org/2000/svg" xmlns:xlink="http://www.w3.org/1999/xlink">
<g id="graph0" class="graph" transform="scale(1 1) rotate(0) translate(4 224.4)">
<title>marts.most_popular_products_agg</title>
<polygon fill="white" stroke="none" points="-4,4 -4,-224.4 484.35,-224.4 484.35,4 -4,4"/>
<!-- marts.most_popular_products_agg -->
<g id="node1" class="node">
<title>marts.most_popular_products_agg</title>
<polygon fill="#efefef" stroke="none" points="46.2,-138.6 46.2,-174.2 434.15,-174.2 434.15,-138.6 46.2,-138.6"/>
<polygon fill="none" stroke="black" points="46.2,-138.6 46.2,-174.2 434.15,-174.2 434.15,-138.6 46.2,-138.6"/>
<text text-anchor="start" x="53.2" y="-152" font-family="Arial Bold" font-size="18.00">marts.most_popular_products_agg</text>
<text text-anchor="start" x="302.66" y="-152" font-family="Arial" font-size="14.00">    </text>
<text text-anchor="start" x="333.78" y="-152" font-family="Arial" font-size="14.00" fill="#666666">[BASE TABLE]</text>
<polygon fill="none" stroke="black" points="46.2,-107.8 46.2,-138.6 434.15,-138.6 434.15,-107.8 46.2,-107.8"/>
<text text-anchor="start" x="53.2" y="-120" font-family="Arial" font-size="14.00">product_name </text>
<text text-anchor="start" x="146.59" y="-120" font-family="Arial" font-size="14.00" fill="#666666">[varchar(100)]</text>
<polygon fill="none" stroke="black" points="46.2,-77 46.2,-107.8 434.15,-107.8 434.15,-77 46.2,-77"/>
<text text-anchor="start" x="53.2" y="-89.2" font-family="Arial" font-size="14.00">product_category_name </text>
<text text-anchor="start" x="208.07" y="-89.2" font-family="Arial" font-size="14.00" fill="#666666">[varchar(100)]</text>
<polygon fill="none" stroke="black" points="46.2,-46.2 46.2,-77 434.15,-77 434.15,-46.2 46.2,-46.2"/>
<text text-anchor="start" x="53.2" y="-58.4" font-family="Arial" font-size="14.00">units_sold </text>
<text text-anchor="start" x="120.13" y="-58.4" font-family="Arial" font-size="14.00" fill="#666666">[bigint]</text>
<polygon fill="none" stroke="black" stroke-width="3" points="44.7,-44.7 44.7,-175.7 435.65,-175.7 435.65,-44.7 44.7,-44.7"/>
</g>
</g>
</svg>
