<?xml version="1.0" encoding="UTF-8" standalone="no"?>
<!DOCTYPE svg PUBLIC "-//W3C//DTD SVG 1.1//EN"
 "http://www.w3.org/Graphics/SVG/1.1/DTD/svg11.dtd">
<!-- Generated by graphviz version 12.1.2 (20240928.0832)
 -->
<!-- Title: source.order_detail Pages: 1 -->
<svg width="1144pt" height="756pt"
 viewBox="0.00 0.00 1144.09 756.00" xmlns="http://www.w3.org/2000/svg" xmlns:xlink="http://www.w3.org/1999/xlink">
<g id="graph0" class="graph" transform="scale(1 1) rotate(0) translate(4 752)">
<title>source.order_detail</title>
<polygon fill="white" stroke="none" points="-4,4 -4,-752 1140.09,-752 1140.09,4 -4,4"/>
<!-- source.order_detail -->
<g id="node1" class="node">
<title>source.order_detail</title>
<polygon fill="#efefef" stroke="none" points="422.46,-666.2 422.46,-701.8 699.39,-701.8 699.39,-666.2 422.46,-666.2"/>
<polygon fill="none" stroke="black" points="422.46,-666.2 422.46,-701.8 699.39,-701.8 699.39,-666.2 422.46,-666.2"/>
<text text-anchor="start" x="429.46" y="-679.6" font-family="Arial Bold" font-size="18.00">source.order_detail</text>
<text text-anchor="start" x="567.9" y="-679.6" font-family="Arial" font-size="14.00">    </text>
<text text-anchor="start" x="599.02" y="-679.6" font-family="Arial" font-size="14.00" fill="#666666">[BASE TABLE]</text>
<polygon fill="none" stroke="black" points="422.46,-635.4 422.46,-666.2 699.39,-666.2 699.39,-635.4 422.46,-635.4"/>
<text text-anchor="start" x="429.46" y="-647.6" font-family="Arial" font-size="14.00">id </text>
<text text-anchor="start" x="444.25" y="-647.6" font-family="Arial" font-size="14.00" fill="#666666">[integer]</text>
<polygon fill="none" stroke="black" points="422.46,-604.6 422.46,-635.4 699.39,-635.4 699.39,-604.6 422.46,-604.6"/>
<text text-anchor="start" x="429.46" y="-616.8" font-family="Arial" font-size="14.00">order_id </text>
<text text-anchor="start" x="484.72" y="-616.8" font-family="Arial" font-size="14.00" fill="#666666">[integer]</text>
<polygon fill="none" stroke="black" points="422.46,-573.8 422.46,-604.6 699.39,-604.6 699.39,-573.8 422.46,-573.8"/>
<text text-anchor="start" x="429.46" y="-586" font-family="Arial" font-size="14.00">product_id </text>
<text text-anchor="start" x="498.73" y="-586" font-family="Arial" font-size="14.00" fill="#666666">[integer]</text>
<polygon fill="none" stroke="black" points="422.46,-543 422.46,-573.8 699.39,-573.8 699.39,-543 422.46,-543"/>
<text text-anchor="start" x="429.46" y="-555.2" font-family="Arial" font-size="14.00">product_price_id </text>
<text text-anchor="start" x="536.86" y="-555.2" font-family="Arial" font-size="14.00" fill="#666666">[integer]</text>
<polygon fill="none" stroke="black" points="422.46,-512.2 422.46,-543 699.39,-543 699.39,-512.2 422.46,-512.2"/>
<text text-anchor="start" x="429.46" y="-524.4" font-family="Arial" font-size="14.00">quantity </text>
<text text-anchor="start" x="482.39" y="-524.4" font-family="Arial" font-size="14.00" fill="#666666">[integer]</text>
<polygon fill="none" stroke="black" points="422.46,-481.4 422.46,-512.2 699.39,-512.2 699.39,-481.4 422.46,-481.4"/>
<text text-anchor="start" x="429.46" y="-493.6" font-family="Arial" font-size="14.00">created_at </text>
<text text-anchor="start" x="499.51" y="-493.6" font-family="Arial" font-size="14.00" fill="#666666">[timestamp without time zone]</text>
<polygon fill="none" stroke="black" points="422.46,-450.6 422.46,-481.4 699.39,-481.4 699.39,-450.6 422.46,-450.6"/>
<text text-anchor="start" x="429.46" y="-462.8" font-family="Arial" font-size="14.00">modified_at </text>
<text text-anchor="start" x="505.73" y="-462.8" font-family="Arial" font-size="14.00" fill="#666666">[timestamp without time zone]</text>
<polygon fill="none" stroke="black" stroke-width="3" points="420.96,-449.1 420.96,-703.3 700.89,-703.3 700.89,-449.1 420.96,-449.1"/>
</g>
<!-- source.order -->
<g id="node2" class="node">
<title>source.order</title>
<polygon fill="#efefef" stroke="none" points="43.2,-243.4 43.2,-279 318.65,-279 318.65,-243.4 43.2,-243.4"/>
<polygon fill="none" stroke="black" points="43.2,-243.4 43.2,-279 318.65,-279 318.65,-243.4 43.2,-243.4"/>
<text text-anchor="start" x="73.95" y="-256.8" font-family="Arial Bold" font-size="18.00">source.order</text>
<text text-anchor="start" x="163.41" y="-256.8" font-family="Arial" font-size="14.00">    </text>
<text text-anchor="start" x="194.53" y="-256.8" font-family="Arial" font-size="14.00" fill="#666666">[BASE TABLE]</text>
<polygon fill="none" stroke="black" points="43.2,-212.6 43.2,-243.4 318.65,-243.4 318.65,-212.6 43.2,-212.6"/>
<text text-anchor="start" x="50.2" y="-224.8" font-family="Arial" font-size="14.00">id </text>
<text text-anchor="start" x="64.99" y="-224.8" font-family="Arial" font-size="14.00" fill="#666666">[integer]</text>
<polygon fill="none" stroke="black" points="43.2,-181.8 43.2,-212.6 318.65,-212.6 318.65,-181.8 43.2,-181.8"/>
<text text-anchor="start" x="50.2" y="-194" font-family="Arial" font-size="14.00">customer_id </text>
<text text-anchor="start" x="130.34" y="-194" font-family="Arial" font-size="14.00" fill="#666666">[integer]</text>
<polygon fill="none" stroke="black" points="43.2,-151 43.2,-181.8 318.65,-181.8 318.65,-151 43.2,-151"/>
<text text-anchor="start" x="50.2" y="-163.2" font-family="Arial" font-size="14.00">store_id </text>
<text text-anchor="start" x="103.9" y="-163.2" font-family="Arial" font-size="14.00" fill="#666666">[integer]</text>
<polygon fill="none" stroke="black" points="43.2,-120.2 43.2,-151 318.65,-151 318.65,-120.2 43.2,-120.2"/>
<text text-anchor="start" x="50.2" y="-132.4" font-family="Arial" font-size="14.00">created_at </text>
<text text-anchor="start" x="120.25" y="-132.4" font-family="Arial" font-size="14.00" fill="#666666">[timestamp without time zone]</text>
<polygon fill="none" stroke="black" points="43.2,-89.4 43.2,-120.2 318.65,-120.2 318.65,-89.4 43.2,-89.4"/>
<text text-anchor="start" x="50.2" y="-101.6" font-family="Arial" font-size="14.00">modified_at </text>
<text text-anchor="start" x="126.47" y="-101.6" font-family="Arial" font-size="14.00" fill="#666666">[timestamp without time zone]</text>
</g>
<!-- source.order_detail&#45;&gt;source.order -->
<g id="edge1" class="edge">
<title>source.order_detail:order_id&#45;&gt;source.order:id</title>
<path fill="none" stroke="black" d="M411.22,-618.08C337.59,-588.5 405.96,-228 319.65,-228"/>
<polygon fill="black" stroke="black" points="411.31,-618.09 420.3,-624.36 416.55,-619.08 420.81,-619.88 420.81,-619.88 420.81,-619.88 416.55,-619.08 421.97,-615.52 411.31,-618.09"/>
<text text-anchor="start" x="148.41" y="-630" font-family="Arial" font-size="10.00">FOREIGN KEY (order_id) REFERENCES source.&quot;order&quot;(id)</text>
</g>
<!-- source.product -->
<g id="node3" class="node">
<title>source.product</title>
<polygon fill="#efefef" stroke="none" points="423.2,-243.4 423.2,-279 698.65,-279 698.65,-243.4 423.2,-243.4"/>
<polygon fill="none" stroke="black" points="423.2,-243.4 423.2,-279 698.65,-279 698.65,-243.4 423.2,-243.4"/>
<text text-anchor="start" x="445.45" y="-256.8" font-family="Arial Bold" font-size="18.00">source.product</text>
<text text-anchor="start" x="551.91" y="-256.8" font-family="Arial" font-size="14.00">    </text>
<text text-anchor="start" x="583.03" y="-256.8" font-family="Arial" font-size="14.00" fill="#666666">[BASE TABLE]</text>
<polygon fill="none" stroke="black" points="423.2,-212.6 423.2,-243.4 698.65,-243.4 698.65,-212.6 423.2,-212.6"/>
<text text-anchor="start" x="430.2" y="-224.8" font-family="Arial" font-size="14.00">id </text>
<text text-anchor="start" x="444.99" y="-224.8" font-family="Arial" font-size="14.00" fill="#666666">[integer]</text>
<polygon fill="none" stroke="black" points="423.2,-181.8 423.2,-212.6 698.65,-212.6 698.65,-181.8 423.2,-181.8"/>
<text text-anchor="start" x="430.2" y="-194" font-family="Arial" font-size="14.00">product_name </text>
<text text-anchor="start" x="523.59" y="-194" font-family="Arial" font-size="14.00" fill="#666666">[varchar(100)]</text>
<polygon fill="none" stroke="black" points="423.2,-151 423.2,-181.8 698.65,-181.8 698.65,-151 423.2,-151"/>
<text text-anchor="start" x="430.2" y="-163.2" font-family="Arial" font-size="14.00">product_category_id </text>
<text text-anchor="start" x="560.95" y="-163.2" font-family="Arial" font-size="14.00" fill="#666666">[integer]</text>
<polygon fill="none" stroke="black" points="423.2,-120.2 423.2,-151 698.65,-151 698.65,-120.2 423.2,-120.2"/>
<text text-anchor="start" x="430.2" y="-132.4" font-family="Arial" font-size="14.00">created_at </text>
<text text-anchor="start" x="500.25" y="-132.4" font-family="Arial" font-size="14.00" fill="#666666">[timestamp without time zone]</text>
<polygon fill="none" stroke="black" points="423.2,-89.4 423.2,-120.2 698.65,-120.2 698.65,-89.4 423.2,-89.4"/>
<text text-anchor="start" x="430.2" y="-101.6" font-family="Arial" font-size="14.00">modified_at </text>
<text text-anchor="start" x="506.47" y="-101.6" font-family="Arial" font-size="14.00" fill="#666666">[timestamp without time zone]</text>
</g>
<!-- source.order_detail&#45;&gt;source.product -->
<g id="edge2" class="edge">
<title>source.order_detail:product_id&#45;&gt;source.product:id</title>
<path fill="none" stroke="black" d="M708.85,-583.23C740.18,-536.27 736.73,-228 699.65,-228"/>
<polygon fill="black" stroke="black" points="708.83,-583.24 698.07,-585.33 704.48,-586.32 700.94,-588.81 700.94,-588.81 700.94,-588.81 704.48,-586.32 703.26,-592.68 708.83,-583.24"/>
<text text-anchor="start" x="707.39" y="-599.2" font-family="Arial" font-size="10.00">FOREIGN KEY (product_id) REFERENCES source.product(id)</text>
</g>
<!-- source.product_price -->
<g id="node4" class="node">
<title>source.product_price</title>
<polygon fill="#efefef" stroke="none" points="802.96,-289.6 802.96,-325.2 1092.89,-325.2 1092.89,-289.6 802.96,-289.6"/>
<polygon fill="none" stroke="black" points="802.96,-289.6 802.96,-325.2 1092.89,-325.2 1092.89,-289.6 802.96,-289.6"/>
<text text-anchor="start" x="809.96" y="-303" font-family="Arial Bold" font-size="18.00">source.product_price</text>
<text text-anchor="start" x="961.4" y="-303" font-family="Arial" font-size="14.00">    </text>
<text text-anchor="start" x="992.52" y="-303" font-family="Arial" font-size="14.00" fill="#666666">[BASE TABLE]</text>
<polygon fill="none" stroke="black" points="802.96,-258.8 802.96,-289.6 1092.89,-289.6 1092.89,-258.8 802.96,-258.8"/>
<text text-anchor="start" x="809.96" y="-271" font-family="Arial" font-size="14.00">id </text>
<text text-anchor="start" x="824.75" y="-271" font-family="Arial" font-size="14.00" fill="#666666">[integer]</text>
<polygon fill="none" stroke="black" points="802.96,-228 802.96,-258.8 1092.89,-258.8 1092.89,-228 802.96,-228"/>
<text text-anchor="start" x="809.96" y="-240.2" font-family="Arial" font-size="14.00">product_id </text>
<text text-anchor="start" x="879.23" y="-240.2" font-family="Arial" font-size="14.00" fill="#666666">[integer]</text>
<polygon fill="none" stroke="black" points="802.96,-197.2 802.96,-228 1092.89,-228 1092.89,-197.2 802.96,-197.2"/>
<text text-anchor="start" x="809.96" y="-209.4" font-family="Arial" font-size="14.00">price </text>
<text text-anchor="start" x="844.2" y="-209.4" font-family="Arial" font-size="14.00" fill="#666666">[numeric(10,2)]</text>
<polygon fill="none" stroke="black" points="802.96,-166.4 802.96,-197.2 1092.89,-197.2 1092.89,-166.4 802.96,-166.4"/>
<text text-anchor="start" x="809.96" y="-178.6" font-family="Arial" font-size="14.00">is_active </text>
<text text-anchor="start" x="868.32" y="-178.6" font-family="Arial" font-size="14.00" fill="#666666">[boolean]</text>
<polygon fill="none" stroke="black" points="802.96,-135.6 802.96,-166.4 1092.89,-166.4 1092.89,-135.6 802.96,-135.6"/>
<text text-anchor="start" x="809.96" y="-147.8" font-family="Arial" font-size="14.00">valid_from </text>
<text text-anchor="start" x="878.43" y="-147.8" font-family="Arial" font-size="14.00" fill="#666666">[timestamp without time zone]</text>
<polygon fill="none" stroke="black" points="802.96,-104.8 802.96,-135.6 1092.89,-135.6 1092.89,-104.8 802.96,-104.8"/>
<text text-anchor="start" x="809.96" y="-117" font-family="Arial" font-size="14.00">valid_to </text>
<text text-anchor="start" x="862.11" y="-117" font-family="Arial" font-size="14.00" fill="#666666">[timestamp without time zone]</text>
<polygon fill="none" stroke="black" points="802.96,-74 802.96,-104.8 1092.89,-104.8 1092.89,-74 802.96,-74"/>
<text text-anchor="start" x="809.96" y="-86.2" font-family="Arial" font-size="14.00">created_at </text>
<text text-anchor="start" x="880.01" y="-86.2" font-family="Arial" font-size="14.00" fill="#666666">[timestamp without time zone]</text>
<polygon fill="none" stroke="black" points="802.96,-43.2 802.96,-74 1092.89,-74 1092.89,-43.2 802.96,-43.2"/>
<text text-anchor="start" x="809.96" y="-55.4" font-family="Arial" font-size="14.00">modified_at </text>
<text text-anchor="start" x="886.23" y="-55.4" font-family="Arial" font-size="14.00" fill="#666666">[timestamp without time zone]</text>
</g>
<!-- source.order_detail&#45;&gt;source.product_price -->
<g id="edge3" class="edge">
<title>source.order_detail:product_price_id&#45;&gt;source.product_price:id</title>
<path fill="none" stroke="black" d="M710.53,-555.94C764.19,-528.17 738.56,-274.2 801.96,-274.2"/>
<polygon fill="black" stroke="black" points="710.43,-555.97 699.66,-553.95 705.25,-557.22 701.04,-558.24 701.04,-558.24 701.04,-558.24 705.25,-557.22 701.77,-562.69 710.43,-555.97"/>
<text text-anchor="start" x="707.39" y="-568.4" font-family="Arial" font-size="10.00">FOREIGN KEY (product_price_id) REFERENCES source.product_price(id)</text>
</g>
</g>
</svg>
