<?xml version="1.0" encoding="UTF-8" standalone="no"?>
<!DOCTYPE svg PUBLIC "-//W3C//DTD SVG 1.1//EN"
 "http://www.w3.org/Graphics/SVG/1.1/DTD/svg11.dtd">
<!-- Generated by graphviz version 12.1.2 (20240928.0832)
 -->
<!-- Title: source.product_category Pages: 1 -->
<svg width="732pt" height="571pt"
 viewBox="0.00 0.00 731.69 571.20" xmlns="http://www.w3.org/2000/svg" xmlns:xlink="http://www.w3.org/1999/xlink">
<g id="graph0" class="graph" transform="scale(1 1) rotate(0) translate(4 567.2)">
<title>source.product_category</title>
<polygon fill="white" stroke="none" points="-4,4 -4,-567.2 727.69,-567.2 727.69,4 -4,4"/>
<!-- source.product_category -->
<g id="node1" class="node">
<title>source.product_category</title>
<polygon fill="#efefef" stroke="none" points="46.2,-169.4 46.2,-205 362.11,-205 362.11,-169.4 46.2,-169.4"/>
<polygon fill="none" stroke="black" points="46.2,-169.4 46.2,-205 362.11,-205 362.11,-169.4 46.2,-169.4"/>
<text text-anchor="start" x="53.2" y="-182.8" font-family="Arial Bold" font-size="18.00">source.product_category</text>
<text text-anchor="start" x="230.62" y="-182.8" font-family="Arial" font-size="14.00">    </text>
<text text-anchor="start" x="261.74" y="-182.8" font-family="Arial" font-size="14.00" fill="#666666">[BASE TABLE]</text>
<polygon fill="none" stroke="black" points="46.2,-138.6 46.2,-169.4 362.11,-169.4 362.11,-138.6 46.2,-138.6"/>
<text text-anchor="start" x="53.2" y="-150.8" font-family="Arial" font-size="14.00">id </text>
<text text-anchor="start" x="67.99" y="-150.8" font-family="Arial" font-size="14.00" fill="#666666">[integer]</text>
<polygon fill="none" stroke="black" points="46.2,-107.8 46.2,-138.6 362.11,-138.6 362.11,-107.8 46.2,-107.8"/>
<text text-anchor="start" x="53.2" y="-120" font-family="Arial" font-size="14.00">product_category_name </text>
<text text-anchor="start" x="208.07" y="-120" font-family="Arial" font-size="14.00" fill="#666666">[varchar(100)]</text>
<polygon fill="none" stroke="black" points="46.2,-77 46.2,-107.8 362.11,-107.8 362.11,-77 46.2,-77"/>
<text text-anchor="start" x="53.2" y="-89.2" font-family="Arial" font-size="14.00">created_at </text>
<text text-anchor="start" x="123.25" y="-89.2" font-family="Arial" font-size="14.00" fill="#666666">[timestamp without time zone]</text>
<polygon fill="none" stroke="black" points="46.2,-46.2 46.2,-77 362.11,-77 362.11,-46.2 46.2,-46.2"/>
<text text-anchor="start" x="53.2" y="-58.4" font-family="Arial" font-size="14.00">modified_at </text>
<text text-anchor="start" x="129.47" y="-58.4" font-family="Arial" font-size="14.00" fill="#666666">[timestamp without time zone]</text>
<polygon fill="none" stroke="black" stroke-width="3" points="44.7,-44.7 44.7,-206.5 363.61,-206.5 363.61,-44.7 44.7,-44.7"/>
</g>
<!-- source.product -->
<g id="node2" class="node">
<title>source.product</title>
<polygon fill="#efefef" stroke="none" points="66.43,-484.4 66.43,-520 341.88,-520 341.88,-484.4 66.43,-484.4"/>
<polygon fill="none" stroke="black" points="66.43,-484.4 66.43,-520 341.88,-520 341.88,-484.4 66.43,-484.4"/>
<text text-anchor="start" x="88.68" y="-497.8" font-family="Arial Bold" font-size="18.00">source.product</text>
<text text-anchor="start" x="195.14" y="-497.8" font-family="Arial" font-size="14.00">    </text>
<text text-anchor="start" x="226.26" y="-497.8" font-family="Arial" font-size="14.00" fill="#666666">[BASE TABLE]</text>
<polygon fill="none" stroke="black" points="66.43,-453.6 66.43,-484.4 341.88,-484.4 341.88,-453.6 66.43,-453.6"/>
<text text-anchor="start" x="73.43" y="-465.8" font-family="Arial" font-size="14.00">id </text>
<text text-anchor="start" x="88.22" y="-465.8" font-family="Arial" font-size="14.00" fill="#666666">[integer]</text>
<polygon fill="none" stroke="black" points="66.43,-422.8 66.43,-453.6 341.88,-453.6 341.88,-422.8 66.43,-422.8"/>
<text text-anchor="start" x="73.43" y="-435" font-family="Arial" font-size="14.00">product_name </text>
<text text-anchor="start" x="166.82" y="-435" font-family="Arial" font-size="14.00" fill="#666666">[varchar(100)]</text>
<polygon fill="none" stroke="black" points="66.43,-392 66.43,-422.8 341.88,-422.8 341.88,-392 66.43,-392"/>
<text text-anchor="start" x="73.43" y="-404.2" font-family="Arial" font-size="14.00">product_category_id </text>
<text text-anchor="start" x="204.18" y="-404.2" font-family="Arial" font-size="14.00" fill="#666666">[integer]</text>
<polygon fill="none" stroke="black" points="66.43,-361.2 66.43,-392 341.88,-392 341.88,-361.2 66.43,-361.2"/>
<text text-anchor="start" x="73.43" y="-373.4" font-family="Arial" font-size="14.00">created_at </text>
<text text-anchor="start" x="143.48" y="-373.4" font-family="Arial" font-size="14.00" fill="#666666">[timestamp without time zone]</text>
<polygon fill="none" stroke="black" points="66.43,-330.4 66.43,-361.2 341.88,-361.2 341.88,-330.4 66.43,-330.4"/>
<text text-anchor="start" x="73.43" y="-342.6" font-family="Arial" font-size="14.00">modified_at </text>
<text text-anchor="start" x="149.7" y="-342.6" font-family="Arial" font-size="14.00" fill="#666666">[timestamp without time zone]</text>
</g>
<!-- source.product&#45;&gt;source.product_category -->
<g id="edge1" class="edge">
<title>source.product:product_category_id&#45;&gt;source.product_category:id</title>
<path fill="none" stroke="black" d="M352.74,-404.73C401.54,-377.64 416.18,-154 363.11,-154"/>
<polygon fill="black" stroke="black" points="352.86,-404.69 342.03,-402.97 347.71,-406.09 343.53,-407.22 343.53,-407.22 343.53,-407.22 347.71,-406.09 344.39,-411.66 352.86,-404.69"/>
<text text-anchor="start" x="349.88" y="-417.4" font-family="Arial" font-size="10.00">FOREIGN KEY (product_category_id) REFERENCES source.product_category(id)</text>
</g>
</g>
</svg>
