<?xml version="1.0" encoding="UTF-8" standalone="no"?>
<!DOCTYPE svg PUBLIC "-//W3C//DTD SVG 1.1//EN"
 "http://www.w3.org/Graphics/SVG/1.1/DTD/svg11.dtd">
<!-- Generated by graphviz version 12.1.2 (20240928.0832)
 -->
<!-- Title: source.customer Pages: 1 -->
<svg width="639pt" height="787pt"
 viewBox="0.00 0.00 639.17 786.80" xmlns="http://www.w3.org/2000/svg" xmlns:xlink="http://www.w3.org/1999/xlink">
<g id="graph0" class="graph" transform="scale(1 1) rotate(0) translate(4 782.8)">
<title>source.customer</title>
<polygon fill="white" stroke="none" points="-4,4 -4,-782.8 635.17,-782.8 635.17,4 -4,4"/>
<!-- source.customer -->
<g id="node1" class="node">
<title>source.customer</title>
<polygon fill="#efefef" stroke="none" points="46.2,-385 46.2,-420.6 321.65,-420.6 321.65,-385 46.2,-385"/>
<polygon fill="none" stroke="black" points="46.2,-385 46.2,-420.6 321.65,-420.6 321.65,-385 46.2,-385"/>
<text text-anchor="start" x="62.95" y="-398.4" font-family="Arial Bold" font-size="18.00">source.customer</text>
<text text-anchor="start" x="180.41" y="-398.4" font-family="Arial" font-size="14.00">    </text>
<text text-anchor="start" x="211.53" y="-398.4" font-family="Arial" font-size="14.00" fill="#666666">[BASE TABLE]</text>
<polygon fill="none" stroke="black" points="46.2,-354.2 46.2,-385 321.65,-385 321.65,-354.2 46.2,-354.2"/>
<text text-anchor="start" x="53.2" y="-366.4" font-family="Arial" font-size="14.00">id </text>
<text text-anchor="start" x="67.99" y="-366.4" font-family="Arial" font-size="14.00" fill="#666666">[integer]</text>
<polygon fill="none" stroke="black" points="46.2,-323.4 46.2,-354.2 321.65,-354.2 321.65,-323.4 46.2,-323.4"/>
<text text-anchor="start" x="53.2" y="-335.6" font-family="Arial" font-size="14.00">customer_name </text>
<text text-anchor="start" x="157.47" y="-335.6" font-family="Arial" font-size="14.00" fill="#666666">[varchar(100)]</text>
<polygon fill="none" stroke="black" points="46.2,-292.6 46.2,-323.4 321.65,-323.4 321.65,-292.6 46.2,-292.6"/>
<text text-anchor="start" x="53.2" y="-304.8" font-family="Arial" font-size="14.00">customer_email </text>
<text text-anchor="start" x="155.9" y="-304.8" font-family="Arial" font-size="14.00" fill="#666666">[varchar(100)]</text>
<polygon fill="none" stroke="black" points="46.2,-261.8 46.2,-292.6 321.65,-292.6 321.65,-261.8 46.2,-261.8"/>
<text text-anchor="start" x="53.2" y="-274" font-family="Arial" font-size="14.00">address </text>
<text text-anchor="start" x="106.9" y="-274" font-family="Arial" font-size="14.00" fill="#666666">[varchar(100)]</text>
<polygon fill="none" stroke="black" points="46.2,-231 46.2,-261.8 321.65,-261.8 321.65,-231 46.2,-231"/>
<text text-anchor="start" x="53.2" y="-243.2" font-family="Arial" font-size="14.00">address_2 </text>
<text text-anchor="start" x="122.47" y="-243.2" font-family="Arial" font-size="14.00" fill="#666666">[varchar(100)]</text>
<polygon fill="none" stroke="black" points="46.2,-200.2 46.2,-231 321.65,-231 321.65,-200.2 46.2,-200.2"/>
<text text-anchor="start" x="53.2" y="-212.4" font-family="Arial" font-size="14.00">city </text>
<text text-anchor="start" x="78.09" y="-212.4" font-family="Arial" font-size="14.00" fill="#666666">[varchar(50)]</text>
<polygon fill="none" stroke="black" points="46.2,-169.4 46.2,-200.2 321.65,-200.2 321.65,-169.4 46.2,-169.4"/>
<text text-anchor="start" x="53.2" y="-181.6" font-family="Arial" font-size="14.00">zip_code </text>
<text text-anchor="start" x="113.13" y="-181.6" font-family="Arial" font-size="14.00" fill="#666666">[integer]</text>
<polygon fill="none" stroke="black" points="46.2,-138.6 46.2,-169.4 321.65,-169.4 321.65,-138.6 46.2,-138.6"/>
<text text-anchor="start" x="53.2" y="-150.8" font-family="Arial" font-size="14.00">state </text>
<text text-anchor="start" x="87.44" y="-150.8" font-family="Arial" font-size="14.00" fill="#666666">[varchar(3)]</text>
<polygon fill="none" stroke="black" points="46.2,-107.8 46.2,-138.6 321.65,-138.6 321.65,-107.8 46.2,-107.8"/>
<text text-anchor="start" x="53.2" y="-120" font-family="Arial" font-size="14.00">country </text>
<text text-anchor="start" x="103" y="-120" font-family="Arial" font-size="14.00" fill="#666666">[varchar(50)]</text>
<polygon fill="none" stroke="black" points="46.2,-77 46.2,-107.8 321.65,-107.8 321.65,-77 46.2,-77"/>
<text text-anchor="start" x="53.2" y="-89.2" font-family="Arial" font-size="14.00">created_at </text>
<text text-anchor="start" x="123.25" y="-89.2" font-family="Arial" font-size="14.00" fill="#666666">[timestamp without time zone]</text>
<polygon fill="none" stroke="black" points="46.2,-46.2 46.2,-77 321.65,-77 321.65,-46.2 46.2,-46.2"/>
<text text-anchor="start" x="53.2" y="-58.4" font-family="Arial" font-size="14.00">modified_at </text>
<text text-anchor="start" x="129.47" y="-58.4" font-family="Arial" font-size="14.00" fill="#666666">[timestamp without time zone]</text>
<polygon fill="none" stroke="black" stroke-width="3" points="44.7,-44.7 44.7,-422.1 323.15,-422.1 323.15,-44.7 44.7,-44.7"/>
</g>
<!-- source.order -->
<g id="node2" class="node">
<title>source.order</title>
<polygon fill="#efefef" stroke="none" points="46.2,-700 46.2,-735.6 321.65,-735.6 321.65,-700 46.2,-700"/>
<polygon fill="none" stroke="black" points="46.2,-700 46.2,-735.6 321.65,-735.6 321.65,-700 46.2,-700"/>
<text text-anchor="start" x="76.95" y="-713.4" font-family="Arial Bold" font-size="18.00">source.order</text>
<text text-anchor="start" x="166.41" y="-713.4" font-family="Arial" font-size="14.00">    </text>
<text text-anchor="start" x="197.53" y="-713.4" font-family="Arial" font-size="14.00" fill="#666666">[BASE TABLE]</text>
<polygon fill="none" stroke="black" points="46.2,-669.2 46.2,-700 321.65,-700 321.65,-669.2 46.2,-669.2"/>
<text text-anchor="start" x="53.2" y="-681.4" font-family="Arial" font-size="14.00">id </text>
<text text-anchor="start" x="67.99" y="-681.4" font-family="Arial" font-size="14.00" fill="#666666">[integer]</text>
<polygon fill="none" stroke="black" points="46.2,-638.4 46.2,-669.2 321.65,-669.2 321.65,-638.4 46.2,-638.4"/>
<text text-anchor="start" x="53.2" y="-650.6" font-family="Arial" font-size="14.00">customer_id </text>
<text text-anchor="start" x="133.34" y="-650.6" font-family="Arial" font-size="14.00" fill="#666666">[integer]</text>
<polygon fill="none" stroke="black" points="46.2,-607.6 46.2,-638.4 321.65,-638.4 321.65,-607.6 46.2,-607.6"/>
<text text-anchor="start" x="53.2" y="-619.8" font-family="Arial" font-size="14.00">store_id </text>
<text text-anchor="start" x="106.9" y="-619.8" font-family="Arial" font-size="14.00" fill="#666666">[integer]</text>
<polygon fill="none" stroke="black" points="46.2,-576.8 46.2,-607.6 321.65,-607.6 321.65,-576.8 46.2,-576.8"/>
<text text-anchor="start" x="53.2" y="-589" font-family="Arial" font-size="14.00">created_at </text>
<text text-anchor="start" x="123.25" y="-589" font-family="Arial" font-size="14.00" fill="#666666">[timestamp without time zone]</text>
<polygon fill="none" stroke="black" points="46.2,-546 46.2,-576.8 321.65,-576.8 321.65,-546 46.2,-546"/>
<text text-anchor="start" x="53.2" y="-558.2" font-family="Arial" font-size="14.00">modified_at </text>
<text text-anchor="start" x="129.47" y="-558.2" font-family="Arial" font-size="14.00" fill="#666666">[timestamp without time zone]</text>
</g>
<!-- source.order&#45;&gt;source.customer -->
<g id="edge1" class="edge">
<title>source.order:customer_id&#45;&gt;source.customer:id</title>
<path fill="none" stroke="black" d="M332.45,-651.34C385.62,-623.57 382.36,-369.6 322.65,-369.6"/>
<polygon fill="black" stroke="black" points="332.68,-651.29 321.88,-649.35 327.5,-652.58 323.3,-653.64 323.3,-653.64 323.3,-653.64 327.5,-652.58 324.07,-658.08 332.68,-651.29"/>
<text text-anchor="start" x="329.65" y="-663.8" font-family="Arial" font-size="10.00">FOREIGN KEY (customer_id) REFERENCES source.customer(id)</text>
</g>
</g>
</svg>
