<?xml version="1.0" encoding="UTF-8" standalone="no"?>
<!DOCTYPE svg PUBLIC "-//W3C//DTD SVG 1.1//EN"
 "http://www.w3.org/Graphics/SVG/1.1/DTD/svg11.dtd">
<!-- Generated by graphviz version 12.1.2 (20240928.0832)
 -->
<!-- Title: source.product_price Pages: 1 -->
<svg width="686pt" height="1068pt"
 viewBox="0.00 0.00 686.07 1068.00" xmlns="http://www.w3.org/2000/svg" xmlns:xlink="http://www.w3.org/1999/xlink">
<g id="graph0" class="graph" transform="scale(1 1) rotate(0) translate(4 1064)">
<title>source.product_price</title>
<polygon fill="white" stroke="none" points="-4,4 -4,-1064 682.07,-1064 682.07,4 -4,4"/>
<!-- source.product_price -->
<g id="node1" class="node">
<title>source.product_price</title>
<polygon fill="#efefef" stroke="none" points="46.2,-604.6 46.2,-640.2 336.12,-640.2 336.12,-604.6 46.2,-604.6"/>
<polygon fill="none" stroke="black" points="46.2,-604.6 46.2,-640.2 336.12,-640.2 336.12,-604.6 46.2,-604.6"/>
<text text-anchor="start" x="53.2" y="-618" font-family="Arial Bold" font-size="18.00">source.product_price</text>
<text text-anchor="start" x="204.64" y="-618" font-family="Arial" font-size="14.00">    </text>
<text text-anchor="start" x="235.75" y="-618" font-family="Arial" font-size="14.00" fill="#666666">[BASE TABLE]</text>
<polygon fill="none" stroke="black" points="46.2,-573.8 46.2,-604.6 336.12,-604.6 336.12,-573.8 46.2,-573.8"/>
<text text-anchor="start" x="53.2" y="-586" font-family="Arial" font-size="14.00">id </text>
<text text-anchor="start" x="67.99" y="-586" font-family="Arial" font-size="14.00" fill="#666666">[integer]</text>
<polygon fill="none" stroke="black" points="46.2,-543 46.2,-573.8 336.12,-573.8 336.12,-543 46.2,-543"/>
<text text-anchor="start" x="53.2" y="-555.2" font-family="Arial" font-size="14.00">product_id </text>
<text text-anchor="start" x="122.47" y="-555.2" font-family="Arial" font-size="14.00" fill="#666666">[integer]</text>
<polygon fill="none" stroke="black" points="46.2,-512.2 46.2,-543 336.12,-543 336.12,-512.2 46.2,-512.2"/>
<text text-anchor="start" x="53.2" y="-524.4" font-family="Arial" font-size="14.00">price </text>
<text text-anchor="start" x="87.43" y="-524.4" font-family="Arial" font-size="14.00" fill="#666666">[numeric(10,2)]</text>
<polygon fill="none" stroke="black" points="46.2,-481.4 46.2,-512.2 336.12,-512.2 336.12,-481.4 46.2,-481.4"/>
<text text-anchor="start" x="53.2" y="-493.6" font-family="Arial" font-size="14.00">is_active </text>
<text text-anchor="start" x="111.56" y="-493.6" font-family="Arial" font-size="14.00" fill="#666666">[boolean]</text>
<polygon fill="none" stroke="black" points="46.2,-450.6 46.2,-481.4 336.12,-481.4 336.12,-450.6 46.2,-450.6"/>
<text text-anchor="start" x="53.2" y="-462.8" font-family="Arial" font-size="14.00">valid_from </text>
<text text-anchor="start" x="121.67" y="-462.8" font-family="Arial" font-size="14.00" fill="#666666">[timestamp without time zone]</text>
<polygon fill="none" stroke="black" points="46.2,-419.8 46.2,-450.6 336.12,-450.6 336.12,-419.8 46.2,-419.8"/>
<text text-anchor="start" x="53.2" y="-432" font-family="Arial" font-size="14.00">valid_to </text>
<text text-anchor="start" x="105.34" y="-432" font-family="Arial" font-size="14.00" fill="#666666">[timestamp without time zone]</text>
<polygon fill="none" stroke="black" points="46.2,-389 46.2,-419.8 336.12,-419.8 336.12,-389 46.2,-389"/>
<text text-anchor="start" x="53.2" y="-401.2" font-family="Arial" font-size="14.00">created_at </text>
<text text-anchor="start" x="123.25" y="-401.2" font-family="Arial" font-size="14.00" fill="#666666">[timestamp without time zone]</text>
<polygon fill="none" stroke="black" points="46.2,-358.2 46.2,-389 336.12,-389 336.12,-358.2 46.2,-358.2"/>
<text text-anchor="start" x="53.2" y="-370.4" font-family="Arial" font-size="14.00">modified_at </text>
<text text-anchor="start" x="129.47" y="-370.4" font-family="Arial" font-size="14.00" fill="#666666">[timestamp without time zone]</text>
<polygon fill="none" stroke="black" stroke-width="3" points="44.7,-356.7 44.7,-641.7 337.62,-641.7 337.62,-356.7 44.7,-356.7"/>
</g>
<!-- source.product -->
<g id="node3" class="node">
<title>source.product</title>
<polygon fill="#efefef" stroke="none" points="53.44,-197.2 53.44,-232.8 328.89,-232.8 328.89,-197.2 53.44,-197.2"/>
<polygon fill="none" stroke="black" points="53.44,-197.2 53.44,-232.8 328.89,-232.8 328.89,-197.2 53.44,-197.2"/>
<text text-anchor="start" x="75.69" y="-210.6" font-family="Arial Bold" font-size="18.00">source.product</text>
<text text-anchor="start" x="182.15" y="-210.6" font-family="Arial" font-size="14.00">    </text>
<text text-anchor="start" x="213.27" y="-210.6" font-family="Arial" font-size="14.00" fill="#666666">[BASE TABLE]</text>
<polygon fill="none" stroke="black" points="53.44,-166.4 53.44,-197.2 328.89,-197.2 328.89,-166.4 53.44,-166.4"/>
<text text-anchor="start" x="60.44" y="-178.6" font-family="Arial" font-size="14.00">id </text>
<text text-anchor="start" x="75.22" y="-178.6" font-family="Arial" font-size="14.00" fill="#666666">[integer]</text>
<polygon fill="none" stroke="black" points="53.44,-135.6 53.44,-166.4 328.89,-166.4 328.89,-135.6 53.44,-135.6"/>
<text text-anchor="start" x="60.44" y="-147.8" font-family="Arial" font-size="14.00">product_name </text>
<text text-anchor="start" x="153.83" y="-147.8" font-family="Arial" font-size="14.00" fill="#666666">[varchar(100)]</text>
<polygon fill="none" stroke="black" points="53.44,-104.8 53.44,-135.6 328.89,-135.6 328.89,-104.8 53.44,-104.8"/>
<text text-anchor="start" x="60.44" y="-117" font-family="Arial" font-size="14.00">product_category_id </text>
<text text-anchor="start" x="191.19" y="-117" font-family="Arial" font-size="14.00" fill="#666666">[integer]</text>
<polygon fill="none" stroke="black" points="53.44,-74 53.44,-104.8 328.89,-104.8 328.89,-74 53.44,-74"/>
<text text-anchor="start" x="60.44" y="-86.2" font-family="Arial" font-size="14.00">created_at </text>
<text text-anchor="start" x="130.48" y="-86.2" font-family="Arial" font-size="14.00" fill="#666666">[timestamp without time zone]</text>
<polygon fill="none" stroke="black" points="53.44,-43.2 53.44,-74 328.89,-74 328.89,-43.2 53.44,-43.2"/>
<text text-anchor="start" x="60.44" y="-55.4" font-family="Arial" font-size="14.00">modified_at </text>
<text text-anchor="start" x="136.7" y="-55.4" font-family="Arial" font-size="14.00" fill="#666666">[timestamp without time zone]</text>
</g>
<!-- source.product_price&#45;&gt;source.product -->
<g id="edge2" class="edge">
<title>source.product_price:product_id&#45;&gt;source.product:id</title>
<path fill="none" stroke="black" d="M346.97,-556.55C420.11,-528.14 410.16,-181.8 329.89,-181.8"/>
<polygon fill="black" stroke="black" points="347.28,-556.49 336.62,-553.92 342.04,-557.48 337.78,-558.28 337.78,-558.28 337.78,-558.28 342.04,-557.48 338.28,-562.76 347.28,-556.49"/>
<text text-anchor="start" x="344.12" y="-568.4" font-family="Arial" font-size="10.00">FOREIGN KEY (product_id) REFERENCES source.product(id)</text>
</g>
<!-- source.order_detail -->
<g id="node2" class="node">
<title>source.order_detail</title>
<polygon fill="#efefef" stroke="none" points="52.7,-981.2 52.7,-1016.8 329.63,-1016.8 329.63,-981.2 52.7,-981.2"/>
<polygon fill="none" stroke="black" points="52.7,-981.2 52.7,-1016.8 329.63,-1016.8 329.63,-981.2 52.7,-981.2"/>
<text text-anchor="start" x="59.7" y="-994.6" font-family="Arial Bold" font-size="18.00">source.order_detail</text>
<text text-anchor="start" x="198.14" y="-994.6" font-family="Arial" font-size="14.00">    </text>
<text text-anchor="start" x="229.25" y="-994.6" font-family="Arial" font-size="14.00" fill="#666666">[BASE TABLE]</text>
<polygon fill="none" stroke="black" points="52.7,-950.4 52.7,-981.2 329.63,-981.2 329.63,-950.4 52.7,-950.4"/>
<text text-anchor="start" x="59.7" y="-962.6" font-family="Arial" font-size="14.00">id </text>
<text text-anchor="start" x="74.49" y="-962.6" font-family="Arial" font-size="14.00" fill="#666666">[integer]</text>
<polygon fill="none" stroke="black" points="52.7,-919.6 52.7,-950.4 329.63,-950.4 329.63,-919.6 52.7,-919.6"/>
<text text-anchor="start" x="59.7" y="-931.8" font-family="Arial" font-size="14.00">order_id </text>
<text text-anchor="start" x="114.95" y="-931.8" font-family="Arial" font-size="14.00" fill="#666666">[integer]</text>
<polygon fill="none" stroke="black" points="52.7,-888.8 52.7,-919.6 329.63,-919.6 329.63,-888.8 52.7,-888.8"/>
<text text-anchor="start" x="59.7" y="-901" font-family="Arial" font-size="14.00">product_id </text>
<text text-anchor="start" x="128.97" y="-901" font-family="Arial" font-size="14.00" fill="#666666">[integer]</text>
<polygon fill="none" stroke="black" points="52.7,-858 52.7,-888.8 329.63,-888.8 329.63,-858 52.7,-858"/>
<text text-anchor="start" x="59.7" y="-870.2" font-family="Arial" font-size="14.00">product_price_id </text>
<text text-anchor="start" x="167.1" y="-870.2" font-family="Arial" font-size="14.00" fill="#666666">[integer]</text>
<polygon fill="none" stroke="black" points="52.7,-827.2 52.7,-858 329.63,-858 329.63,-827.2 52.7,-827.2"/>
<text text-anchor="start" x="59.7" y="-839.4" font-family="Arial" font-size="14.00">quantity </text>
<text text-anchor="start" x="112.62" y="-839.4" font-family="Arial" font-size="14.00" fill="#666666">[integer]</text>
<polygon fill="none" stroke="black" points="52.7,-796.4 52.7,-827.2 329.63,-827.2 329.63,-796.4 52.7,-796.4"/>
<text text-anchor="start" x="59.7" y="-808.6" font-family="Arial" font-size="14.00">created_at </text>
<text text-anchor="start" x="129.75" y="-808.6" font-family="Arial" font-size="14.00" fill="#666666">[timestamp without time zone]</text>
<polygon fill="none" stroke="black" points="52.7,-765.6 52.7,-796.4 329.63,-796.4 329.63,-765.6 52.7,-765.6"/>
<text text-anchor="start" x="59.7" y="-777.8" font-family="Arial" font-size="14.00">modified_at </text>
<text text-anchor="start" x="135.97" y="-777.8" font-family="Arial" font-size="14.00" fill="#666666">[timestamp without time zone]</text>
</g>
<!-- source.order_detail&#45;&gt;source.product_price -->
<g id="edge1" class="edge">
<title>source.order_detail:product_price_id&#45;&gt;source.product_price:id</title>
<path fill="none" stroke="black" d="M340.48,-870.94C394.3,-843.17 396.84,-589.2 337.12,-589.2"/>
<polygon fill="black" stroke="black" points="340.65,-870.9 329.86,-868.95 335.48,-872.19 331.27,-873.24 331.27,-873.24 331.27,-873.24 335.48,-872.19 332.04,-877.69 340.65,-870.9"/>
<text text-anchor="start" x="337.63" y="-883.4" font-family="Arial" font-size="10.00">FOREIGN KEY (product_price_id) REFERENCES source.product_price(id)</text>
</g>
</g>
</svg>
