<?xml version="1.0" encoding="UTF-8" standalone="no"?>
<!DOCTYPE svg PUBLIC "-//W3C//DTD SVG 1.1//EN"
 "http://www.w3.org/Graphics/SVG/1.1/DTD/svg11.dtd">
<!-- Generated by graphviz version 12.1.2 (20240928.0832)
 -->
<!-- Title: source.invoice Pages: 1 -->
<svg width="619pt" height="1037pt"
 viewBox="0.00 0.00 619.18 1037.20" xmlns="http://www.w3.org/2000/svg" xmlns:xlink="http://www.w3.org/1999/xlink">
<g id="graph0" class="graph" transform="scale(1 1) rotate(0) translate(4 1033.2)">
<title>source.invoice</title>
<polygon fill="white" stroke="none" points="-4,4 -4,-1033.2 615.18,-1033.2 615.18,4 -4,4"/>
<!-- source.invoice -->
<g id="node1" class="node">
<title>source.invoice</title>
<polygon fill="#efefef" stroke="none" points="46.2,-573.8 46.2,-609.4 321.65,-609.4 321.65,-573.8 46.2,-573.8"/>
<polygon fill="none" stroke="black" points="46.2,-573.8 46.2,-609.4 321.65,-609.4 321.65,-573.8 46.2,-573.8"/>
<text text-anchor="start" x="69.45" y="-587.2" font-family="Arial Bold" font-size="18.00">source.invoice</text>
<text text-anchor="start" x="173.91" y="-587.2" font-family="Arial" font-size="14.00">    </text>
<text text-anchor="start" x="205.03" y="-587.2" font-family="Arial" font-size="14.00" fill="#666666">[BASE TABLE]</text>
<polygon fill="none" stroke="black" points="46.2,-543 46.2,-573.8 321.65,-573.8 321.65,-543 46.2,-543"/>
<text text-anchor="start" x="53.2" y="-555.2" font-family="Arial" font-size="14.00">id </text>
<text text-anchor="start" x="67.99" y="-555.2" font-family="Arial" font-size="14.00" fill="#666666">[integer]</text>
<polygon fill="none" stroke="black" points="46.2,-512.2 46.2,-543 321.65,-543 321.65,-512.2 46.2,-512.2"/>
<text text-anchor="start" x="53.2" y="-524.4" font-family="Arial" font-size="14.00">order_id </text>
<text text-anchor="start" x="108.45" y="-524.4" font-family="Arial" font-size="14.00" fill="#666666">[integer]</text>
<polygon fill="none" stroke="black" points="46.2,-481.4 46.2,-512.2 321.65,-512.2 321.65,-481.4 46.2,-481.4"/>
<text text-anchor="start" x="53.2" y="-493.6" font-family="Arial" font-size="14.00">total_amount </text>
<text text-anchor="start" x="138.03" y="-493.6" font-family="Arial" font-size="14.00" fill="#666666">[numeric(10,2)]</text>
<polygon fill="none" stroke="black" points="46.2,-450.6 46.2,-481.4 321.65,-481.4 321.65,-450.6 46.2,-450.6"/>
<text text-anchor="start" x="53.2" y="-462.8" font-family="Arial" font-size="14.00">currency </text>
<text text-anchor="start" x="110.77" y="-462.8" font-family="Arial" font-size="14.00" fill="#666666">[varchar(3)]</text>
<polygon fill="none" stroke="black" points="46.2,-419.8 46.2,-450.6 321.65,-450.6 321.65,-419.8 46.2,-419.8"/>
<text text-anchor="start" x="53.2" y="-432" font-family="Arial" font-size="14.00">is_voided </text>
<text text-anchor="start" x="116.24" y="-432" font-family="Arial" font-size="14.00" fill="#666666">[boolean]</text>
<polygon fill="none" stroke="black" points="46.2,-389 46.2,-419.8 321.65,-419.8 321.65,-389 46.2,-389"/>
<text text-anchor="start" x="53.2" y="-401.2" font-family="Arial" font-size="14.00">created_at </text>
<text text-anchor="start" x="123.25" y="-401.2" font-family="Arial" font-size="14.00" fill="#666666">[timestamp without time zone]</text>
<polygon fill="none" stroke="black" points="46.2,-358.2 46.2,-389 321.65,-389 321.65,-358.2 46.2,-358.2"/>
<text text-anchor="start" x="53.2" y="-370.4" font-family="Arial" font-size="14.00">modified_at </text>
<text text-anchor="start" x="129.47" y="-370.4" font-family="Arial" font-size="14.00" fill="#666666">[timestamp without time zone]</text>
<polygon fill="none" stroke="black" stroke-width="3" points="44.7,-356.7 44.7,-610.9 323.15,-610.9 323.15,-356.7 44.7,-356.7"/>
</g>
<!-- source.order -->
<g id="node3" class="node">
<title>source.order</title>
<polygon fill="#efefef" stroke="none" points="46.2,-197.2 46.2,-232.8 321.65,-232.8 321.65,-197.2 46.2,-197.2"/>
<polygon fill="none" stroke="black" points="46.2,-197.2 46.2,-232.8 321.65,-232.8 321.65,-197.2 46.2,-197.2"/>
<text text-anchor="start" x="76.95" y="-210.6" font-family="Arial Bold" font-size="18.00">source.order</text>
<text text-anchor="start" x="166.41" y="-210.6" font-family="Arial" font-size="14.00">    </text>
<text text-anchor="start" x="197.53" y="-210.6" font-family="Arial" font-size="14.00" fill="#666666">[BASE TABLE]</text>
<polygon fill="none" stroke="black" points="46.2,-166.4 46.2,-197.2 321.65,-197.2 321.65,-166.4 46.2,-166.4"/>
<text text-anchor="start" x="53.2" y="-178.6" font-family="Arial" font-size="14.00">id </text>
<text text-anchor="start" x="67.99" y="-178.6" font-family="Arial" font-size="14.00" fill="#666666">[integer]</text>
<polygon fill="none" stroke="black" points="46.2,-135.6 46.2,-166.4 321.65,-166.4 321.65,-135.6 46.2,-135.6"/>
<text text-anchor="start" x="53.2" y="-147.8" font-family="Arial" font-size="14.00">customer_id </text>
<text text-anchor="start" x="133.34" y="-147.8" font-family="Arial" font-size="14.00" fill="#666666">[integer]</text>
<polygon fill="none" stroke="black" points="46.2,-104.8 46.2,-135.6 321.65,-135.6 321.65,-104.8 46.2,-104.8"/>
<text text-anchor="start" x="53.2" y="-117" font-family="Arial" font-size="14.00">store_id </text>
<text text-anchor="start" x="106.9" y="-117" font-family="Arial" font-size="14.00" fill="#666666">[integer]</text>
<polygon fill="none" stroke="black" points="46.2,-74 46.2,-104.8 321.65,-104.8 321.65,-74 46.2,-74"/>
<text text-anchor="start" x="53.2" y="-86.2" font-family="Arial" font-size="14.00">created_at </text>
<text text-anchor="start" x="123.25" y="-86.2" font-family="Arial" font-size="14.00" fill="#666666">[timestamp without time zone]</text>
<polygon fill="none" stroke="black" points="46.2,-43.2 46.2,-74 321.65,-74 321.65,-43.2 46.2,-43.2"/>
<text text-anchor="start" x="53.2" y="-55.4" font-family="Arial" font-size="14.00">modified_at </text>
<text text-anchor="start" x="129.47" y="-55.4" font-family="Arial" font-size="14.00" fill="#666666">[timestamp without time zone]</text>
</g>
<!-- source.invoice&#45;&gt;source.order -->
<g id="edge2" class="edge">
<title>source.invoice:order_id&#45;&gt;source.order:id</title>
<path fill="none" stroke="black" d="M332.54,-525.57C399.34,-497.23 396.05,-181.8 322.65,-181.8"/>
<polygon fill="black" stroke="black" points="332.78,-525.52 322.08,-523.12 327.55,-526.59 323.31,-527.47 323.31,-527.47 323.31,-527.47 327.55,-526.59 323.89,-531.94 332.78,-525.52"/>
<text text-anchor="start" x="329.65" y="-537.6" font-family="Arial" font-size="10.00">FOREIGN KEY (order_id) REFERENCES source.&quot;order&quot;(id)</text>
</g>
<!-- source.payment -->
<g id="node2" class="node">
<title>source.payment</title>
<polygon fill="#efefef" stroke="none" points="46.2,-950.4 46.2,-986 321.65,-986 321.65,-950.4 46.2,-950.4"/>
<polygon fill="none" stroke="black" points="46.2,-950.4 46.2,-986 321.65,-986 321.65,-950.4 46.2,-950.4"/>
<text text-anchor="start" x="64.95" y="-963.8" font-family="Arial Bold" font-size="18.00">source.payment</text>
<text text-anchor="start" x="178.41" y="-963.8" font-family="Arial" font-size="14.00">    </text>
<text text-anchor="start" x="209.53" y="-963.8" font-family="Arial" font-size="14.00" fill="#666666">[BASE TABLE]</text>
<polygon fill="none" stroke="black" points="46.2,-919.6 46.2,-950.4 321.65,-950.4 321.65,-919.6 46.2,-919.6"/>
<text text-anchor="start" x="53.2" y="-931.8" font-family="Arial" font-size="14.00">id </text>
<text text-anchor="start" x="67.99" y="-931.8" font-family="Arial" font-size="14.00" fill="#666666">[integer]</text>
<polygon fill="none" stroke="black" points="46.2,-888.8 46.2,-919.6 321.65,-919.6 321.65,-888.8 46.2,-888.8"/>
<text text-anchor="start" x="53.2" y="-901" font-family="Arial" font-size="14.00">amount </text>
<text text-anchor="start" x="103.79" y="-901" font-family="Arial" font-size="14.00" fill="#666666">[numeric(10,2)]</text>
<polygon fill="none" stroke="black" points="46.2,-858 46.2,-888.8 321.65,-888.8 321.65,-858 46.2,-858"/>
<text text-anchor="start" x="53.2" y="-870.2" font-family="Arial" font-size="14.00">payment_type_id </text>
<text text-anchor="start" x="163.72" y="-870.2" font-family="Arial" font-size="14.00" fill="#666666">[integer]</text>
<polygon fill="none" stroke="black" points="46.2,-827.2 46.2,-858 321.65,-858 321.65,-827.2 46.2,-827.2"/>
<text text-anchor="start" x="53.2" y="-839.4" font-family="Arial" font-size="14.00">payment_type_detail </text>
<text text-anchor="start" x="186.29" y="-839.4" font-family="Arial" font-size="14.00" fill="#666666">[varchar(100)]</text>
<polygon fill="none" stroke="black" points="46.2,-796.4 46.2,-827.2 321.65,-827.2 321.65,-796.4 46.2,-796.4"/>
<text text-anchor="start" x="53.2" y="-808.6" font-family="Arial" font-size="14.00">invoice_id </text>
<text text-anchor="start" x="119.35" y="-808.6" font-family="Arial" font-size="14.00" fill="#666666">[integer]</text>
<polygon fill="none" stroke="black" points="46.2,-765.6 46.2,-796.4 321.65,-796.4 321.65,-765.6 46.2,-765.6"/>
<text text-anchor="start" x="53.2" y="-777.8" font-family="Arial" font-size="14.00">created_at </text>
<text text-anchor="start" x="123.25" y="-777.8" font-family="Arial" font-size="14.00" fill="#666666">[timestamp without time zone]</text>
<polygon fill="none" stroke="black" points="46.2,-734.8 46.2,-765.6 321.65,-765.6 321.65,-734.8 46.2,-734.8"/>
<text text-anchor="start" x="53.2" y="-747" font-family="Arial" font-size="14.00">modified_at </text>
<text text-anchor="start" x="129.47" y="-747" font-family="Arial" font-size="14.00" fill="#666666">[timestamp without time zone]</text>
</g>
<!-- source.payment&#45;&gt;source.invoice -->
<g id="edge1" class="edge">
<title>source.payment:invoice_id&#45;&gt;source.invoice:id</title>
<path fill="none" stroke="black" d="M332.88,-811.07C435.17,-796.21 431.76,-558.4 322.65,-558.4"/>
<polygon fill="black" stroke="black" points="332.96,-811.07 322.67,-807.29 327.64,-811.45 323.32,-811.75 323.32,-811.75 323.32,-811.75 327.64,-811.45 323.31,-816.26 332.96,-811.07"/>
<text text-anchor="start" x="329.65" y="-821.8" font-family="Arial" font-size="10.00">FOREIGN KEY (invoice_id) REFERENCES source.invoice(id)</text>
</g>
</g>
</svg>
