<?xml version="1.0" encoding="UTF-8" standalone="no"?>
<!DOCTYPE svg PUBLIC "-//W3C//DTD SVG 1.1//EN"
 "http://www.w3.org/Graphics/SVG/1.1/DTD/svg11.dtd">
<!-- Generated by graphviz version 12.1.2 (20240928.0832)
 -->
<!-- Title: source.sales_data Pages: 1 -->
<svg width="370pt" height="475pt"
 viewBox="0.00 0.00 369.63 474.80" xmlns="http://www.w3.org/2000/svg" xmlns:xlink="http://www.w3.org/1999/xlink">
<g id="graph0" class="graph" transform="scale(1 1) rotate(0) translate(4 470.8)">
<title>source.sales_data</title>
<polygon fill="white" stroke="none" points="-4,4 -4,-470.8 365.63,-470.8 365.63,4 -4,4"/>
<!-- source.sales_data -->
<g id="node1" class="node">
<title>source.sales_data</title>
<polygon fill="#efefef" stroke="none" points="46.2,-385 46.2,-420.6 315.43,-420.6 315.43,-385 46.2,-385"/>
<polygon fill="none" stroke="black" points="46.2,-385 46.2,-420.6 315.43,-420.6 315.43,-385 46.2,-385"/>
<text text-anchor="start" x="55.85" y="-398.4" font-family="Arial Bold" font-size="18.00">source.sales_data</text>
<text text-anchor="start" x="181.3" y="-398.4" font-family="Arial" font-size="14.00">    </text>
<text text-anchor="start" x="212.41" y="-398.4" font-family="Arial" font-size="14.00" fill="#666666">[BASE TABLE]</text>
<polygon fill="none" stroke="black" points="46.2,-354.2 46.2,-385 315.43,-385 315.43,-354.2 46.2,-354.2"/>
<text text-anchor="start" x="53.2" y="-366.4" font-family="Arial" font-size="14.00">id </text>
<text text-anchor="start" x="67.99" y="-366.4" font-family="Arial" font-size="14.00" fill="#666666">[integer]</text>
<polygon fill="none" stroke="black" points="46.2,-323.4 46.2,-354.2 315.43,-354.2 315.43,-323.4 46.2,-323.4"/>
<text text-anchor="start" x="53.2" y="-335.6" font-family="Arial" font-size="14.00">name </text>
<text text-anchor="start" x="92.11" y="-335.6" font-family="Arial" font-size="14.00" fill="#666666">[varchar(100)]</text>
<polygon fill="none" stroke="black" points="46.2,-292.6 46.2,-323.4 315.43,-323.4 315.43,-292.6 46.2,-292.6"/>
<text text-anchor="start" x="53.2" y="-304.8" font-family="Arial" font-size="14.00">address </text>
<text text-anchor="start" x="106.9" y="-304.8" font-family="Arial" font-size="14.00" fill="#666666">[varchar(100)]</text>
<polygon fill="none" stroke="black" points="46.2,-261.8 46.2,-292.6 315.43,-292.6 315.43,-261.8 46.2,-261.8"/>
<text text-anchor="start" x="53.2" y="-274" font-family="Arial" font-size="14.00">username </text>
<text text-anchor="start" x="119.34" y="-274" font-family="Arial" font-size="14.00" fill="#666666">[varchar(100)]</text>
<polygon fill="none" stroke="black" points="46.2,-231 46.2,-261.8 315.43,-261.8 315.43,-231 46.2,-231"/>
<text text-anchor="start" x="53.2" y="-243.2" font-family="Arial" font-size="14.00">email </text>
<text text-anchor="start" x="90.54" y="-243.2" font-family="Arial" font-size="14.00" fill="#666666">[varchar(100)]</text>
<polygon fill="none" stroke="black" points="46.2,-200.2 46.2,-231 315.43,-231 315.43,-200.2 46.2,-200.2"/>
<text text-anchor="start" x="53.2" y="-212.4" font-family="Arial" font-size="14.00">hire_date </text>
<text text-anchor="start" x="115.47" y="-212.4" font-family="Arial" font-size="14.00" fill="#666666">[date]</text>
<polygon fill="none" stroke="black" points="46.2,-169.4 46.2,-200.2 315.43,-200.2 315.43,-169.4 46.2,-169.4"/>
<text text-anchor="start" x="53.2" y="-181.6" font-family="Arial" font-size="14.00">status </text>
<text text-anchor="start" x="94.44" y="-181.6" font-family="Arial" font-size="14.00" fill="#666666">[varchar(100)]</text>
<polygon fill="none" stroke="black" points="46.2,-138.6 46.2,-169.4 315.43,-169.4 315.43,-138.6 46.2,-138.6"/>
<text text-anchor="start" x="53.2" y="-150.8" font-family="Arial" font-size="14.00">color </text>
<text text-anchor="start" x="87.43" y="-150.8" font-family="Arial" font-size="14.00" fill="#666666">[varchar(100)]</text>
<polygon fill="none" stroke="black" points="46.2,-107.8 46.2,-138.6 315.43,-138.6 315.43,-107.8 46.2,-107.8"/>
<text text-anchor="start" x="53.2" y="-120" font-family="Arial" font-size="14.00">salary </text>
<text text-anchor="start" x="94.43" y="-120" font-family="Arial" font-size="14.00" fill="#666666">[numeric(10,2)]</text>
<polygon fill="none" stroke="black" points="46.2,-77 46.2,-107.8 315.43,-107.8 315.43,-77 46.2,-77"/>
<text text-anchor="start" x="53.2" y="-89.2" font-family="Arial" font-size="14.00">store_id </text>
<text text-anchor="start" x="106.9" y="-89.2" font-family="Arial" font-size="14.00" fill="#666666">[integer]</text>
<polygon fill="none" stroke="black" points="46.2,-46.2 46.2,-77 315.43,-77 315.43,-46.2 46.2,-46.2"/>
<text text-anchor="start" x="53.2" y="-58.4" font-family="Arial" font-size="14.00">created_at </text>
<text text-anchor="start" x="123.25" y="-58.4" font-family="Arial" font-size="14.00" fill="#666666">[timestamp without time zone]</text>
<polygon fill="none" stroke="black" stroke-width="3" points="44.7,-44.7 44.7,-422.1 316.93,-422.1 316.93,-44.7 44.7,-44.7"/>
</g>
</g>
</svg>
