<?xml version="1.0" encoding="UTF-8" standalone="no"?>
<!DOCTYPE svg PUBLIC "-//W3C//DTD SVG 1.1//EN"
 "http://www.w3.org/Graphics/SVG/1.1/DTD/svg11.dtd">
<!-- Generated by graphviz version 12.1.2 (20240928.0832)
 -->
<!-- Title: source.integration Pages: 1 -->
<svg width="380pt" height="321pt"
 viewBox="0.00 0.00 379.79 320.80" xmlns="http://www.w3.org/2000/svg" xmlns:xlink="http://www.w3.org/1999/xlink">
<g id="graph0" class="graph" transform="scale(1 1) rotate(0) translate(4 316.8)">
<title>source.integration</title>
<polygon fill="white" stroke="none" points="-4,4 -4,-316.8 375.79,-316.8 375.79,4 -4,4"/>
<!-- source.integration -->
<g id="node1" class="node">
<title>source.integration</title>
<polygon fill="#efefef" stroke="none" points="46.2,-231 46.2,-266.6 325.59,-266.6 325.59,-231 46.2,-231"/>
<polygon fill="none" stroke="black" points="46.2,-231 46.2,-266.6 325.59,-266.6 325.59,-231 46.2,-231"/>
<text text-anchor="start" x="58.92" y="-244.4" font-family="Arial Bold" font-size="18.00">source.integration</text>
<text text-anchor="start" x="188.38" y="-244.4" font-family="Arial" font-size="14.00">    </text>
<text text-anchor="start" x="219.5" y="-244.4" font-family="Arial" font-size="14.00" fill="#666666">[BASE TABLE]</text>
<polygon fill="none" stroke="black" points="46.2,-200.2 46.2,-231 325.59,-231 325.59,-200.2 46.2,-200.2"/>
<text text-anchor="start" x="53.2" y="-212.4" font-family="Arial" font-size="14.00">id </text>
<text text-anchor="start" x="67.99" y="-212.4" font-family="Arial" font-size="14.00" fill="#666666">[integer]</text>
<polygon fill="none" stroke="black" points="46.2,-169.4 46.2,-200.2 325.59,-200.2 325.59,-169.4 46.2,-169.4"/>
<text text-anchor="start" x="53.2" y="-181.6" font-family="Arial" font-size="14.00">customer_id </text>
<text text-anchor="start" x="133.34" y="-181.6" font-family="Arial" font-size="14.00" fill="#666666">[integer]</text>
<polygon fill="none" stroke="black" points="46.2,-138.6 46.2,-169.4 325.59,-169.4 325.59,-138.6 46.2,-138.6"/>
<text text-anchor="start" x="53.2" y="-150.8" font-family="Arial" font-size="14.00">integration_type </text>
<text text-anchor="start" x="156.72" y="-150.8" font-family="Arial" font-size="14.00" fill="#666666">[source.integration_enum]</text>
<polygon fill="none" stroke="black" points="46.2,-107.8 46.2,-138.6 325.59,-138.6 325.59,-107.8 46.2,-107.8"/>
<text text-anchor="start" x="53.2" y="-120" font-family="Arial" font-size="14.00">is_active </text>
<text text-anchor="start" x="111.56" y="-120" font-family="Arial" font-size="14.00" fill="#666666">[integer]</text>
<polygon fill="none" stroke="black" points="46.2,-77 46.2,-107.8 325.59,-107.8 325.59,-77 46.2,-77"/>
<text text-anchor="start" x="53.2" y="-89.2" font-family="Arial" font-size="14.00">created_at </text>
<text text-anchor="start" x="123.25" y="-89.2" font-family="Arial" font-size="14.00" fill="#666666">[timestamp without time zone]</text>
<polygon fill="none" stroke="black" points="46.2,-46.2 46.2,-77 325.59,-77 325.59,-46.2 46.2,-46.2"/>
<text text-anchor="start" x="53.2" y="-58.4" font-family="Arial" font-size="14.00">modified_at </text>
<text text-anchor="start" x="129.47" y="-58.4" font-family="Arial" font-size="14.00" fill="#666666">[timestamp without time zone]</text>
<polygon fill="none" stroke="black" stroke-width="3" points="44.7,-44.7 44.7,-268.1 327.09,-268.1 327.09,-44.7 44.7,-44.7"/>
</g>
</g>
</svg>
