<?xml version="1.0" encoding="UTF-8" standalone="no"?>
<!DOCTYPE svg PUBLIC "-//W3C//DTD SVG 1.1//EN"
 "http://www.w3.org/Graphics/SVG/1.1/DTD/svg11.dtd">
<!-- Generated by graphviz version 12.1.2 (20240928.0832)
 -->
<!-- Title: source.order_json Pages: 1 -->
<svg width="376pt" height="259pt"
 viewBox="0.00 0.00 375.85 259.20" xmlns="http://www.w3.org/2000/svg" xmlns:xlink="http://www.w3.org/1999/xlink">
<g id="graph0" class="graph" transform="scale(1 1) rotate(0) translate(4 255.2)">
<title>source.order_json</title>
<polygon fill="white" stroke="none" points="-4,4 -4,-255.2 371.85,-255.2 371.85,4 -4,4"/>
<!-- source.order_json -->
<g id="node1" class="node">
<title>source.order_json</title>
<polygon fill="#efefef" stroke="none" points="46.2,-169.4 46.2,-205 321.65,-205 321.65,-169.4 46.2,-169.4"/>
<polygon fill="none" stroke="black" points="46.2,-169.4 46.2,-205 321.65,-205 321.65,-169.4 46.2,-169.4"/>
<text text-anchor="start" x="57.45" y="-182.8" font-family="Arial Bold" font-size="18.00">source.order_json</text>
<text text-anchor="start" x="185.91" y="-182.8" font-family="Arial" font-size="14.00">    </text>
<text text-anchor="start" x="217.03" y="-182.8" font-family="Arial" font-size="14.00" fill="#666666">[BASE TABLE]</text>
<polygon fill="none" stroke="black" points="46.2,-138.6 46.2,-169.4 321.65,-169.4 321.65,-138.6 46.2,-138.6"/>
<text text-anchor="start" x="53.2" y="-150.8" font-family="Arial" font-size="14.00">id </text>
<text text-anchor="start" x="67.99" y="-150.8" font-family="Arial" font-size="14.00" fill="#666666">[integer]</text>
<polygon fill="none" stroke="black" points="46.2,-107.8 46.2,-138.6 321.65,-138.6 321.65,-107.8 46.2,-107.8"/>
<text text-anchor="start" x="53.2" y="-120" font-family="Arial" font-size="14.00">external_data </text>
<text text-anchor="start" x="141.93" y="-120" font-family="Arial" font-size="14.00" fill="#666666">[json]</text>
<polygon fill="none" stroke="black" points="46.2,-77 46.2,-107.8 321.65,-107.8 321.65,-77 46.2,-77"/>
<text text-anchor="start" x="53.2" y="-89.2" font-family="Arial" font-size="14.00">created_at </text>
<text text-anchor="start" x="123.25" y="-89.2" font-family="Arial" font-size="14.00" fill="#666666">[timestamp without time zone]</text>
<polygon fill="none" stroke="black" points="46.2,-46.2 46.2,-77 321.65,-77 321.65,-46.2 46.2,-46.2"/>
<text text-anchor="start" x="53.2" y="-58.4" font-family="Arial" font-size="14.00">modified_at </text>
<text text-anchor="start" x="129.47" y="-58.4" font-family="Arial" font-size="14.00" fill="#666666">[timestamp without time zone]</text>
<polygon fill="none" stroke="black" stroke-width="3" points="44.7,-44.7 44.7,-206.5 323.15,-206.5 323.15,-44.7 44.7,-44.7"/>
</g>
</g>
</svg>
