<?xml version="1.0" encoding="UTF-8" standalone="no"?>
<!DOCTYPE svg PUBLIC "-//W3C//DTD SVG 1.1//EN"
 "http://www.w3.org/Graphics/SVG/1.1/DTD/svg11.dtd">
<!-- Generated by graphviz version 12.1.2 (20240928.0832)
 -->
<!-- Title: source.payment_type Pages: 1 -->
<svg width="691pt" height="694pt"
 viewBox="0.00 0.00 690.80 694.40" xmlns="http://www.w3.org/2000/svg" xmlns:xlink="http://www.w3.org/1999/xlink">
<g id="graph0" class="graph" transform="scale(1 1) rotate(0) translate(4 690.4)">
<title>source.payment_type</title>
<polygon fill="white" stroke="none" points="-4,4 -4,-690.4 686.8,-690.4 686.8,4 -4,4"/>
<!-- source.payment_type -->
<g id="node1" class="node">
<title>source.payment_type</title>
<polygon fill="#efefef" stroke="none" points="46.2,-231 46.2,-266.6 338.14,-266.6 338.14,-231 46.2,-231"/>
<polygon fill="none" stroke="black" points="46.2,-231 46.2,-266.6 338.14,-266.6 338.14,-231 46.2,-231"/>
<text text-anchor="start" x="53.2" y="-244.4" font-family="Arial Bold" font-size="18.00">source.payment_type</text>
<text text-anchor="start" x="206.65" y="-244.4" font-family="Arial" font-size="14.00">    </text>
<text text-anchor="start" x="237.77" y="-244.4" font-family="Arial" font-size="14.00" fill="#666666">[BASE TABLE]</text>
<polygon fill="none" stroke="black" points="46.2,-200.2 46.2,-231 338.14,-231 338.14,-200.2 46.2,-200.2"/>
<text text-anchor="start" x="53.2" y="-212.4" font-family="Arial" font-size="14.00">id </text>
<text text-anchor="start" x="67.99" y="-212.4" font-family="Arial" font-size="14.00" fill="#666666">[integer]</text>
<polygon fill="none" stroke="black" points="46.2,-169.4 46.2,-200.2 338.14,-200.2 338.14,-169.4 46.2,-169.4"/>
<text text-anchor="start" x="53.2" y="-181.6" font-family="Arial" font-size="14.00">payment_type </text>
<text text-anchor="start" x="145.03" y="-181.6" font-family="Arial" font-size="14.00" fill="#666666">[source.payment_enum]</text>
<polygon fill="none" stroke="black" points="46.2,-138.6 46.2,-169.4 338.14,-169.4 338.14,-138.6 46.2,-138.6"/>
<text text-anchor="start" x="53.2" y="-150.8" font-family="Arial" font-size="14.00">financial_account_id </text>
<text text-anchor="start" x="183.96" y="-150.8" font-family="Arial" font-size="14.00" fill="#666666">[integer]</text>
<polygon fill="none" stroke="black" points="46.2,-107.8 46.2,-138.6 338.14,-138.6 338.14,-107.8 46.2,-107.8"/>
<text text-anchor="start" x="53.2" y="-120" font-family="Arial" font-size="14.00">payment_type_description </text>
<text text-anchor="start" x="220.52" y="-120" font-family="Arial" font-size="14.00" fill="#666666">[varchar(100)]</text>
<polygon fill="none" stroke="black" points="46.2,-77 46.2,-107.8 338.14,-107.8 338.14,-77 46.2,-77"/>
<text text-anchor="start" x="53.2" y="-89.2" font-family="Arial" font-size="14.00">created_at </text>
<text text-anchor="start" x="123.25" y="-89.2" font-family="Arial" font-size="14.00" fill="#666666">[timestamp without time zone]</text>
<polygon fill="none" stroke="black" points="46.2,-46.2 46.2,-77 338.14,-77 338.14,-46.2 46.2,-46.2"/>
<text text-anchor="start" x="53.2" y="-58.4" font-family="Arial" font-size="14.00">modified_at </text>
<text text-anchor="start" x="129.47" y="-58.4" font-family="Arial" font-size="14.00" fill="#666666">[timestamp without time zone]</text>
<polygon fill="none" stroke="black" stroke-width="3" points="44.7,-44.7 44.7,-268.1 339.64,-268.1 339.64,-44.7 44.7,-44.7"/>
</g>
<!-- source.payment -->
<g id="node2" class="node">
<title>source.payment</title>
<polygon fill="#efefef" stroke="none" points="54.44,-607.6 54.44,-643.2 329.9,-643.2 329.9,-607.6 54.44,-607.6"/>
<polygon fill="none" stroke="black" points="54.44,-607.6 54.44,-643.2 329.9,-643.2 329.9,-607.6 54.44,-607.6"/>
<text text-anchor="start" x="73.2" y="-621" font-family="Arial Bold" font-size="18.00">source.payment</text>
<text text-anchor="start" x="186.65" y="-621" font-family="Arial" font-size="14.00">    </text>
<text text-anchor="start" x="217.77" y="-621" font-family="Arial" font-size="14.00" fill="#666666">[BASE TABLE]</text>
<polygon fill="none" stroke="black" points="54.44,-576.8 54.44,-607.6 329.9,-607.6 329.9,-576.8 54.44,-576.8"/>
<text text-anchor="start" x="61.44" y="-589" font-family="Arial" font-size="14.00">id </text>
<text text-anchor="start" x="76.23" y="-589" font-family="Arial" font-size="14.00" fill="#666666">[integer]</text>
<polygon fill="none" stroke="black" points="54.44,-546 54.44,-576.8 329.9,-576.8 329.9,-546 54.44,-546"/>
<text text-anchor="start" x="61.44" y="-558.2" font-family="Arial" font-size="14.00">amount </text>
<text text-anchor="start" x="112.03" y="-558.2" font-family="Arial" font-size="14.00" fill="#666666">[numeric(10,2)]</text>
<polygon fill="none" stroke="black" points="54.44,-515.2 54.44,-546 329.9,-546 329.9,-515.2 54.44,-515.2"/>
<text text-anchor="start" x="61.44" y="-527.4" font-family="Arial" font-size="14.00">payment_type_id </text>
<text text-anchor="start" x="171.96" y="-527.4" font-family="Arial" font-size="14.00" fill="#666666">[integer]</text>
<polygon fill="none" stroke="black" points="54.44,-484.4 54.44,-515.2 329.9,-515.2 329.9,-484.4 54.44,-484.4"/>
<text text-anchor="start" x="61.44" y="-496.6" font-family="Arial" font-size="14.00">payment_type_detail </text>
<text text-anchor="start" x="194.53" y="-496.6" font-family="Arial" font-size="14.00" fill="#666666">[varchar(100)]</text>
<polygon fill="none" stroke="black" points="54.44,-453.6 54.44,-484.4 329.9,-484.4 329.9,-453.6 54.44,-453.6"/>
<text text-anchor="start" x="61.44" y="-465.8" font-family="Arial" font-size="14.00">invoice_id </text>
<text text-anchor="start" x="127.59" y="-465.8" font-family="Arial" font-size="14.00" fill="#666666">[integer]</text>
<polygon fill="none" stroke="black" points="54.44,-422.8 54.44,-453.6 329.9,-453.6 329.9,-422.8 54.44,-422.8"/>
<text text-anchor="start" x="61.44" y="-435" font-family="Arial" font-size="14.00">created_at </text>
<text text-anchor="start" x="131.49" y="-435" font-family="Arial" font-size="14.00" fill="#666666">[timestamp without time zone]</text>
<polygon fill="none" stroke="black" points="54.44,-392 54.44,-422.8 329.9,-422.8 329.9,-392 54.44,-392"/>
<text text-anchor="start" x="61.44" y="-404.2" font-family="Arial" font-size="14.00">modified_at </text>
<text text-anchor="start" x="137.71" y="-404.2" font-family="Arial" font-size="14.00" fill="#666666">[timestamp without time zone]</text>
</g>
<!-- source.payment&#45;&gt;source.payment_type -->
<g id="edge1" class="edge">
<title>source.payment:payment_type_id&#45;&gt;source.payment_type:id</title>
<path fill="none" stroke="black" d="M340.71,-528.42C401.54,-500.59 405.74,-215.6 339.14,-215.6"/>
<polygon fill="black" stroke="black" points="340.98,-528.36 330.25,-526.13 335.78,-529.52 331.55,-530.45 331.55,-530.45 331.55,-530.45 335.78,-529.52 332.2,-534.92 340.98,-528.36"/>
<text text-anchor="start" x="337.9" y="-540.6" font-family="Arial" font-size="10.00">FOREIGN KEY (payment_type_id) REFERENCES source.payment_type(id)</text>
</g>
</g>
</svg>
