<?xml version="1.0" encoding="UTF-8" standalone="no"?>
<!DOCTYPE svg PUBLIC "-//W3C//DTD SVG 1.1//EN"
 "http://www.w3.org/Graphics/SVG/1.1/DTD/svg11.dtd">
<!-- Generated by graphviz version 12.1.2 (20240928.0832)
 -->
<!-- Title: source.store Pages: 1 -->
<svg width="601pt" height="725pt"
 viewBox="0.00 0.00 601.38 725.20" xmlns="http://www.w3.org/2000/svg" xmlns:xlink="http://www.w3.org/1999/xlink">
<g id="graph0" class="graph" transform="scale(1 1) rotate(0) translate(4 721.2)">
<title>source.store</title>
<polygon fill="white" stroke="none" points="-4,4 -4,-721.2 597.38,-721.2 597.38,4 -4,4"/>
<!-- source.store -->
<g id="node1" class="node">
<title>source.store</title>
<polygon fill="#efefef" stroke="none" points="46.2,-323.4 46.2,-359 321.65,-359 321.65,-323.4 46.2,-323.4"/>
<polygon fill="none" stroke="black" points="46.2,-323.4 46.2,-359 321.65,-359 321.65,-323.4 46.2,-323.4"/>
<text text-anchor="start" x="78.45" y="-336.8" font-family="Arial Bold" font-size="18.00">source.store</text>
<text text-anchor="start" x="164.92" y="-336.8" font-family="Arial" font-size="14.00">    </text>
<text text-anchor="start" x="196.03" y="-336.8" font-family="Arial" font-size="14.00" fill="#666666">[BASE TABLE]</text>
<polygon fill="none" stroke="black" points="46.2,-292.6 46.2,-323.4 321.65,-323.4 321.65,-292.6 46.2,-292.6"/>
<text text-anchor="start" x="53.2" y="-304.8" font-family="Arial" font-size="14.00">id </text>
<text text-anchor="start" x="67.99" y="-304.8" font-family="Arial" font-size="14.00" fill="#666666">[integer]</text>
<polygon fill="none" stroke="black" points="46.2,-261.8 46.2,-292.6 321.65,-292.6 321.65,-261.8 46.2,-261.8"/>
<text text-anchor="start" x="53.2" y="-274" font-family="Arial" font-size="14.00">store_name </text>
<text text-anchor="start" x="131.02" y="-274" font-family="Arial" font-size="14.00" fill="#666666">[varchar(100)]</text>
<polygon fill="none" stroke="black" points="46.2,-231 46.2,-261.8 321.65,-261.8 321.65,-231 46.2,-231"/>
<text text-anchor="start" x="53.2" y="-243.2" font-family="Arial" font-size="14.00">street </text>
<text text-anchor="start" x="92.1" y="-243.2" font-family="Arial" font-size="14.00" fill="#666666">[varchar(100)]</text>
<polygon fill="none" stroke="black" points="46.2,-200.2 46.2,-231 321.65,-231 321.65,-200.2 46.2,-200.2"/>
<text text-anchor="start" x="53.2" y="-212.4" font-family="Arial" font-size="14.00">city </text>
<text text-anchor="start" x="78.09" y="-212.4" font-family="Arial" font-size="14.00" fill="#666666">[varchar(100)]</text>
<polygon fill="none" stroke="black" points="46.2,-169.4 46.2,-200.2 321.65,-200.2 321.65,-169.4 46.2,-169.4"/>
<text text-anchor="start" x="53.2" y="-181.6" font-family="Arial" font-size="14.00">state </text>
<text text-anchor="start" x="87.44" y="-181.6" font-family="Arial" font-size="14.00" fill="#666666">[varchar(2)]</text>
<polygon fill="none" stroke="black" points="46.2,-138.6 46.2,-169.4 321.65,-169.4 321.65,-138.6 46.2,-138.6"/>
<text text-anchor="start" x="53.2" y="-150.8" font-family="Arial" font-size="14.00">zip_code </text>
<text text-anchor="start" x="113.13" y="-150.8" font-family="Arial" font-size="14.00" fill="#666666">[integer]</text>
<polygon fill="none" stroke="black" points="46.2,-107.8 46.2,-138.6 321.65,-138.6 321.65,-107.8 46.2,-107.8"/>
<text text-anchor="start" x="53.2" y="-120" font-family="Arial" font-size="14.00">country </text>
<text text-anchor="start" x="103" y="-120" font-family="Arial" font-size="14.00" fill="#666666">[varchar(50)]</text>
<polygon fill="none" stroke="black" points="46.2,-77 46.2,-107.8 321.65,-107.8 321.65,-77 46.2,-77"/>
<text text-anchor="start" x="53.2" y="-89.2" font-family="Arial" font-size="14.00">created_at </text>
<text text-anchor="start" x="123.25" y="-89.2" font-family="Arial" font-size="14.00" fill="#666666">[timestamp without time zone]</text>
<polygon fill="none" stroke="black" points="46.2,-46.2 46.2,-77 321.65,-77 321.65,-46.2 46.2,-46.2"/>
<text text-anchor="start" x="53.2" y="-58.4" font-family="Arial" font-size="14.00">modified_at </text>
<text text-anchor="start" x="129.47" y="-58.4" font-family="Arial" font-size="14.00" fill="#666666">[timestamp without time zone]</text>
<polygon fill="none" stroke="black" stroke-width="3" points="44.7,-44.7 44.7,-360.5 323.15,-360.5 323.15,-44.7 44.7,-44.7"/>
</g>
<!-- source.order -->
<g id="node2" class="node">
<title>source.order</title>
<polygon fill="#efefef" stroke="none" points="46.2,-638.4 46.2,-674 321.65,-674 321.65,-638.4 46.2,-638.4"/>
<polygon fill="none" stroke="black" points="46.2,-638.4 46.2,-674 321.65,-674 321.65,-638.4 46.2,-638.4"/>
<text text-anchor="start" x="76.95" y="-651.8" font-family="Arial Bold" font-size="18.00">source.order</text>
<text text-anchor="start" x="166.41" y="-651.8" font-family="Arial" font-size="14.00">    </text>
<text text-anchor="start" x="197.53" y="-651.8" font-family="Arial" font-size="14.00" fill="#666666">[BASE TABLE]</text>
<polygon fill="none" stroke="black" points="46.2,-607.6 46.2,-638.4 321.65,-638.4 321.65,-607.6 46.2,-607.6"/>
<text text-anchor="start" x="53.2" y="-619.8" font-family="Arial" font-size="14.00">id </text>
<text text-anchor="start" x="67.99" y="-619.8" font-family="Arial" font-size="14.00" fill="#666666">[integer]</text>
<polygon fill="none" stroke="black" points="46.2,-576.8 46.2,-607.6 321.65,-607.6 321.65,-576.8 46.2,-576.8"/>
<text text-anchor="start" x="53.2" y="-589" font-family="Arial" font-size="14.00">customer_id </text>
<text text-anchor="start" x="133.34" y="-589" font-family="Arial" font-size="14.00" fill="#666666">[integer]</text>
<polygon fill="none" stroke="black" points="46.2,-546 46.2,-576.8 321.65,-576.8 321.65,-546 46.2,-546"/>
<text text-anchor="start" x="53.2" y="-558.2" font-family="Arial" font-size="14.00">store_id </text>
<text text-anchor="start" x="106.9" y="-558.2" font-family="Arial" font-size="14.00" fill="#666666">[integer]</text>
<polygon fill="none" stroke="black" points="46.2,-515.2 46.2,-546 321.65,-546 321.65,-515.2 46.2,-515.2"/>
<text text-anchor="start" x="53.2" y="-527.4" font-family="Arial" font-size="14.00">created_at </text>
<text text-anchor="start" x="123.25" y="-527.4" font-family="Arial" font-size="14.00" fill="#666666">[timestamp without time zone]</text>
<polygon fill="none" stroke="black" points="46.2,-484.4 46.2,-515.2 321.65,-515.2 321.65,-484.4 46.2,-484.4"/>
<text text-anchor="start" x="53.2" y="-496.6" font-family="Arial" font-size="14.00">modified_at </text>
<text text-anchor="start" x="129.47" y="-496.6" font-family="Arial" font-size="14.00" fill="#666666">[timestamp without time zone]</text>
</g>
<!-- source.order&#45;&gt;source.store -->
<g id="edge1" class="edge">
<title>source.order:store_id&#45;&gt;source.store:id</title>
<path fill="none" stroke="black" d="M332.55,-558.55C378.75,-530.71 375.45,-308 322.65,-308"/>
<polygon fill="black" stroke="black" points="332.59,-558.54 321.73,-556.98 327.46,-560.02 323.3,-561.22 323.3,-561.22 323.3,-561.22 327.46,-560.02 324.22,-565.63 332.59,-558.54"/>
<text text-anchor="start" x="329.65" y="-571.4" font-family="Arial" font-size="10.00">FOREIGN KEY (store_id) REFERENCES source.store(id)</text>
</g>
</g>
</svg>
