<?xml version="1.0" encoding="UTF-8" standalone="no"?>
<!DOCTYPE svg PUBLIC "-//W3C//DTD SVG 1.1//EN"
 "http://www.w3.org/Graphics/SVG/1.1/DTD/svg11.dtd">
<!-- Generated by graphviz version 12.1.2 (20240928.0832)
 -->
<!-- Title: source.payment Pages: 1 -->
<svg width="926pt" height="725pt"
 viewBox="0.00 0.00 925.88 725.20" xmlns="http://www.w3.org/2000/svg" xmlns:xlink="http://www.w3.org/1999/xlink">
<g id="graph0" class="graph" transform="scale(1 1) rotate(0) translate(4 721.2)">
<title>source.payment</title>
<polygon fill="white" stroke="none" points="-4,4 -4,-721.2 921.88,-721.2 921.88,4 -4,4"/>
<!-- source.payment -->
<g id="node1" class="node">
<title>source.payment</title>
<polygon fill="#efefef" stroke="none" points="352.9,-635.4 352.9,-671 628.35,-671 628.35,-635.4 352.9,-635.4"/>
<polygon fill="none" stroke="black" points="352.9,-635.4 352.9,-671 628.35,-671 628.35,-635.4 352.9,-635.4"/>
<text text-anchor="start" x="371.65" y="-648.8" font-family="Arial Bold" font-size="18.00">source.payment</text>
<text text-anchor="start" x="485.11" y="-648.8" font-family="Arial" font-size="14.00">    </text>
<text text-anchor="start" x="516.23" y="-648.8" font-family="Arial" font-size="14.00" fill="#666666">[BASE TABLE]</text>
<polygon fill="none" stroke="black" points="352.9,-604.6 352.9,-635.4 628.35,-635.4 628.35,-604.6 352.9,-604.6"/>
<text text-anchor="start" x="359.9" y="-616.8" font-family="Arial" font-size="14.00">id </text>
<text text-anchor="start" x="374.69" y="-616.8" font-family="Arial" font-size="14.00" fill="#666666">[integer]</text>
<polygon fill="none" stroke="black" points="352.9,-573.8 352.9,-604.6 628.35,-604.6 628.35,-573.8 352.9,-573.8"/>
<text text-anchor="start" x="359.9" y="-586" font-family="Arial" font-size="14.00">amount </text>
<text text-anchor="start" x="410.49" y="-586" font-family="Arial" font-size="14.00" fill="#666666">[numeric(10,2)]</text>
<polygon fill="none" stroke="black" points="352.9,-543 352.9,-573.8 628.35,-573.8 628.35,-543 352.9,-543"/>
<text text-anchor="start" x="359.9" y="-555.2" font-family="Arial" font-size="14.00">payment_type_id </text>
<text text-anchor="start" x="470.42" y="-555.2" font-family="Arial" font-size="14.00" fill="#666666">[integer]</text>
<polygon fill="none" stroke="black" points="352.9,-512.2 352.9,-543 628.35,-543 628.35,-512.2 352.9,-512.2"/>
<text text-anchor="start" x="359.9" y="-524.4" font-family="Arial" font-size="14.00">payment_type_detail </text>
<text text-anchor="start" x="492.99" y="-524.4" font-family="Arial" font-size="14.00" fill="#666666">[varchar(100)]</text>
<polygon fill="none" stroke="black" points="352.9,-481.4 352.9,-512.2 628.35,-512.2 628.35,-481.4 352.9,-481.4"/>
<text text-anchor="start" x="359.9" y="-493.6" font-family="Arial" font-size="14.00">invoice_id </text>
<text text-anchor="start" x="426.05" y="-493.6" font-family="Arial" font-size="14.00" fill="#666666">[integer]</text>
<polygon fill="none" stroke="black" points="352.9,-450.6 352.9,-481.4 628.35,-481.4 628.35,-450.6 352.9,-450.6"/>
<text text-anchor="start" x="359.9" y="-462.8" font-family="Arial" font-size="14.00">created_at </text>
<text text-anchor="start" x="429.95" y="-462.8" font-family="Arial" font-size="14.00" fill="#666666">[timestamp without time zone]</text>
<polygon fill="none" stroke="black" points="352.9,-419.8 352.9,-450.6 628.35,-450.6 628.35,-419.8 352.9,-419.8"/>
<text text-anchor="start" x="359.9" y="-432" font-family="Arial" font-size="14.00">modified_at </text>
<text text-anchor="start" x="436.17" y="-432" font-family="Arial" font-size="14.00" fill="#666666">[timestamp without time zone]</text>
<polygon fill="none" stroke="black" stroke-width="3" points="351.4,-418.3 351.4,-672.5 629.85,-672.5 629.85,-418.3 351.4,-418.3"/>
</g>
<!-- source.payment_type -->
<g id="node2" class="node">
<title>source.payment_type</title>
<polygon fill="#efefef" stroke="none" points="150.66,-243.4 150.66,-279 442.6,-279 442.6,-243.4 150.66,-243.4"/>
<polygon fill="none" stroke="black" points="150.66,-243.4 150.66,-279 442.6,-279 442.6,-243.4 150.66,-243.4"/>
<text text-anchor="start" x="157.66" y="-256.8" font-family="Arial Bold" font-size="18.00">source.payment_type</text>
<text text-anchor="start" x="311.11" y="-256.8" font-family="Arial" font-size="14.00">    </text>
<text text-anchor="start" x="342.22" y="-256.8" font-family="Arial" font-size="14.00" fill="#666666">[BASE TABLE]</text>
<polygon fill="none" stroke="black" points="150.66,-212.6 150.66,-243.4 442.6,-243.4 442.6,-212.6 150.66,-212.6"/>
<text text-anchor="start" x="157.66" y="-224.8" font-family="Arial" font-size="14.00">id </text>
<text text-anchor="start" x="172.44" y="-224.8" font-family="Arial" font-size="14.00" fill="#666666">[integer]</text>
<polygon fill="none" stroke="black" points="150.66,-181.8 150.66,-212.6 442.6,-212.6 442.6,-181.8 150.66,-181.8"/>
<text text-anchor="start" x="157.66" y="-194" font-family="Arial" font-size="14.00">payment_type </text>
<text text-anchor="start" x="249.49" y="-194" font-family="Arial" font-size="14.00" fill="#666666">[source.payment_enum]</text>
<polygon fill="none" stroke="black" points="150.66,-151 150.66,-181.8 442.6,-181.8 442.6,-151 150.66,-151"/>
<text text-anchor="start" x="157.66" y="-163.2" font-family="Arial" font-size="14.00">financial_account_id </text>
<text text-anchor="start" x="288.42" y="-163.2" font-family="Arial" font-size="14.00" fill="#666666">[integer]</text>
<polygon fill="none" stroke="black" points="150.66,-120.2 150.66,-151 442.6,-151 442.6,-120.2 150.66,-120.2"/>
<text text-anchor="start" x="157.66" y="-132.4" font-family="Arial" font-size="14.00">payment_type_description </text>
<text text-anchor="start" x="324.98" y="-132.4" font-family="Arial" font-size="14.00" fill="#666666">[varchar(100)]</text>
<polygon fill="none" stroke="black" points="150.66,-89.4 150.66,-120.2 442.6,-120.2 442.6,-89.4 150.66,-89.4"/>
<text text-anchor="start" x="157.66" y="-101.6" font-family="Arial" font-size="14.00">created_at </text>
<text text-anchor="start" x="227.71" y="-101.6" font-family="Arial" font-size="14.00" fill="#666666">[timestamp without time zone]</text>
<polygon fill="none" stroke="black" points="150.66,-58.6 150.66,-89.4 442.6,-89.4 442.6,-58.6 150.66,-58.6"/>
<text text-anchor="start" x="157.66" y="-70.8" font-family="Arial" font-size="14.00">modified_at </text>
<text text-anchor="start" x="233.93" y="-70.8" font-family="Arial" font-size="14.00" fill="#666666">[timestamp without time zone]</text>
</g>
<!-- source.payment&#45;&gt;source.payment_type -->
<g id="edge1" class="edge">
<title>source.payment:payment_type_id&#45;&gt;source.payment_type:id</title>
<path fill="none" stroke="black" d="M341.57,-557.72C273.52,-548.26 313.38,-441.37 352.9,-373.6 376.05,-333.91 419.35,-361.83 442.6,-322.2 463.78,-286.09 485.47,-228 443.6,-228"/>
<polygon fill="black" stroke="black" points="341.59,-557.73 351.27,-562.87 346.91,-558.07 351.23,-558.36 351.23,-558.36 351.23,-558.36 346.91,-558.07 351.86,-553.89 341.59,-557.73"/>
<text text-anchor="start" x="7" y="-568.4" font-family="Arial" font-size="10.00">FOREIGN KEY (payment_type_id) REFERENCES source.payment_type(id)</text>
</g>
<!-- source.invoice -->
<g id="node3" class="node">
<title>source.invoice</title>
<polygon fill="#efefef" stroke="none" points="546.9,-258.8 546.9,-294.4 822.35,-294.4 822.35,-258.8 546.9,-258.8"/>
<polygon fill="none" stroke="black" points="546.9,-258.8 546.9,-294.4 822.35,-294.4 822.35,-258.8 546.9,-258.8"/>
<text text-anchor="start" x="570.15" y="-272.2" font-family="Arial Bold" font-size="18.00">source.invoice</text>
<text text-anchor="start" x="674.61" y="-272.2" font-family="Arial" font-size="14.00">    </text>
<text text-anchor="start" x="705.73" y="-272.2" font-family="Arial" font-size="14.00" fill="#666666">[BASE TABLE]</text>
<polygon fill="none" stroke="black" points="546.9,-228 546.9,-258.8 822.35,-258.8 822.35,-228 546.9,-228"/>
<text text-anchor="start" x="553.9" y="-240.2" font-family="Arial" font-size="14.00">id </text>
<text text-anchor="start" x="568.69" y="-240.2" font-family="Arial" font-size="14.00" fill="#666666">[integer]</text>
<polygon fill="none" stroke="black" points="546.9,-197.2 546.9,-228 822.35,-228 822.35,-197.2 546.9,-197.2"/>
<text text-anchor="start" x="553.9" y="-209.4" font-family="Arial" font-size="14.00">order_id </text>
<text text-anchor="start" x="609.16" y="-209.4" font-family="Arial" font-size="14.00" fill="#666666">[integer]</text>
<polygon fill="none" stroke="black" points="546.9,-166.4 546.9,-197.2 822.35,-197.2 822.35,-166.4 546.9,-166.4"/>
<text text-anchor="start" x="553.9" y="-178.6" font-family="Arial" font-size="14.00">total_amount </text>
<text text-anchor="start" x="638.73" y="-178.6" font-family="Arial" font-size="14.00" fill="#666666">[numeric(10,2)]</text>
<polygon fill="none" stroke="black" points="546.9,-135.6 546.9,-166.4 822.35,-166.4 822.35,-135.6 546.9,-135.6"/>
<text text-anchor="start" x="553.9" y="-147.8" font-family="Arial" font-size="14.00">currency </text>
<text text-anchor="start" x="611.47" y="-147.8" font-family="Arial" font-size="14.00" fill="#666666">[varchar(3)]</text>
<polygon fill="none" stroke="black" points="546.9,-104.8 546.9,-135.6 822.35,-135.6 822.35,-104.8 546.9,-104.8"/>
<text text-anchor="start" x="553.9" y="-117" font-family="Arial" font-size="14.00">is_voided </text>
<text text-anchor="start" x="616.94" y="-117" font-family="Arial" font-size="14.00" fill="#666666">[boolean]</text>
<polygon fill="none" stroke="black" points="546.9,-74 546.9,-104.8 822.35,-104.8 822.35,-74 546.9,-74"/>
<text text-anchor="start" x="553.9" y="-86.2" font-family="Arial" font-size="14.00">created_at </text>
<text text-anchor="start" x="623.95" y="-86.2" font-family="Arial" font-size="14.00" fill="#666666">[timestamp without time zone]</text>
<polygon fill="none" stroke="black" points="546.9,-43.2 546.9,-74 822.35,-74 822.35,-43.2 546.9,-43.2"/>
<text text-anchor="start" x="553.9" y="-55.4" font-family="Arial" font-size="14.00">modified_at </text>
<text text-anchor="start" x="630.17" y="-55.4" font-family="Arial" font-size="14.00" fill="#666666">[timestamp without time zone]</text>
</g>
<!-- source.payment&#45;&gt;source.invoice -->
<g id="edge2" class="edge">
<title>source.payment:invoice_id&#45;&gt;source.invoice:id</title>
<path fill="none" stroke="black" d="M639.48,-495.75C680.58,-486.36 656.37,-416.23 628.35,-373.6 606.62,-340.52 568.68,-370.65 546.9,-337.6 523.86,-302.64 504.03,-243.4 545.9,-243.4"/>
<polygon fill="black" stroke="black" points="639.63,-495.73 629.22,-492.29 634.33,-496.28 630.02,-496.73 630.02,-496.73 630.02,-496.73 634.33,-496.28 630.15,-501.24 639.63,-495.73"/>
<text text-anchor="start" x="636.35" y="-506.8" font-family="Arial" font-size="10.00">FOREIGN KEY (invoice_id) REFERENCES source.invoice(id)</text>
</g>
</g>
</svg>
