<?xml version="1.0" encoding="UTF-8" standalone="no"?>
<!DOCTYPE svg PUBLIC "-//W3C//DTD SVG 1.1//EN"
 "http://www.w3.org/Graphics/SVG/1.1/DTD/svg11.dtd">
<!-- Generated by graphviz version 12.1.2 (20240928.0832)
 -->
<!-- Title: source.product Pages: 1 -->
<svg width="910pt" height="976pt"
 viewBox="0.00 0.00 909.70 975.60" xmlns="http://www.w3.org/2000/svg" xmlns:xlink="http://www.w3.org/1999/xlink">
<g id="graph0" class="graph" transform="scale(1 1) rotate(0) translate(4 971.6)">
<title>source.product</title>
<polygon fill="white" stroke="none" points="-4,4 -4,-971.6 905.7,-971.6 905.7,4 -4,4"/>
<!-- source.product -->
<g id="node1" class="node">
<title>source.product</title>
<polygon fill="#efefef" stroke="none" points="244.44,-481.4 244.44,-517 519.89,-517 519.89,-481.4 244.44,-481.4"/>
<polygon fill="none" stroke="black" points="244.44,-481.4 244.44,-517 519.89,-517 519.89,-481.4 244.44,-481.4"/>
<text text-anchor="start" x="266.69" y="-494.8" font-family="Arial Bold" font-size="18.00">source.product</text>
<text text-anchor="start" x="373.15" y="-494.8" font-family="Arial" font-size="14.00">    </text>
<text text-anchor="start" x="404.27" y="-494.8" font-family="Arial" font-size="14.00" fill="#666666">[BASE TABLE]</text>
<polygon fill="none" stroke="black" points="244.44,-450.6 244.44,-481.4 519.89,-481.4 519.89,-450.6 244.44,-450.6"/>
<text text-anchor="start" x="251.44" y="-462.8" font-family="Arial" font-size="14.00">id </text>
<text text-anchor="start" x="266.22" y="-462.8" font-family="Arial" font-size="14.00" fill="#666666">[integer]</text>
<polygon fill="none" stroke="black" points="244.44,-419.8 244.44,-450.6 519.89,-450.6 519.89,-419.8 244.44,-419.8"/>
<text text-anchor="start" x="251.44" y="-432" font-family="Arial" font-size="14.00">product_name </text>
<text text-anchor="start" x="344.83" y="-432" font-family="Arial" font-size="14.00" fill="#666666">[varchar(100)]</text>
<polygon fill="none" stroke="black" points="244.44,-389 244.44,-419.8 519.89,-419.8 519.89,-389 244.44,-389"/>
<text text-anchor="start" x="251.44" y="-401.2" font-family="Arial" font-size="14.00">product_category_id </text>
<text text-anchor="start" x="382.19" y="-401.2" font-family="Arial" font-size="14.00" fill="#666666">[integer]</text>
<polygon fill="none" stroke="black" points="244.44,-358.2 244.44,-389 519.89,-389 519.89,-358.2 244.44,-358.2"/>
<text text-anchor="start" x="251.44" y="-370.4" font-family="Arial" font-size="14.00">created_at </text>
<text text-anchor="start" x="321.48" y="-370.4" font-family="Arial" font-size="14.00" fill="#666666">[timestamp without time zone]</text>
<polygon fill="none" stroke="black" points="244.44,-327.4 244.44,-358.2 519.89,-358.2 519.89,-327.4 244.44,-327.4"/>
<text text-anchor="start" x="251.44" y="-339.6" font-family="Arial" font-size="14.00">modified_at </text>
<text text-anchor="start" x="327.7" y="-339.6" font-family="Arial" font-size="14.00" fill="#666666">[timestamp without time zone]</text>
<polygon fill="none" stroke="black" stroke-width="3" points="242.94,-325.9 242.94,-518.5 521.39,-518.5 521.39,-325.9 242.94,-325.9"/>
</g>
<!-- source.product_category -->
<g id="node4" class="node">
<title>source.product_category</title>
<polygon fill="#efefef" stroke="none" points="224.21,-166.4 224.21,-202 540.12,-202 540.12,-166.4 224.21,-166.4"/>
<polygon fill="none" stroke="black" points="224.21,-166.4 224.21,-202 540.12,-202 540.12,-166.4 224.21,-166.4"/>
<text text-anchor="start" x="231.21" y="-179.8" font-family="Arial Bold" font-size="18.00">source.product_category</text>
<text text-anchor="start" x="408.63" y="-179.8" font-family="Arial" font-size="14.00">    </text>
<text text-anchor="start" x="439.75" y="-179.8" font-family="Arial" font-size="14.00" fill="#666666">[BASE TABLE]</text>
<polygon fill="none" stroke="black" points="224.21,-135.6 224.21,-166.4 540.12,-166.4 540.12,-135.6 224.21,-135.6"/>
<text text-anchor="start" x="231.21" y="-147.8" font-family="Arial" font-size="14.00">id </text>
<text text-anchor="start" x="245.99" y="-147.8" font-family="Arial" font-size="14.00" fill="#666666">[integer]</text>
<polygon fill="none" stroke="black" points="224.21,-104.8 224.21,-135.6 540.12,-135.6 540.12,-104.8 224.21,-104.8"/>
<text text-anchor="start" x="231.21" y="-117" font-family="Arial" font-size="14.00">product_category_name </text>
<text text-anchor="start" x="386.08" y="-117" font-family="Arial" font-size="14.00" fill="#666666">[varchar(100)]</text>
<polygon fill="none" stroke="black" points="224.21,-74 224.21,-104.8 540.12,-104.8 540.12,-74 224.21,-74"/>
<text text-anchor="start" x="231.21" y="-86.2" font-family="Arial" font-size="14.00">created_at </text>
<text text-anchor="start" x="301.25" y="-86.2" font-family="Arial" font-size="14.00" fill="#666666">[timestamp without time zone]</text>
<polygon fill="none" stroke="black" points="224.21,-43.2 224.21,-74 540.12,-74 540.12,-43.2 224.21,-43.2"/>
<text text-anchor="start" x="231.21" y="-55.4" font-family="Arial" font-size="14.00">modified_at </text>
<text text-anchor="start" x="307.47" y="-55.4" font-family="Arial" font-size="14.00" fill="#666666">[timestamp without time zone]</text>
</g>
<!-- source.product&#45;&gt;source.product_category -->
<g id="edge3" class="edge">
<title>source.product:product_category_id&#45;&gt;source.product_category:id</title>
<path fill="none" stroke="black" d="M531.21,-403.67C635,-388.81 650.57,-151 541.12,-151"/>
<polygon fill="black" stroke="black" points="531.2,-403.67 520.91,-399.89 525.88,-404.05 521.56,-404.35 521.56,-404.35 521.56,-404.35 525.88,-404.05 521.54,-408.87 531.2,-403.67"/>
<text text-anchor="start" x="527.89" y="-414.4" font-family="Arial" font-size="10.00">FOREIGN KEY (product_category_id) REFERENCES source.product_category(id)</text>
</g>
<!-- source.product_price -->
<g id="node2" class="node">
<title>source.product_price</title>
<polygon fill="#efefef" stroke="none" points="43.2,-888.8 43.2,-924.4 333.12,-924.4 333.12,-888.8 43.2,-888.8"/>
<polygon fill="none" stroke="black" points="43.2,-888.8 43.2,-924.4 333.12,-924.4 333.12,-888.8 43.2,-888.8"/>
<text text-anchor="start" x="50.2" y="-902.2" font-family="Arial Bold" font-size="18.00">source.product_price</text>
<text text-anchor="start" x="201.64" y="-902.2" font-family="Arial" font-size="14.00">    </text>
<text text-anchor="start" x="232.75" y="-902.2" font-family="Arial" font-size="14.00" fill="#666666">[BASE TABLE]</text>
<polygon fill="none" stroke="black" points="43.2,-858 43.2,-888.8 333.12,-888.8 333.12,-858 43.2,-858"/>
<text text-anchor="start" x="50.2" y="-870.2" font-family="Arial" font-size="14.00">id </text>
<text text-anchor="start" x="64.99" y="-870.2" font-family="Arial" font-size="14.00" fill="#666666">[integer]</text>
<polygon fill="none" stroke="black" points="43.2,-827.2 43.2,-858 333.12,-858 333.12,-827.2 43.2,-827.2"/>
<text text-anchor="start" x="50.2" y="-839.4" font-family="Arial" font-size="14.00">product_id </text>
<text text-anchor="start" x="119.47" y="-839.4" font-family="Arial" font-size="14.00" fill="#666666">[integer]</text>
<polygon fill="none" stroke="black" points="43.2,-796.4 43.2,-827.2 333.12,-827.2 333.12,-796.4 43.2,-796.4"/>
<text text-anchor="start" x="50.2" y="-808.6" font-family="Arial" font-size="14.00">price </text>
<text text-anchor="start" x="84.43" y="-808.6" font-family="Arial" font-size="14.00" fill="#666666">[numeric(10,2)]</text>
<polygon fill="none" stroke="black" points="43.2,-765.6 43.2,-796.4 333.12,-796.4 333.12,-765.6 43.2,-765.6"/>
<text text-anchor="start" x="50.2" y="-777.8" font-family="Arial" font-size="14.00">is_active </text>
<text text-anchor="start" x="108.56" y="-777.8" font-family="Arial" font-size="14.00" fill="#666666">[boolean]</text>
<polygon fill="none" stroke="black" points="43.2,-734.8 43.2,-765.6 333.12,-765.6 333.12,-734.8 43.2,-734.8"/>
<text text-anchor="start" x="50.2" y="-747" font-family="Arial" font-size="14.00">valid_from </text>
<text text-anchor="start" x="118.67" y="-747" font-family="Arial" font-size="14.00" fill="#666666">[timestamp without time zone]</text>
<polygon fill="none" stroke="black" points="43.2,-704 43.2,-734.8 333.12,-734.8 333.12,-704 43.2,-704"/>
<text text-anchor="start" x="50.2" y="-716.2" font-family="Arial" font-size="14.00">valid_to </text>
<text text-anchor="start" x="102.34" y="-716.2" font-family="Arial" font-size="14.00" fill="#666666">[timestamp without time zone]</text>
<polygon fill="none" stroke="black" points="43.2,-673.2 43.2,-704 333.12,-704 333.12,-673.2 43.2,-673.2"/>
<text text-anchor="start" x="50.2" y="-685.4" font-family="Arial" font-size="14.00">created_at </text>
<text text-anchor="start" x="120.25" y="-685.4" font-family="Arial" font-size="14.00" fill="#666666">[timestamp without time zone]</text>
<polygon fill="none" stroke="black" points="43.2,-642.4 43.2,-673.2 333.12,-673.2 333.12,-642.4 43.2,-642.4"/>
<text text-anchor="start" x="50.2" y="-654.6" font-family="Arial" font-size="14.00">modified_at </text>
<text text-anchor="start" x="126.47" y="-654.6" font-family="Arial" font-size="14.00" fill="#666666">[timestamp without time zone]</text>
</g>
<!-- source.product_price&#45;&gt;source.product -->
<g id="edge1" class="edge">
<title>source.product_price:product_id&#45;&gt;source.product:id</title>
<path fill="none" stroke="black" d="M344.14,-839.93C384.8,-816.17 361.36,-640.94 333.12,-599.2 309.29,-563.96 268.38,-598.36 244.44,-563.2 220.12,-527.49 200.23,-466 243.44,-466"/>
<polygon fill="black" stroke="black" points="344.11,-839.94 333.29,-838.17 338.96,-841.31 334.77,-842.43 334.77,-842.43 334.77,-842.43 338.96,-841.31 335.61,-846.86 344.11,-839.94"/>
<text text-anchor="start" x="341.12" y="-852.6" font-family="Arial" font-size="10.00">FOREIGN KEY (product_id) REFERENCES source.product(id)</text>
</g>
<!-- source.order_detail -->
<g id="node3" class="node">
<title>source.order_detail</title>
<polygon fill="#efefef" stroke="none" points="437.7,-873.4 437.7,-909 714.63,-909 714.63,-873.4 437.7,-873.4"/>
<polygon fill="none" stroke="black" points="437.7,-873.4 437.7,-909 714.63,-909 714.63,-873.4 437.7,-873.4"/>
<text text-anchor="start" x="444.7" y="-886.8" font-family="Arial Bold" font-size="18.00">source.order_detail</text>
<text text-anchor="start" x="583.14" y="-886.8" font-family="Arial" font-size="14.00">    </text>
<text text-anchor="start" x="614.25" y="-886.8" font-family="Arial" font-size="14.00" fill="#666666">[BASE TABLE]</text>
<polygon fill="none" stroke="black" points="437.7,-842.6 437.7,-873.4 714.63,-873.4 714.63,-842.6 437.7,-842.6"/>
<text text-anchor="start" x="444.7" y="-854.8" font-family="Arial" font-size="14.00">id </text>
<text text-anchor="start" x="459.49" y="-854.8" font-family="Arial" font-size="14.00" fill="#666666">[integer]</text>
<polygon fill="none" stroke="black" points="437.7,-811.8 437.7,-842.6 714.63,-842.6 714.63,-811.8 437.7,-811.8"/>
<text text-anchor="start" x="444.7" y="-824" font-family="Arial" font-size="14.00">order_id </text>
<text text-anchor="start" x="499.95" y="-824" font-family="Arial" font-size="14.00" fill="#666666">[integer]</text>
<polygon fill="none" stroke="black" points="437.7,-781 437.7,-811.8 714.63,-811.8 714.63,-781 437.7,-781"/>
<text text-anchor="start" x="444.7" y="-793.2" font-family="Arial" font-size="14.00">product_id </text>
<text text-anchor="start" x="513.97" y="-793.2" font-family="Arial" font-size="14.00" fill="#666666">[integer]</text>
<polygon fill="none" stroke="black" points="437.7,-750.2 437.7,-781 714.63,-781 714.63,-750.2 437.7,-750.2"/>
<text text-anchor="start" x="444.7" y="-762.4" font-family="Arial" font-size="14.00">product_price_id </text>
<text text-anchor="start" x="552.1" y="-762.4" font-family="Arial" font-size="14.00" fill="#666666">[integer]</text>
<polygon fill="none" stroke="black" points="437.7,-719.4 437.7,-750.2 714.63,-750.2 714.63,-719.4 437.7,-719.4"/>
<text text-anchor="start" x="444.7" y="-731.6" font-family="Arial" font-size="14.00">quantity </text>
<text text-anchor="start" x="497.62" y="-731.6" font-family="Arial" font-size="14.00" fill="#666666">[integer]</text>
<polygon fill="none" stroke="black" points="437.7,-688.6 437.7,-719.4 714.63,-719.4 714.63,-688.6 437.7,-688.6"/>
<text text-anchor="start" x="444.7" y="-700.8" font-family="Arial" font-size="14.00">created_at </text>
<text text-anchor="start" x="514.75" y="-700.8" font-family="Arial" font-size="14.00" fill="#666666">[timestamp without time zone]</text>
<polygon fill="none" stroke="black" points="437.7,-657.8 437.7,-688.6 714.63,-688.6 714.63,-657.8 437.7,-657.8"/>
<text text-anchor="start" x="444.7" y="-670" font-family="Arial" font-size="14.00">modified_at </text>
<text text-anchor="start" x="520.97" y="-670" font-family="Arial" font-size="14.00" fill="#666666">[timestamp without time zone]</text>
</g>
<!-- source.order_detail&#45;&gt;source.product -->
<g id="edge2" class="edge">
<title>source.order_detail:product_id&#45;&gt;source.product:id</title>
<path fill="none" stroke="black" d="M426.54,-795.74C359.71,-786.49 400.11,-682 437.7,-614.6 458.68,-576.97 498.82,-600.78 519.89,-563.2 541.02,-525.52 564.09,-466 520.89,-466"/>
<polygon fill="black" stroke="black" points="426.39,-795.73 436.07,-800.87 431.71,-796.08 436.03,-796.36 436.03,-796.36 436.03,-796.36 431.71,-796.08 436.66,-791.89 426.39,-795.73"/>
<text text-anchor="start" x="443.7" y="-806.4" font-family="Arial" font-size="10.00">FOREIGN KEY (product_id) REFERENCES source.product(id)</text>
</g>
</g>
</svg>
