<?xml version="1.0" encoding="UTF-8" standalone="no"?>
<!DOCTYPE svg PUBLIC "-//W3C//DTD SVG 1.1//EN"
 "http://www.w3.org/Graphics/SVG/1.1/DTD/svg11.dtd">
<!-- Generated by graphviz version 12.1.2 (20240928.0832)
 -->
<!-- Title: source.financial_account Pages: 1 -->
<svg width="465pt" height="352pt"
 viewBox="0.00 0.00 465.40 351.60" xmlns="http://www.w3.org/2000/svg" xmlns:xlink="http://www.w3.org/1999/xlink">
<g id="graph0" class="graph" transform="scale(1 1) rotate(0) translate(4 347.6)">
<title>source.financial_account</title>
<polygon fill="white" stroke="none" points="-4,4 -4,-347.6 461.4,-347.6 461.4,4 -4,4"/>
<!-- source.financial_account -->
<g id="node1" class="node">
<title>source.financial_account</title>
<polygon fill="#efefef" stroke="none" points="46.2,-261.8 46.2,-297.4 411.2,-297.4 411.2,-261.8 46.2,-261.8"/>
<polygon fill="none" stroke="black" points="46.2,-261.8 46.2,-297.4 411.2,-297.4 411.2,-261.8 46.2,-261.8"/>
<text text-anchor="start" x="76.75" y="-275.2" font-family="Arial Bold" font-size="18.00">source.financial_account</text>
<text text-anchor="start" x="256.16" y="-275.2" font-family="Arial" font-size="14.00">    </text>
<text text-anchor="start" x="287.28" y="-275.2" font-family="Arial" font-size="14.00" fill="#666666">[BASE TABLE]</text>
<polygon fill="none" stroke="black" points="46.2,-231 46.2,-261.8 411.2,-261.8 411.2,-231 46.2,-231"/>
<text text-anchor="start" x="53.2" y="-243.2" font-family="Arial" font-size="14.00">id </text>
<text text-anchor="start" x="67.99" y="-243.2" font-family="Arial" font-size="14.00" fill="#666666">[integer]</text>
<polygon fill="none" stroke="black" points="46.2,-200.2 46.2,-231 411.2,-231 411.2,-200.2 46.2,-200.2"/>
<text text-anchor="start" x="53.2" y="-212.4" font-family="Arial" font-size="14.00">financial_account_name </text>
<text text-anchor="start" x="208.08" y="-212.4" font-family="Arial" font-size="14.00" fill="#666666">[varchar(100)]</text>
<polygon fill="none" stroke="black" points="46.2,-169.4 46.2,-200.2 411.2,-200.2 411.2,-169.4 46.2,-169.4"/>
<text text-anchor="start" x="53.2" y="-181.6" font-family="Arial" font-size="14.00">financial_account_type </text>
<text text-anchor="start" x="199.52" y="-181.6" font-family="Arial" font-size="14.00" fill="#666666">[source.financial_account_enum]</text>
<polygon fill="none" stroke="black" points="46.2,-138.6 46.2,-169.4 411.2,-169.4 411.2,-138.6 46.2,-138.6"/>
<text text-anchor="start" x="53.2" y="-150.8" font-family="Arial" font-size="14.00">financial_account_description </text>
<text text-anchor="start" x="240.76" y="-150.8" font-family="Arial" font-size="14.00" fill="#666666">[text]</text>
<polygon fill="none" stroke="black" points="46.2,-107.8 46.2,-138.6 411.2,-138.6 411.2,-107.8 46.2,-107.8"/>
<text text-anchor="start" x="53.2" y="-120" font-family="Arial" font-size="14.00">is_active </text>
<text text-anchor="start" x="111.56" y="-120" font-family="Arial" font-size="14.00" fill="#666666">[boolean]</text>
<polygon fill="none" stroke="black" points="46.2,-77 46.2,-107.8 411.2,-107.8 411.2,-77 46.2,-77"/>
<text text-anchor="start" x="53.2" y="-89.2" font-family="Arial" font-size="14.00">created_at </text>
<text text-anchor="start" x="123.25" y="-89.2" font-family="Arial" font-size="14.00" fill="#666666">[timestamp without time zone]</text>
<polygon fill="none" stroke="black" points="46.2,-46.2 46.2,-77 411.2,-77 411.2,-46.2 46.2,-46.2"/>
<text text-anchor="start" x="53.2" y="-58.4" font-family="Arial" font-size="14.00">modified_at </text>
<text text-anchor="start" x="129.47" y="-58.4" font-family="Arial" font-size="14.00" fill="#666666">[timestamp without time zone]</text>
<polygon fill="none" stroke="black" stroke-width="3" points="44.7,-44.7 44.7,-298.9 412.7,-298.9 412.7,-44.7 44.7,-44.7"/>
</g>
</g>
</svg>
