<?xml version="1.0" encoding="UTF-8" standalone="no"?>
<!DOCTYPE svg PUBLIC "-//W3C//DTD SVG 1.1//EN"
 "http://www.w3.org/Graphics/SVG/1.1/DTD/svg11.dtd">
<!-- Generated by graphviz version 12.1.2 (20240928.0832)
 -->
<!-- Title: source.order Pages: 1 -->
<svg width="865pt" height="1160pt"
 viewBox="0.00 0.00 864.69 1160.40" xmlns="http://www.w3.org/2000/svg" xmlns:xlink="http://www.w3.org/1999/xlink">
<g id="graph0" class="graph" transform="scale(1 1) rotate(0) translate(4 1156.4)">
<title>source.order</title>
<polygon fill="white" stroke="none" points="-4,4 -4,-1156.4 860.69,-1156.4 860.69,4 -4,4"/>
<!-- source.order -->
<g id="node1" class="node">
<title>source.order</title>
<polygon fill="#efefef" stroke="none" points="309.51,-697 309.51,-732.6 584.97,-732.6 584.97,-697 309.51,-697"/>
<polygon fill="none" stroke="black" points="309.51,-697 309.51,-732.6 584.97,-732.6 584.97,-697 309.51,-697"/>
<text text-anchor="start" x="340.27" y="-710.4" font-family="Arial Bold" font-size="18.00">source.order</text>
<text text-anchor="start" x="429.72" y="-710.4" font-family="Arial" font-size="14.00">    </text>
<text text-anchor="start" x="460.84" y="-710.4" font-family="Arial" font-size="14.00" fill="#666666">[BASE TABLE]</text>
<polygon fill="none" stroke="black" points="309.51,-666.2 309.51,-697 584.97,-697 584.97,-666.2 309.51,-666.2"/>
<text text-anchor="start" x="316.51" y="-678.4" font-family="Arial" font-size="14.00">id </text>
<text text-anchor="start" x="331.3" y="-678.4" font-family="Arial" font-size="14.00" fill="#666666">[integer]</text>
<polygon fill="none" stroke="black" points="309.51,-635.4 309.51,-666.2 584.97,-666.2 584.97,-635.4 309.51,-635.4"/>
<text text-anchor="start" x="316.51" y="-647.6" font-family="Arial" font-size="14.00">customer_id </text>
<text text-anchor="start" x="396.66" y="-647.6" font-family="Arial" font-size="14.00" fill="#666666">[integer]</text>
<polygon fill="none" stroke="black" points="309.51,-604.6 309.51,-635.4 584.97,-635.4 584.97,-604.6 309.51,-604.6"/>
<text text-anchor="start" x="316.51" y="-616.8" font-family="Arial" font-size="14.00">store_id </text>
<text text-anchor="start" x="370.21" y="-616.8" font-family="Arial" font-size="14.00" fill="#666666">[integer]</text>
<polygon fill="none" stroke="black" points="309.51,-573.8 309.51,-604.6 584.97,-604.6 584.97,-573.8 309.51,-573.8"/>
<text text-anchor="start" x="316.51" y="-586" font-family="Arial" font-size="14.00">created_at </text>
<text text-anchor="start" x="386.56" y="-586" font-family="Arial" font-size="14.00" fill="#666666">[timestamp without time zone]</text>
<polygon fill="none" stroke="black" points="309.51,-543 309.51,-573.8 584.97,-573.8 584.97,-543 309.51,-543"/>
<text text-anchor="start" x="316.51" y="-555.2" font-family="Arial" font-size="14.00">modified_at </text>
<text text-anchor="start" x="392.78" y="-555.2" font-family="Arial" font-size="14.00" fill="#666666">[timestamp without time zone]</text>
<polygon fill="none" stroke="black" stroke-width="3" points="308.01,-541.5 308.01,-734.1 586.47,-734.1 586.47,-541.5 308.01,-541.5"/>
</g>
<!-- source.customer -->
<g id="node4" class="node">
<title>source.customer</title>
<polygon fill="#efefef" stroke="none" points="119.51,-382 119.51,-417.6 394.97,-417.6 394.97,-382 119.51,-382"/>
<polygon fill="none" stroke="black" points="119.51,-382 119.51,-417.6 394.97,-417.6 394.97,-382 119.51,-382"/>
<text text-anchor="start" x="136.27" y="-395.4" font-family="Arial Bold" font-size="18.00">source.customer</text>
<text text-anchor="start" x="253.72" y="-395.4" font-family="Arial" font-size="14.00">    </text>
<text text-anchor="start" x="284.84" y="-395.4" font-family="Arial" font-size="14.00" fill="#666666">[BASE TABLE]</text>
<polygon fill="none" stroke="black" points="119.51,-351.2 119.51,-382 394.97,-382 394.97,-351.2 119.51,-351.2"/>
<text text-anchor="start" x="126.51" y="-363.4" font-family="Arial" font-size="14.00">id </text>
<text text-anchor="start" x="141.3" y="-363.4" font-family="Arial" font-size="14.00" fill="#666666">[integer]</text>
<polygon fill="none" stroke="black" points="119.51,-320.4 119.51,-351.2 394.97,-351.2 394.97,-320.4 119.51,-320.4"/>
<text text-anchor="start" x="126.51" y="-332.6" font-family="Arial" font-size="14.00">customer_name </text>
<text text-anchor="start" x="230.78" y="-332.6" font-family="Arial" font-size="14.00" fill="#666666">[varchar(100)]</text>
<polygon fill="none" stroke="black" points="119.51,-289.6 119.51,-320.4 394.97,-320.4 394.97,-289.6 119.51,-289.6"/>
<text text-anchor="start" x="126.51" y="-301.8" font-family="Arial" font-size="14.00">customer_email </text>
<text text-anchor="start" x="229.21" y="-301.8" font-family="Arial" font-size="14.00" fill="#666666">[varchar(100)]</text>
<polygon fill="none" stroke="black" points="119.51,-258.8 119.51,-289.6 394.97,-289.6 394.97,-258.8 119.51,-258.8"/>
<text text-anchor="start" x="126.51" y="-271" font-family="Arial" font-size="14.00">address </text>
<text text-anchor="start" x="180.21" y="-271" font-family="Arial" font-size="14.00" fill="#666666">[varchar(100)]</text>
<polygon fill="none" stroke="black" points="119.51,-228 119.51,-258.8 394.97,-258.8 394.97,-228 119.51,-228"/>
<text text-anchor="start" x="126.51" y="-240.2" font-family="Arial" font-size="14.00">address_2 </text>
<text text-anchor="start" x="195.78" y="-240.2" font-family="Arial" font-size="14.00" fill="#666666">[varchar(100)]</text>
<polygon fill="none" stroke="black" points="119.51,-197.2 119.51,-228 394.97,-228 394.97,-197.2 119.51,-197.2"/>
<text text-anchor="start" x="126.51" y="-209.4" font-family="Arial" font-size="14.00">city </text>
<text text-anchor="start" x="151.4" y="-209.4" font-family="Arial" font-size="14.00" fill="#666666">[varchar(50)]</text>
<polygon fill="none" stroke="black" points="119.51,-166.4 119.51,-197.2 394.97,-197.2 394.97,-166.4 119.51,-166.4"/>
<text text-anchor="start" x="126.51" y="-178.6" font-family="Arial" font-size="14.00">zip_code </text>
<text text-anchor="start" x="186.44" y="-178.6" font-family="Arial" font-size="14.00" fill="#666666">[integer]</text>
<polygon fill="none" stroke="black" points="119.51,-135.6 119.51,-166.4 394.97,-166.4 394.97,-135.6 119.51,-135.6"/>
<text text-anchor="start" x="126.51" y="-147.8" font-family="Arial" font-size="14.00">state </text>
<text text-anchor="start" x="160.75" y="-147.8" font-family="Arial" font-size="14.00" fill="#666666">[varchar(3)]</text>
<polygon fill="none" stroke="black" points="119.51,-104.8 119.51,-135.6 394.97,-135.6 394.97,-104.8 119.51,-104.8"/>
<text text-anchor="start" x="126.51" y="-117" font-family="Arial" font-size="14.00">country </text>
<text text-anchor="start" x="176.31" y="-117" font-family="Arial" font-size="14.00" fill="#666666">[varchar(50)]</text>
<polygon fill="none" stroke="black" points="119.51,-74 119.51,-104.8 394.97,-104.8 394.97,-74 119.51,-74"/>
<text text-anchor="start" x="126.51" y="-86.2" font-family="Arial" font-size="14.00">created_at </text>
<text text-anchor="start" x="196.56" y="-86.2" font-family="Arial" font-size="14.00" fill="#666666">[timestamp without time zone]</text>
<polygon fill="none" stroke="black" points="119.51,-43.2 119.51,-74 394.97,-74 394.97,-43.2 119.51,-43.2"/>
<text text-anchor="start" x="126.51" y="-55.4" font-family="Arial" font-size="14.00">modified_at </text>
<text text-anchor="start" x="202.78" y="-55.4" font-family="Arial" font-size="14.00" fill="#666666">[timestamp without time zone]</text>
</g>
<!-- source.order&#45;&gt;source.customer -->
<g id="edge3" class="edge">
<title>source.order:customer_id&#45;&gt;source.customer:id</title>
<path fill="none" stroke="black" d="M298.16,-649.95C243.52,-640.3 273.55,-550.59 309.51,-496.8 332.42,-462.54 371.99,-495.01 394.97,-460.8 418.31,-426.04 437.83,-366.6 395.97,-366.6"/>
<polygon fill="black" stroke="black" points="298.21,-649.96 307.81,-655.26 303.53,-650.39 307.84,-650.75 307.84,-650.75 307.84,-650.75 303.53,-650.39 308.55,-646.29 298.21,-649.96"/>
<text text-anchor="start" x="7" y="-660.8" font-family="Arial" font-size="10.00">FOREIGN KEY (customer_id) REFERENCES source.customer(id)</text>
</g>
<!-- source.store -->
<g id="node5" class="node">
<title>source.store</title>
<polygon fill="#efefef" stroke="none" points="499.51,-351.2 499.51,-386.8 774.97,-386.8 774.97,-351.2 499.51,-351.2"/>
<polygon fill="none" stroke="black" points="499.51,-351.2 499.51,-386.8 774.97,-386.8 774.97,-351.2 499.51,-351.2"/>
<text text-anchor="start" x="531.76" y="-364.6" font-family="Arial Bold" font-size="18.00">source.store</text>
<text text-anchor="start" x="618.23" y="-364.6" font-family="Arial" font-size="14.00">    </text>
<text text-anchor="start" x="649.34" y="-364.6" font-family="Arial" font-size="14.00" fill="#666666">[BASE TABLE]</text>
<polygon fill="none" stroke="black" points="499.51,-320.4 499.51,-351.2 774.97,-351.2 774.97,-320.4 499.51,-320.4"/>
<text text-anchor="start" x="506.51" y="-332.6" font-family="Arial" font-size="14.00">id </text>
<text text-anchor="start" x="521.3" y="-332.6" font-family="Arial" font-size="14.00" fill="#666666">[integer]</text>
<polygon fill="none" stroke="black" points="499.51,-289.6 499.51,-320.4 774.97,-320.4 774.97,-289.6 499.51,-289.6"/>
<text text-anchor="start" x="506.51" y="-301.8" font-family="Arial" font-size="14.00">store_name </text>
<text text-anchor="start" x="584.33" y="-301.8" font-family="Arial" font-size="14.00" fill="#666666">[varchar(100)]</text>
<polygon fill="none" stroke="black" points="499.51,-258.8 499.51,-289.6 774.97,-289.6 774.97,-258.8 499.51,-258.8"/>
<text text-anchor="start" x="506.51" y="-271" font-family="Arial" font-size="14.00">street </text>
<text text-anchor="start" x="545.42" y="-271" font-family="Arial" font-size="14.00" fill="#666666">[varchar(100)]</text>
<polygon fill="none" stroke="black" points="499.51,-228 499.51,-258.8 774.97,-258.8 774.97,-228 499.51,-228"/>
<text text-anchor="start" x="506.51" y="-240.2" font-family="Arial" font-size="14.00">city </text>
<text text-anchor="start" x="531.4" y="-240.2" font-family="Arial" font-size="14.00" fill="#666666">[varchar(100)]</text>
<polygon fill="none" stroke="black" points="499.51,-197.2 499.51,-228 774.97,-228 774.97,-197.2 499.51,-197.2"/>
<text text-anchor="start" x="506.51" y="-209.4" font-family="Arial" font-size="14.00">state </text>
<text text-anchor="start" x="540.75" y="-209.4" font-family="Arial" font-size="14.00" fill="#666666">[varchar(2)]</text>
<polygon fill="none" stroke="black" points="499.51,-166.4 499.51,-197.2 774.97,-197.2 774.97,-166.4 499.51,-166.4"/>
<text text-anchor="start" x="506.51" y="-178.6" font-family="Arial" font-size="14.00">zip_code </text>
<text text-anchor="start" x="566.44" y="-178.6" font-family="Arial" font-size="14.00" fill="#666666">[integer]</text>
<polygon fill="none" stroke="black" points="499.51,-135.6 499.51,-166.4 774.97,-166.4 774.97,-135.6 499.51,-135.6"/>
<text text-anchor="start" x="506.51" y="-147.8" font-family="Arial" font-size="14.00">country </text>
<text text-anchor="start" x="556.31" y="-147.8" font-family="Arial" font-size="14.00" fill="#666666">[varchar(50)]</text>
<polygon fill="none" stroke="black" points="499.51,-104.8 499.51,-135.6 774.97,-135.6 774.97,-104.8 499.51,-104.8"/>
<text text-anchor="start" x="506.51" y="-117" font-family="Arial" font-size="14.00">created_at </text>
<text text-anchor="start" x="576.56" y="-117" font-family="Arial" font-size="14.00" fill="#666666">[timestamp without time zone]</text>
<polygon fill="none" stroke="black" points="499.51,-74 499.51,-104.8 774.97,-104.8 774.97,-74 499.51,-74"/>
<text text-anchor="start" x="506.51" y="-86.2" font-family="Arial" font-size="14.00">modified_at </text>
<text text-anchor="start" x="582.78" y="-86.2" font-family="Arial" font-size="14.00" fill="#666666">[timestamp without time zone]</text>
</g>
<!-- source.order&#45;&gt;source.store -->
<g id="edge4" class="edge">
<title>source.order:store_id&#45;&gt;source.store:id</title>
<path fill="none" stroke="black" d="M596.27,-618.94C636.32,-609.71 607.46,-542.47 584.97,-496.8 563.66,-453.56 520.87,-473.22 499.51,-430 480.96,-392.46 456.64,-335.8 498.51,-335.8"/>
<polygon fill="black" stroke="black" points="596.25,-618.94 585.84,-615.49 590.94,-619.49 586.63,-619.93 586.63,-619.93 586.63,-619.93 590.94,-619.49 586.76,-624.44 596.25,-618.94"/>
<text text-anchor="start" x="592.97" y="-630" font-family="Arial" font-size="10.00">FOREIGN KEY (store_id) REFERENCES source.store(id)</text>
</g>
<!-- source.order_detail -->
<g id="node2" class="node">
<title>source.order_detail</title>
<polygon fill="#efefef" stroke="none" points="118.78,-1073.6 118.78,-1109.2 395.7,-1109.2 395.7,-1073.6 118.78,-1073.6"/>
<polygon fill="none" stroke="black" points="118.78,-1073.6 118.78,-1109.2 395.7,-1109.2 395.7,-1073.6 118.78,-1073.6"/>
<text text-anchor="start" x="125.78" y="-1087" font-family="Arial Bold" font-size="18.00">source.order_detail</text>
<text text-anchor="start" x="264.21" y="-1087" font-family="Arial" font-size="14.00">    </text>
<text text-anchor="start" x="295.33" y="-1087" font-family="Arial" font-size="14.00" fill="#666666">[BASE TABLE]</text>
<polygon fill="none" stroke="black" points="118.78,-1042.8 118.78,-1073.6 395.7,-1073.6 395.7,-1042.8 118.78,-1042.8"/>
<text text-anchor="start" x="125.78" y="-1055" font-family="Arial" font-size="14.00">id </text>
<text text-anchor="start" x="140.56" y="-1055" font-family="Arial" font-size="14.00" fill="#666666">[integer]</text>
<polygon fill="none" stroke="black" points="118.78,-1012 118.78,-1042.8 395.7,-1042.8 395.7,-1012 118.78,-1012"/>
<text text-anchor="start" x="125.78" y="-1024.2" font-family="Arial" font-size="14.00">order_id </text>
<text text-anchor="start" x="181.03" y="-1024.2" font-family="Arial" font-size="14.00" fill="#666666">[integer]</text>
<polygon fill="none" stroke="black" points="118.78,-981.2 118.78,-1012 395.7,-1012 395.7,-981.2 118.78,-981.2"/>
<text text-anchor="start" x="125.78" y="-993.4" font-family="Arial" font-size="14.00">product_id </text>
<text text-anchor="start" x="195.04" y="-993.4" font-family="Arial" font-size="14.00" fill="#666666">[integer]</text>
<polygon fill="none" stroke="black" points="118.78,-950.4 118.78,-981.2 395.7,-981.2 395.7,-950.4 118.78,-950.4"/>
<text text-anchor="start" x="125.78" y="-962.6" font-family="Arial" font-size="14.00">product_price_id </text>
<text text-anchor="start" x="233.18" y="-962.6" font-family="Arial" font-size="14.00" fill="#666666">[integer]</text>
<polygon fill="none" stroke="black" points="118.78,-919.6 118.78,-950.4 395.7,-950.4 395.7,-919.6 118.78,-919.6"/>
<text text-anchor="start" x="125.78" y="-931.8" font-family="Arial" font-size="14.00">quantity </text>
<text text-anchor="start" x="178.7" y="-931.8" font-family="Arial" font-size="14.00" fill="#666666">[integer]</text>
<polygon fill="none" stroke="black" points="118.78,-888.8 118.78,-919.6 395.7,-919.6 395.7,-888.8 118.78,-888.8"/>
<text text-anchor="start" x="125.78" y="-901" font-family="Arial" font-size="14.00">created_at </text>
<text text-anchor="start" x="195.82" y="-901" font-family="Arial" font-size="14.00" fill="#666666">[timestamp without time zone]</text>
<polygon fill="none" stroke="black" points="118.78,-858 118.78,-888.8 395.7,-888.8 395.7,-858 118.78,-858"/>
<text text-anchor="start" x="125.78" y="-870.2" font-family="Arial" font-size="14.00">modified_at </text>
<text text-anchor="start" x="202.04" y="-870.2" font-family="Arial" font-size="14.00" fill="#666666">[timestamp without time zone]</text>
</g>
<!-- source.order_detail&#45;&gt;source.order -->
<g id="edge1" class="edge">
<title>source.order_detail:order_id&#45;&gt;source.order:id</title>
<path fill="none" stroke="black" d="M406.54,-1024.37C440.49,-1001.13 419.93,-850.99 395.7,-814.8 372.61,-780.3 332.7,-813.23 309.51,-778.8 285.38,-742.97 265.31,-681.6 308.51,-681.6"/>
<polygon fill="black" stroke="black" points="406.58,-1024.36 395.7,-1023 401.48,-1025.93 397.34,-1027.2 397.34,-1027.2 397.34,-1027.2 401.48,-1025.93 398.35,-1031.6 406.58,-1024.36"/>
<text text-anchor="start" x="403.7" y="-1037.4" font-family="Arial" font-size="10.00">FOREIGN KEY (order_id) REFERENCES source.&quot;order&quot;(id)</text>
</g>
<!-- source.invoice -->
<g id="node3" class="node">
<title>source.invoice</title>
<polygon fill="#efefef" stroke="none" points="500.51,-1073.6 500.51,-1109.2 775.97,-1109.2 775.97,-1073.6 500.51,-1073.6"/>
<polygon fill="none" stroke="black" points="500.51,-1073.6 500.51,-1109.2 775.97,-1109.2 775.97,-1073.6 500.51,-1073.6"/>
<text text-anchor="start" x="523.77" y="-1087" font-family="Arial Bold" font-size="18.00">source.invoice</text>
<text text-anchor="start" x="628.22" y="-1087" font-family="Arial" font-size="14.00">    </text>
<text text-anchor="start" x="659.34" y="-1087" font-family="Arial" font-size="14.00" fill="#666666">[BASE TABLE]</text>
<polygon fill="none" stroke="black" points="500.51,-1042.8 500.51,-1073.6 775.97,-1073.6 775.97,-1042.8 500.51,-1042.8"/>
<text text-anchor="start" x="507.51" y="-1055" font-family="Arial" font-size="14.00">id </text>
<text text-anchor="start" x="522.3" y="-1055" font-family="Arial" font-size="14.00" fill="#666666">[integer]</text>
<polygon fill="none" stroke="black" points="500.51,-1012 500.51,-1042.8 775.97,-1042.8 775.97,-1012 500.51,-1012"/>
<text text-anchor="start" x="507.51" y="-1024.2" font-family="Arial" font-size="14.00">order_id </text>
<text text-anchor="start" x="562.77" y="-1024.2" font-family="Arial" font-size="14.00" fill="#666666">[integer]</text>
<polygon fill="none" stroke="black" points="500.51,-981.2 500.51,-1012 775.97,-1012 775.97,-981.2 500.51,-981.2"/>
<text text-anchor="start" x="507.51" y="-993.4" font-family="Arial" font-size="14.00">total_amount </text>
<text text-anchor="start" x="592.35" y="-993.4" font-family="Arial" font-size="14.00" fill="#666666">[numeric(10,2)]</text>
<polygon fill="none" stroke="black" points="500.51,-950.4 500.51,-981.2 775.97,-981.2 775.97,-950.4 500.51,-950.4"/>
<text text-anchor="start" x="507.51" y="-962.6" font-family="Arial" font-size="14.00">currency </text>
<text text-anchor="start" x="565.08" y="-962.6" font-family="Arial" font-size="14.00" fill="#666666">[varchar(3)]</text>
<polygon fill="none" stroke="black" points="500.51,-919.6 500.51,-950.4 775.97,-950.4 775.97,-919.6 500.51,-919.6"/>
<text text-anchor="start" x="507.51" y="-931.8" font-family="Arial" font-size="14.00">is_voided </text>
<text text-anchor="start" x="570.55" y="-931.8" font-family="Arial" font-size="14.00" fill="#666666">[boolean]</text>
<polygon fill="none" stroke="black" points="500.51,-888.8 500.51,-919.6 775.97,-919.6 775.97,-888.8 500.51,-888.8"/>
<text text-anchor="start" x="507.51" y="-901" font-family="Arial" font-size="14.00">created_at </text>
<text text-anchor="start" x="577.56" y="-901" font-family="Arial" font-size="14.00" fill="#666666">[timestamp without time zone]</text>
<polygon fill="none" stroke="black" points="500.51,-858 500.51,-888.8 775.97,-888.8 775.97,-858 500.51,-858"/>
<text text-anchor="start" x="507.51" y="-870.2" font-family="Arial" font-size="14.00">modified_at </text>
<text text-anchor="start" x="583.78" y="-870.2" font-family="Arial" font-size="14.00" fill="#666666">[timestamp without time zone]</text>
</g>
<!-- source.invoice&#45;&gt;source.order -->
<g id="edge2" class="edge">
<title>source.invoice:order_id&#45;&gt;source.order:id</title>
<path fill="none" stroke="black" d="M489.68,-1024.37C455.75,-1001.15 476.41,-851.08 500.51,-814.8 523.09,-780.81 562.3,-812.73 584.97,-778.8 608.97,-742.88 629.17,-681.6 585.97,-681.6"/>
<polygon fill="black" stroke="black" points="489.63,-1024.36 497.87,-1031.6 494.73,-1025.93 498.87,-1027.2 498.87,-1027.2 498.87,-1027.2 494.73,-1025.93 500.52,-1023 489.63,-1024.36"/>
<text text-anchor="start" x="506.51" y="-1011.4" font-family="Arial" font-size="10.00">FOREIGN KEY (order_id) REFERENCES source.&quot;order&quot;(id)</text>
</g>
</g>
</svg>
